<svg width="32" height="32" viewBox="0 0 32 32" fill="none" xmlns="http://www.w3.org/2000/svg">
<rect width="32" height="32" rx="16" fill="#F48FB1"/>
<path d="M17.32 14.88C18.6933 15.0133 19.74 15.44 20.46 16.16C21.18 16.8667 21.54 17.7733 21.54 18.88C21.54 19.68 21.34 20.4067 20.94 21.06C20.54 21.7 19.94 22.2133 19.14 22.6C18.3533 22.9733 17.3867 23.16 16.24 23.16C15.24 23.16 14.28 23.0133 13.36 22.72C12.44 22.4133 11.6867 21.9933 11.1 21.46L12.02 19.88C12.5 20.3333 13.1133 20.7 13.86 20.98C14.6067 21.2467 15.4 21.38 16.24 21.38C17.28 21.38 18.0867 21.16 18.66 20.72C19.2467 20.28 19.54 19.6733 19.54 18.9C19.54 18.1267 19.2533 17.5267 18.68 17.1C18.1067 16.6733 17.24 16.46 16.08 16.46H14.96V15.06L18.48 10.74H11.74V9H20.98V10.36L17.32 14.88Z" fill="white"/>
</svg>
