<svg width="32" height="32" viewBox="0 0 32 32" fill="none" xmlns="http://www.w3.org/2000/svg">
<rect width="32" height="32" rx="16" fill="#F48FB1"/>
<path d="M21.8 21.26V23H11.74V21.64L17.44 16.14C18.1333 15.4733 18.6 14.9 18.84 14.42C19.08 13.9267 19.2 13.4333 19.2 12.94C19.2 12.2067 18.94 11.64 18.42 11.24C17.9133 10.8267 17.18 10.62 16.22 10.62C14.6733 10.62 13.48 11.1267 12.64 12.14L11.28 10.96C11.8267 10.2933 12.54 9.77333 13.42 9.4C14.3133 9.02667 15.3067 8.84 16.4 8.84C17.8667 8.84 19.0333 9.19333 19.9 9.9C20.7667 10.5933 21.2 11.54 21.2 12.74C21.2 13.4867 21.04 14.1933 20.72 14.86C20.4 15.5267 19.7933 16.2867 18.9 17.14L14.62 21.26H21.8Z" fill="white"/>
</svg>
