<svg width="129" height="140" viewBox="0 0 129 140" fill="none" xmlns="http://www.w3.org/2000/svg">
<g clip-path="url(#clip0_56_4754)">
<path d="M96.1745 0.931396H14.6445C12.4325 0.931396 10.6394 2.72453 10.6394 4.93647V118.878H83.4734C83.4734 131.11 93.9333 139.657 106.186 139.594C118.227 139.534 128.078 129.326 128.078 117.286V32.6783H106.82C103.429 32.6783 96.1745 25.2556 96.1745 21.8663V0.931396Z" fill="#F5F5F6"/>
<path d="M83.6338 118.519H0.0996094C0.0996094 129.446 8.04802 137.346 18.4762 139.097L22.1476 139.404L105.849 139.237C93.6732 139.237 83.3234 129.887 83.6338 118.519Z" fill="#BF5F82"/>
<path d="M46.5533 11.6182H28.3169C27.4542 11.6182 26.7549 12.3175 26.7549 13.1801V31.4166C26.7549 32.2792 27.4542 32.9786 28.3169 32.9786H46.5533C47.416 32.9786 48.1153 32.2792 48.1153 31.4166V13.1801C48.1153 12.3175 47.416 11.6182 46.5533 11.6182Z" fill="#F48FB1"/>
<path d="M105.258 43.4919H28.2802C27.4176 43.4919 26.7183 44.1913 26.7183 45.0539V47.2701C26.7183 48.1327 27.4176 48.8321 28.2802 48.8321H105.258C106.12 48.8321 106.82 48.1327 106.82 47.2701V45.0539C106.82 44.1913 106.12 43.4919 105.258 43.4919Z" fill="#F48FB1"/>
<path d="M105.258 59.5708H28.2802C27.4176 59.5708 26.7183 60.2701 26.7183 61.1328V63.3489C26.7183 64.2116 27.4176 64.9109 28.2802 64.9109H105.258C106.12 64.9109 106.82 64.2116 106.82 63.3489V61.1328C106.82 60.2701 106.12 59.5708 105.258 59.5708Z" fill="#F48FB1"/>
<path d="M105.258 75.6493H28.2802C27.4176 75.6493 26.7183 76.3486 26.7183 77.2113V79.4274C26.7183 80.2901 27.4176 80.9894 28.2802 80.9894H105.258C106.12 80.9894 106.82 80.2901 106.82 79.4274V77.2113C106.82 76.3486 106.12 75.6493 105.258 75.6493Z" fill="#F48FB1"/>
<path opacity="0.6" d="M96.1648 27.5699V31.7419C96.1648 32.6384 96.5379 33.4945 97.195 34.1043C97.8521 34.7142 98.7335 35.0228 99.6275 34.956L128.187 32.8316L96.1648 27.5699Z" fill="#E1E2E1"/>
<path d="M112.719 16.8282L96.1296 0.82959L96.173 31.4918C96.173 32.2291 96.7707 32.8268 97.5081 32.8268H128.187L112.719 16.8282Z" fill="#F5F5F6"/>
</g>
<defs>
<clipPath id="clip0_56_4754">
<rect width="129" height="140" fill="white"/>
</clipPath>
</defs>
</svg>
