<svg width="241" height="242" viewBox="0 0 241 242" fill="none" xmlns="http://www.w3.org/2000/svg">
<g clip-path="url(#clip0_56_4748)">
<path fill-rule="evenodd" clip-rule="evenodd" d="M37.8417 210.854L30.4092 203.422L89.8794 143.951L97.312 151.384L37.8417 210.854Z" fill="#8E8E8E"/>
<path fill-rule="evenodd" clip-rule="evenodd" d="M151.248 157.026C114.239 157.026 84.2379 127.024 84.2379 90.0157C84.2379 53.007 114.239 23.0054 151.248 23.0054C188.256 23.0054 218.258 53.007 218.258 90.0157C218.258 127.024 188.256 157.026 151.248 157.026ZM151.248 0.668701C101.903 0.668701 61.9011 40.6705 61.9011 90.0157C61.9011 139.36 101.903 179.363 151.248 179.363C200.593 179.363 240.595 139.36 240.595 90.0157C240.595 40.6705 200.593 0.668701 151.248 0.668701Z" fill="#F48FB1"/>
<path fill-rule="evenodd" clip-rule="evenodd" d="M103.877 90.0154C103.877 63.8535 125.086 42.6448 151.248 42.6448C177.41 42.6448 198.619 63.8535 198.619 90.0154C198.619 116.178 177.41 137.386 151.248 137.386C125.086 137.386 103.877 116.178 103.877 90.0154Z" fill="#F48FB1"/>
<path fill-rule="evenodd" clip-rule="evenodd" d="M151.248 116.294C136.734 116.294 124.969 104.529 124.969 90.0156C124.969 75.5023 136.734 63.7371 151.248 63.7371C165.761 63.7371 177.526 75.5023 177.526 90.0156C177.526 104.529 165.761 116.294 151.248 116.294Z" fill="white"/>
<path fill-rule="evenodd" clip-rule="evenodd" d="M9.03672 239.659L1.60422 232.227C-0.448164 230.174 -0.44815 226.847 1.60425 224.794L53.8222 172.576C55.8746 170.523 59.2024 170.523 61.2548 172.576C61.2549 172.576 61.2549 172.576 61.2548 172.576L68.6876 180.008C70.7401 182.061 70.7401 185.389 68.6876 187.441L16.4694 239.659C14.4169 241.712 11.0892 241.712 9.03672 239.659C9.0367 239.659 9.03669 239.659 9.03672 239.659Z" fill="#F48FB1"/>
</g>
<defs>
<clipPath id="clip0_56_4748">
<rect width="241" height="242" fill="white"/>
</clipPath>
</defs>
</svg>
