<svg width="20" height="20" viewBox="0 0 20 20" fill="none" xmlns="http://www.w3.org/2000/svg">
<g clip-path="url(#clip0_7008_164)">
<path d="M10 18.3334C5.3975 18.3334 1.66667 14.6025 1.66667 10C1.66667 5.39752 5.3975 1.66669 10 1.66669C14.6025 1.66669 18.3333 5.39752 18.3333 10C18.3333 14.6025 14.6025 18.3334 10 18.3334ZM7.08333 11.6667V13.3334H9.16667V15H10.8333V13.3334H11.6667C12.2192 13.3334 12.7491 13.1139 13.1398 12.7232C13.5305 12.3325 13.75 11.8026 13.75 11.25C13.75 10.6975 13.5305 10.1676 13.1398 9.77688C12.7491 9.38618 12.2192 9.16669 11.6667 9.16669H8.33333C8.22283 9.16669 8.11685 9.12279 8.03871 9.04465C7.96057 8.96651 7.91667 8.86053 7.91667 8.75002C7.91667 8.63951 7.96057 8.53353 8.03871 8.45539C8.11685 8.37725 8.22283 8.33335 8.33333 8.33335H12.9167V6.66669H10.8333V5.00002H9.16667V6.66669H8.33333C7.7808 6.66669 7.2509 6.88618 6.8602 7.27688C6.46949 7.66758 6.25 8.19749 6.25 8.75002C6.25 9.30256 6.46949 9.83246 6.8602 10.2232C7.2509 10.6139 7.7808 10.8334 8.33333 10.8334H11.6667C11.7772 10.8334 11.8832 10.8773 11.9613 10.9554C12.0394 11.0335 12.0833 11.1395 12.0833 11.25C12.0833 11.3605 12.0394 11.4665 11.9613 11.5446C11.8832 11.6228 11.7772 11.6667 11.6667 11.6667H7.08333Z" fill="#8E8E8E"/>
</g>
<defs>
<clipPath id="clip0_7008_164">
<rect width="20" height="20" fill="white"/>
</clipPath>
</defs>
</svg>
