<svg width="143" height="334" viewBox="0 0 143 334" fill="none" xmlns="http://www.w3.org/2000/svg">
<g clip-path="url(#clip0_55_5623)">
<path fill-rule="evenodd" clip-rule="evenodd" d="M110.121 153.123C127.867 147.169 139.868 138.191 141.885 130.943C144.122 122.905 142.631 110.55 126.077 112.782C118.481 113.807 109.603 123.705 103.958 131.39C99.0364 138.088 94.7861 144.117 94.7861 144.117C94.7861 144.117 92.5237 148.36 93.8659 150.741C95.2081 153.123 93.4185 155.133 97.1466 159.747C98.6088 161.557 96.2518 162.501 100.875 163.84C103.275 164.536 108.853 160.417 110.121 153.123Z" fill="#FFC2BD"/>
<path fill-rule="evenodd" clip-rule="evenodd" d="M46.0746 130.169C46.0746 130.169 19.0159 75.6798 21.6036 70.513C24.1921 65.3455 43.2956 53.7277 72.1714 55.712C101.173 57.7048 111.313 69.4648 111.313 69.4648C111.313 69.4648 103.857 104 97.6034 126.411C100.898 132.282 94.9099 136.451 94.9099 136.451C94.9099 136.451 57.3224 134.716 48.3814 135.186C44.2059 133.399 46.0746 130.169 46.0746 130.169Z" fill="#8E8E8E"/>
<path fill-rule="evenodd" clip-rule="evenodd" d="M101.173 175.749L69.0408 190.577L36.0791 177.61C36.0791 177.61 40.105 152.602 47.5994 140.991C48.792 137.716 49.2768 135.26 49.2768 135.26C49.2768 135.26 78.8039 130.794 94.9104 136.451L95.5067 141.81C95.5067 141.81 98.0598 147.871 99.3837 153.421C101.621 162.799 101.173 175.749 101.173 175.749Z" fill="#BF5F82"/>
<path fill-rule="evenodd" clip-rule="evenodd" d="M37.0297 173.608C37.0297 173.608 60.1139 139.205 71.299 183.416C44.1316 278.312 39.6597 293.289 39.6597 293.289C39.6597 293.289 39.8602 301.327 34.492 304.453H15.7018C15.7018 304.453 8.5434 299.988 17.9389 289.717C34.0446 189.684 37.0297 173.608 37.0297 173.608Z" fill="#BF5F82"/>
<path fill-rule="evenodd" clip-rule="evenodd" d="M101.173 174.261C101.173 174.261 85.5936 169.589 69.0404 190.578C67.6191 288.583 66.2092 290.756 66.2092 290.756C66.2092 290.756 62.0824 299.441 67.8986 303.907H87.2823C87.2823 303.907 92.3039 298.201 90.0669 291.95C100.357 205.761 101.173 174.261 101.173 174.261Z" fill="#BF5F82"/>
<path fill-rule="evenodd" clip-rule="evenodd" d="M1.20624 333.988H26.229L35.3746 303.572H15.823L12.4675 323.863L0.555602 331.857C-0.400597 332.498 0.0545679 333.988 1.20624 333.988Z" fill="#373737"/>
<path fill-rule="evenodd" clip-rule="evenodd" d="M67.9872 303.429L86.488 303.517L83.5058 322.674L93.113 331.303C94.1644 332.247 93.4948 333.988 92.0813 333.988H66.6055L67.9872 303.429Z" fill="#373737"/>
<path fill-rule="evenodd" clip-rule="evenodd" d="M51.9609 51.6021L53.4499 25.6751H78.0556L78.0324 53.6857L70.9748 67.0835L51.9609 51.6021Z" fill="#FFC2BD"/>
<path fill-rule="evenodd" clip-rule="evenodd" d="M61.4535 11.2361C61.4535 11.2361 75.1734 7.6634 78.9015 14.0643C82.5273 20.2898 82.7785 42.7941 75.6208 46.2175C69.7862 49.0084 57.8743 47.7059 55.041 36.8398C55.041 36.8398 52.6551 28.5032 53.5499 21.0604C54.444 13.6177 61.4535 11.2361 61.4535 11.2361Z" fill="#FFC2BD"/>
<path fill-rule="evenodd" clip-rule="evenodd" d="M55.0412 30.2898C55.0412 30.2898 51.3131 23.1443 48.4798 27.015C45.6465 30.885 50.4183 38.0304 54.5938 37.7325C58.7693 37.4352 55.0412 30.2898 55.0412 30.2898Z" fill="#FFC2BD"/>
<path fill-rule="evenodd" clip-rule="evenodd" d="M81.2876 27.0151C81.2876 27.0151 83.0772 18.3812 80.9898 13.0221C78.9017 7.66298 76.2173 2.30458 74.2788 5.13276C73.9803 3.79299 72.1907 1.11343 70.8492 0.220251C69.5062 -0.672933 65.3307 5.13276 65.3307 5.13276C65.3307 5.13276 65.6292 2.45321 63.9885 4.09095C62.3485 5.72798 52.3568 10.7891 50.7168 13.4687C49.076 16.1482 49.9476 25.9986 49.9476 25.9986C49.9476 25.9986 53.1542 25.7006 54.869 31.8043C54.4216 26.8918 56.4702 24.3242 57.5216 23.3472C57.9204 22.9767 58.149 22.4618 58.1906 21.9201C58.2697 20.8797 58.3868 19.1328 58.4306 17.426C58.4503 16.6737 59.0008 16.0517 59.7438 15.9235C67.3045 14.6161 75.616 15.7918 78.5764 16.3011C79.2454 16.4159 79.7584 16.9527 79.8473 17.6247L80.5932 23.2078C80.5932 23.2078 80.9898 24.1862 81.2876 27.0151Z" fill="#373737"/>
<path d="M62.8533 25.0267C62.9159 25.0101 62.9806 25.0038 63.0449 25.008L63.109 25.0156L67.9457 25.8595C68.27 25.916 68.4868 26.2242 68.4302 26.5479C68.3771 26.8513 68.1023 27.0605 67.8011 27.0389L67.7405 27.0314L63.0332 26.2098L60.6374 26.8457C60.3392 26.9248 60.0337 26.7636 59.927 26.4816L59.9083 26.4236C59.8291 26.1259 59.9905 25.821 60.2731 25.7145L60.3312 25.6959L62.8533 25.0267Z" fill="#373737"/>
<path d="M77.5553 24.505C77.6375 24.4832 77.7233 24.4793 77.8067 24.4932L77.8688 24.507L79.7332 25.0276C80.0502 25.1161 80.2352 25.4443 80.1466 25.7607C80.0635 26.0573 79.7693 26.2382 79.4716 26.1868L79.4121 26.1734L77.7043 25.696L73.0894 26.92C72.7912 26.999 72.4857 26.8378 72.3791 26.5557L72.3604 26.4977C72.2812 26.2001 72.4427 25.8951 72.7253 25.7887L72.7834 25.7701L77.5553 24.505Z" fill="#373737"/>
<path fill-rule="evenodd" clip-rule="evenodd" d="M55.2646 33.1551C55.2646 33.1551 59.1183 36.158 61.1316 39.2842C63.9283 35.8234 66.8738 34.3343 66.8738 34.3343C66.8738 34.3343 70.2519 36.8392 72.0415 36.058C72.6004 35.3881 72.5404 34.707 72.5404 34.707C72.5404 34.707 75.56 35.8234 77.6848 38.9496C78.5803 36.7166 81.101 33.825 81.101 33.825C81.101 33.825 81.6373 48.402 70.8997 48.6246C60.0505 48.6246 56.4346 42.6336 55.2046 37.6091C54.9202 36.0348 54.482 32.0387 55.2646 33.1551Z" fill="#EFADAB"/>
<path d="M64.3424 36.9885C64.4389 36.744 64.7156 36.6238 64.9606 36.7201L65.1278 36.7822C65.201 36.8084 65.2913 36.8397 65.3975 36.8751C65.7548 36.9943 66.1562 37.1137 66.5918 37.2253C68.0659 37.6027 69.553 37.798 70.928 37.7152C71.5981 37.6748 72.2229 37.5681 72.7943 37.3898C73.0456 37.3114 73.313 37.4512 73.3915 37.702C73.47 37.9529 73.33 38.2198 73.0787 38.2982C72.4295 38.5007 71.7291 38.6203 70.9854 38.6651C69.498 38.7547 67.9172 38.5471 66.3549 38.1471C65.8963 38.0297 65.4733 37.9038 65.0953 37.7777L64.8216 37.6834L64.6112 37.6056C64.3663 37.5093 64.2459 37.233 64.3424 36.9885Z" fill="#D18888"/>
<path d="M71.7005 26.3661C71.8784 26.3822 72.0134 26.5275 72.0211 26.7008L72.02 26.7487L71.8754 28.3324L71.9745 28.803L72.0008 28.9329C72.1028 29.4395 72.2048 29.9819 72.3001 30.5383C72.3983 31.1119 72.4837 31.6686 72.5526 32.1966L72.5994 32.5699C72.8477 34.6387 72.8009 35.9145 72.2585 36.336C71.733 36.744 70.8238 36.6021 69.568 36.1048C69.2544 35.9805 68.926 35.8355 68.5879 35.6739C68.187 35.4822 67.7928 35.2772 67.4217 35.0722L66.9899 34.8271C66.968 34.8142 66.9509 34.8041 66.9389 34.7969C66.7718 34.6968 66.7177 34.4804 66.8179 34.3136C66.9182 34.1469 67.135 34.0928 67.302 34.1929L67.4237 34.2641C67.5236 34.3219 67.6376 34.3864 67.7634 34.4559C68.1231 34.6546 68.5053 34.8534 68.8927 35.0386C69.217 35.1936 69.5307 35.3322 69.8283 35.45C70.8425 35.8517 71.5839 35.9674 71.8252 35.78C72.0784 35.5832 72.1028 34.2886 71.8737 32.4511L71.8528 32.2876C71.7852 31.7695 71.7012 31.2219 71.6045 30.657C71.5293 30.2176 71.4497 29.7868 71.3693 29.3759L71.2343 28.7077L71.1751 28.4304C71.1699 28.4069 71.1672 28.3829 71.1669 28.3588L71.1683 28.3228L71.3172 26.685C71.3333 26.5075 71.4789 26.3727 71.6525 26.365L71.7005 26.3661Z" fill="#D18888"/>
<path d="M71.3087 40.6064C71.5036 40.6055 71.6623 40.7625 71.6632 40.957C71.6641 41.1353 71.532 41.2833 71.3599 41.3074L71.3121 41.3108L68.7998 41.3228C68.605 41.3238 68.4463 41.1668 68.4453 40.9723C68.4445 40.794 68.5765 40.646 68.7486 40.6219L68.7965 40.6184L71.3087 40.6064Z" fill="#D18888"/>
<path fill-rule="evenodd" clip-rule="evenodd" d="M64.4362 30.364C64.4362 31.2276 63.9352 31.9271 63.3177 31.9271C62.7002 31.9271 62.1992 31.2276 62.1992 30.364C62.1992 29.5011 62.7002 28.801 63.3177 28.801C63.9352 28.801 64.4362 29.5011 64.4362 30.364Z" fill="#373737"/>
<path fill-rule="evenodd" clip-rule="evenodd" d="M76.1799 30.364C76.1799 31.2276 75.6796 31.9271 75.0614 31.9271C74.4439 31.9271 73.9429 31.2276 73.9429 30.364C73.9429 29.5011 74.4439 28.801 75.0614 28.801C75.6796 28.801 76.1799 29.5011 76.1799 30.364Z" fill="#373737"/>
<path d="M65.1329 35.723C65.2708 35.5855 65.4942 35.5855 65.6319 35.7231C65.7572 35.8481 65.7685 36.0438 65.666 36.1817L65.6318 36.2212L63.6926 38.1562C63.5548 38.2937 63.3314 38.2936 63.1936 38.1561C63.0684 38.031 63.057 37.8353 63.1595 37.6975L63.1937 37.658L65.1329 35.723Z" fill="#D18888"/>
<path d="M55.2449 37.7674C55.4046 37.7282 55.5659 37.8257 55.6051 37.9851L55.651 38.1526C55.6669 38.2075 55.6864 38.2717 55.7094 38.3449L55.7336 38.421C55.8476 38.7755 55.9933 39.1713 56.1735 39.5981C56.6889 40.8188 57.3764 42.0397 58.2579 43.1782C61.489 47.351 66.3609 49.3337 73.2639 47.9244C73.425 47.8915 73.5823 47.9952 73.6153 48.1561C73.6482 48.3169 73.5443 48.474 73.3832 48.5069C66.2501 49.9631 61.1524 47.8886 57.7867 43.5418C56.8714 42.3597 56.159 41.0945 55.6246 39.829C55.4374 39.3856 55.2857 38.9734 55.1665 38.6027L55.0838 38.3339L55.0267 38.127C54.9875 37.9676 55.0851 37.8066 55.2449 37.7674Z" fill="#D18888"/>
<path d="M70.2356 44.4513C70.4033 44.3523 70.6197 44.4078 70.7189 44.5753C70.7894 44.6944 70.8894 44.8959 70.9884 45.1599C71.2355 45.8194 71.3325 46.5008 71.1858 47.1535C71.0331 47.8324 70.6241 48.4123 69.9324 48.8483C69.7676 48.9522 69.5497 48.903 69.4457 48.7386C69.3416 48.5741 69.3908 48.3566 69.5556 48.2527C70.0886 47.9167 70.3856 47.4957 70.4972 46.9993C70.6093 46.5009 70.5308 45.9493 70.3274 45.4068C70.2443 45.185 70.1622 45.0196 70.1114 44.9337C70.0122 44.7662 70.0678 44.5503 70.2356 44.4513Z" fill="#D18888"/>
<path d="M49.2932 29.2308C49.4328 28.5309 49.983 28.2075 50.8742 28.5495C52.283 29.0899 52.4282 30.1217 51.9511 32.0244C51.689 33.0722 52.0516 33.6627 53.0261 33.8573C53.1873 33.8895 53.2919 34.0461 53.2597 34.207C53.2274 34.368 53.0705 34.4724 52.9092 34.4402C51.5975 34.1783 51.0297 33.2537 51.3733 31.8802C51.7845 30.2402 51.6796 29.4954 50.6605 29.1044C50.1218 28.8977 49.9463 29.0008 49.8773 29.3469C49.8575 29.4464 49.8514 29.555 49.8551 29.6608L49.8647 29.7906L49.8687 29.821C49.8951 29.983 49.785 30.1358 49.6226 30.1622C49.4603 30.1886 49.3073 30.0786 49.2808 29.9166L49.2692 29.8222C49.2509 29.6326 49.2536 29.4291 49.2932 29.2308Z" fill="#D18888"/>
<path fill-rule="evenodd" clip-rule="evenodd" d="M66.5567 40.4004C66.5313 40.5526 66.3873 40.6554 66.2349 40.6301C66.0825 40.6054 65.9794 40.461 66.0048 40.3096C66.0302 40.1574 66.1742 40.0546 66.3266 40.0792C66.4791 40.1046 66.5821 40.2483 66.5567 40.4004Z" fill="#D18888"/>
<path fill-rule="evenodd" clip-rule="evenodd" d="M62.3589 41.4509C62.3335 41.603 62.1896 41.7059 62.0371 41.6805C61.8847 41.6559 61.7817 41.5115 61.8071 41.36C61.8325 41.2079 61.9764 41.105 62.1289 41.1297C62.2813 41.155 62.3843 41.2987 62.3589 41.4509Z" fill="#D18888"/>
<path fill-rule="evenodd" clip-rule="evenodd" d="M75.8827 42.3634C75.9363 42.5078 75.8629 42.6684 75.7183 42.7226C75.5736 42.7762 75.412 42.7022 75.3584 42.5578C75.3047 42.4134 75.3781 42.2528 75.5228 42.1993C75.6675 42.145 75.8291 42.219 75.8827 42.3634Z" fill="#D18888"/>
<path fill-rule="evenodd" clip-rule="evenodd" d="M78.5067 41.0288C78.5603 41.1732 78.4869 41.3338 78.3423 41.388C78.1976 41.4416 78.036 41.3676 77.9824 41.2232C77.9288 41.0788 78.0021 40.9182 78.1468 40.8647C78.2915 40.8104 78.4524 40.8844 78.5067 41.0288Z" fill="#D18888"/>
<path fill-rule="evenodd" clip-rule="evenodd" d="M73.6053 43.1764C73.6589 43.3208 73.5855 43.4814 73.4408 43.535C73.2962 43.5885 73.1346 43.5153 73.0809 43.3709C73.0273 43.2264 73.1014 43.0658 73.2461 43.0123C73.3907 42.9581 73.5516 43.032 73.6053 43.1764Z" fill="#D18888"/>
<path fill-rule="evenodd" clip-rule="evenodd" d="M70.3421 42.536C70.3957 42.6804 70.3223 42.841 70.1776 42.8952C70.033 42.9488 69.8714 42.8748 69.8178 42.7304C69.7641 42.586 69.8382 42.4254 69.9829 42.3719C70.1275 42.3176 70.2884 42.3916 70.3421 42.536Z" fill="#D18888"/>
<path fill-rule="evenodd" clip-rule="evenodd" d="M59.1014 40.3031C59.1557 40.4475 59.0816 40.6089 58.9369 40.6624C58.7923 40.7159 58.6314 40.642 58.577 40.4976C58.5234 40.3532 58.5975 40.1926 58.7422 40.139C58.8868 40.0848 59.0477 40.1587 59.1014 40.3031Z" fill="#D18888"/>
<path fill-rule="evenodd" clip-rule="evenodd" d="M64.4473 44.318C64.4219 44.4701 64.2779 44.573 64.1255 44.5476C63.9731 44.5223 63.87 44.3786 63.8955 44.2264C63.9209 44.0743 64.0648 43.9714 64.2173 43.9968C64.3697 44.0221 64.4727 44.1658 64.4473 44.318Z" fill="#D18888"/>
<path fill-rule="evenodd" clip-rule="evenodd" d="M66.6167 43.8849C66.5913 44.0371 66.4474 44.1399 66.2949 44.1146C66.1425 44.0892 66.0395 43.9455 66.0649 43.7934C66.0903 43.6412 66.2343 43.5384 66.3867 43.5637C66.5391 43.5891 66.6421 43.7328 66.6167 43.8849Z" fill="#D18888"/>
<path fill-rule="evenodd" clip-rule="evenodd" d="M75.3783 44.6365C75.3528 44.7886 75.2089 44.8915 75.0565 44.8661C74.9047 44.8415 74.8017 44.6971 74.8264 44.5456C74.8518 44.3935 74.9958 44.2906 75.1482 44.3153C75.3006 44.3407 75.4037 44.4843 75.3783 44.6365Z" fill="#D18888"/>
<path fill-rule="evenodd" clip-rule="evenodd" d="M73.9906 41.3393C73.9652 41.4915 73.8212 41.5943 73.6688 41.569C73.5171 41.5436 73.414 41.3999 73.4387 41.2478C73.4641 41.0956 73.6081 40.9928 73.7605 41.0181C73.9129 41.0435 74.016 41.1872 73.9906 41.3393Z" fill="#D18888"/>
<path fill-rule="evenodd" clip-rule="evenodd" d="M74.9976 38.5482C74.9722 38.7004 74.8282 38.8032 74.6758 38.7778C74.5234 38.7525 74.4203 38.6088 74.4457 38.4566C74.4711 38.3045 74.6151 38.2016 74.7675 38.227C74.9199 38.2523 75.023 38.396 74.9976 38.5482Z" fill="#D18888"/>
<path fill-rule="evenodd" clip-rule="evenodd" d="M62.0833 43.1909C62.0579 43.3431 61.914 43.4459 61.7615 43.4205C61.6098 43.3952 61.5068 43.2515 61.5315 43.0993C61.5569 42.9472 61.7009 42.8443 61.8533 42.8697C62.0057 42.895 62.1087 43.0387 62.0833 43.1909Z" fill="#D18888"/>
<path fill-rule="evenodd" clip-rule="evenodd" d="M80.5931 57.5565L79.4746 53.016L74.453 53.4625L71.4454 64.9972L64.7859 52.2974L49.9249 50.7837L47.834 57.9285C47.834 57.9285 57.5138 71.0571 73.2117 68.6467C80.9657 67.4555 80.5931 57.5565 80.5931 57.5565Z" fill="#8E8E8E"/>
<path fill-rule="evenodd" clip-rule="evenodd" d="M99.3833 62.9152C99.3833 62.9152 108.928 86.7325 99.9796 108.317C107.138 121.119 114.594 130.496 119.068 134.664C123.542 138.832 140.704 137.889 142.034 123.947C143.227 111.443 121.37 81.6974 118.173 76.3122C113.402 68.2743 102.664 62.9152 99.3833 62.9152Z" fill="#FFC2BD"/>
<path fill-rule="evenodd" clip-rule="evenodd" d="M130.253 95.2173C124.359 85.0781 119.465 78.4462 117.8 75.6427C113.028 67.604 102.291 62.2456 99.0107 62.2456C99.0107 62.2456 108.554 86.0622 99.6071 107.647C102.643 113.076 102.306 112.591 105.2 116.653C105.2 116.653 107.436 111.741 115.937 104.595C124.776 97.165 130.253 95.2173 130.253 95.2173Z" fill="#8E8E8E"/>
<path d="M105.586 81.1103C105.731 81.0764 105.877 81.1668 105.911 81.312L105.937 81.4351C105.958 81.534 105.981 81.6514 106.005 81.7869C106.075 82.1724 106.144 82.6269 106.209 83.1482C106.597 86.2709 106.646 90.125 106.137 94.5986C105.432 100.784 103.735 107.365 100.826 114.228C100.768 114.365 100.609 114.429 100.471 114.371C100.334 114.313 100.269 114.155 100.328 114.017C103.216 107.203 104.9 100.673 105.599 94.5376C106.103 90.1078 106.055 86.2963 105.672 83.2148C105.618 82.7765 105.56 82.3871 105.502 82.0481L105.444 81.7288C105.417 81.5887 105.397 81.4903 105.384 81.4348C105.35 81.2895 105.44 81.1442 105.586 81.1103Z" fill="#373737"/>
<path fill-rule="evenodd" clip-rule="evenodd" d="M95.5809 141.884C72.8763 138.981 47.4873 140.644 47.4873 140.644L48.3821 134.281C48.3821 134.281 77.2381 130.597 95.0587 135.36C95.4687 138.412 95.5809 141.884 95.5809 141.884Z" fill="#373737"/>
<path d="M117.001 114.501C117.121 114.348 117.342 114.32 117.496 114.44C117.636 114.549 117.671 114.742 117.586 114.891L117.557 114.934L110.101 124.462C109.981 124.615 109.759 124.642 109.605 124.522C109.466 124.413 109.431 124.221 109.515 124.071L109.545 124.028L117.001 114.501Z" fill="#D18888"/>
<path d="M73.7476 140.818C73.95 140.825 74.1118 140.982 74.1294 141.179L74.1287 141.286L74.0361 143.57L73.9341 145.809C73.8823 146.895 73.8247 148.037 73.761 149.226L73.7334 149.739C73.4069 155.745 72.9937 161.752 72.4858 167.405L72.3895 168.461C71.5529 177.486 70.5448 184.713 69.3473 189.494C69.2941 189.706 69.0783 189.836 68.8655 189.782C68.6526 189.729 68.5232 189.514 68.5764 189.302L68.6943 188.82C69.8284 184.088 70.7929 177.076 71.5983 168.387C72.117 162.791 72.541 156.817 72.8778 150.82L72.94 149.696C73.0519 147.637 73.146 145.714 73.2233 143.968L73.29 142.403L73.3366 141.201C73.3443 140.982 73.5283 140.81 73.7476 140.818Z" fill="#373737"/>
<path d="M82.3869 141.116C82.6064 141.118 82.7825 141.297 82.7804 141.516L82.7607 142.914C82.7426 144.025 82.7173 145.262 82.6839 146.595C82.5959 150.111 82.4684 153.627 82.2943 156.944L82.2498 157.769C81.7189 167.345 80.9321 173.181 79.644 174.181C79.1679 174.551 78.5938 174.951 77.933 175.378C77.4381 175.698 76.8987 176.029 76.3216 176.371C75.4468 176.888 74.5208 177.407 73.5863 177.91L73.025 178.21C72.7105 178.377 72.4139 178.532 72.1401 178.673L71.5253 178.986C71.329 179.084 71.0904 179.005 70.9922 178.809C70.8941 178.613 70.9736 178.375 71.1699 178.277L71.3578 178.182L71.983 177.861C72.1947 177.751 72.4185 177.633 72.6524 177.509C73.7656 176.92 74.8787 176.302 75.9165 175.688L76.4722 175.356C76.8339 175.136 77.1776 174.921 77.5014 174.712C78.1443 174.297 78.7002 173.909 79.1562 173.555C80.1448 172.788 80.9543 166.783 81.4564 157.725C81.6378 154.451 81.7723 150.96 81.8668 147.453L81.9106 145.703C81.9238 145.131 81.9355 144.579 81.9457 144.051L81.9772 142.184L81.9857 141.508C81.9879 141.289 82.1675 141.113 82.3869 141.116Z" fill="#373737"/>
<path fill-rule="evenodd" clip-rule="evenodd" d="M67.9175 139.837V133.48C67.9175 132.65 68.5519 131.97 69.355 131.946C72.0182 131.867 77.9367 131.795 83.3056 132.475C84.0543 132.57 84.6195 133.222 84.6195 134.001V139.977C84.6195 140.832 83.9484 141.523 83.1207 141.512C80.0771 141.475 73.1445 141.392 69.3902 141.371C68.5731 141.367 67.9175 140.681 67.9175 139.837Z" fill="#E1E2E1"/>
<path fill-rule="evenodd" clip-rule="evenodd" d="M69.6401 138.74L69.6423 134.532C69.6423 133.983 70.1602 133.533 70.8158 133.517C72.9879 133.465 77.8169 133.421 82.1963 133.872C82.8075 133.935 83.2683 134.367 83.2683 134.882L83.2669 138.838C83.2669 139.404 82.7185 139.86 82.0439 139.854C79.5606 139.828 73.9039 139.771 70.8419 139.756C70.175 139.753 69.6401 139.298 69.6401 138.74Z" fill="#373737"/>
<path fill-rule="evenodd" clip-rule="evenodd" d="M83.2216 133.06L69.1221 139.341L69.7043 140.62L83.9209 134.223L83.2216 133.06Z" fill="#E1E2E1"/>
<path fill-rule="evenodd" clip-rule="evenodd" d="M83.8276 139.139L69.6949 132.931L69.1367 134.222L83.4338 140.438L83.8276 139.139Z" fill="#E1E2E1"/>
<path d="M55.1739 140.826C55.3887 140.871 55.5264 141.081 55.4815 141.296L55.4062 141.626C55.3904 141.692 55.3732 141.762 55.3546 141.837C55.2488 142.262 55.1194 142.736 54.9658 143.245C54.5265 144.701 53.9796 146.157 53.3171 147.519L53.1464 147.863C50.7372 152.62 47.485 154.951 43.3235 153.42C43.1176 153.345 43.0122 153.117 43.0881 152.911C43.1639 152.706 43.3924 152.601 43.5982 152.676C47.3687 154.063 50.3326 151.84 52.6023 147.173C53.2445 145.852 53.777 144.435 54.2049 143.016C54.3298 142.602 54.438 142.213 54.5301 141.856L54.6332 141.442L54.7037 141.133C54.7486 140.919 54.9591 140.781 55.1739 140.826Z" fill="#373737"/>
<path d="M74.8919 180.297C75.0015 180.128 75.2174 180.07 75.3943 180.154L75.4415 180.18L84.3889 185.986C84.5728 186.105 84.625 186.351 84.5054 186.535C84.3958 186.703 84.1799 186.761 84.003 186.677L83.9558 186.651L75.0084 180.845C74.8245 180.726 74.7723 180.48 74.8919 180.297Z" fill="#373737"/>
<path d="M70.9838 178.84C71.1529 178.731 71.3736 178.767 71.5006 178.915L71.5328 178.959L75.5594 185.21C75.6781 185.394 75.6246 185.64 75.4401 185.758C75.2709 185.867 75.0502 185.831 74.9232 185.682L74.891 185.639L70.8644 179.388C70.7458 179.203 70.7992 178.958 70.9838 178.84Z" fill="#373737"/>
<path fill-rule="evenodd" clip-rule="evenodd" d="M14.4769 199.457L13.3556 164.818C13.3196 163.708 14.165 162.766 15.2743 162.679L61.179 158.667C62.3553 158.575 63.3729 159.477 63.4209 160.654L64.9409 197.875C64.9882 199.033 64.0786 200.005 62.9192 200.037L16.6151 201.467C15.4698 201.498 14.5136 200.6 14.4769 199.457Z" fill="#FFC2BD"/>
<path fill-rule="evenodd" clip-rule="evenodd" d="M12.4479 199.847L11.3047 164.534C11.2743 163.609 11.9793 162.823 12.9037 162.751L59.4971 158.686C60.478 158.61 61.3262 159.36 61.3664 160.342L62.9154 198.272C62.9549 199.237 62.1963 200.047 61.2295 200.074L14.2297 201.522C13.2749 201.549 12.4789 200.8 12.4479 199.847Z" fill="#8E8E8E"/>
<path fill-rule="evenodd" clip-rule="evenodd" d="M26.0124 65.2971C26.0124 65.2971 17.9598 67.0834 14.3806 80.7784C10.8014 94.4727 12.1436 106.977 13.0384 124.245C13.9332 141.512 20.1968 171.73 22.8812 182.746C25.5649 193.761 26.548 197.438 29.2931 201.353C30.859 203.586 33.4686 204.107 35.2589 203.437C37.6441 205.819 41.447 204.182 41.447 204.182C41.447 204.182 47.1885 205.67 48.3818 202.395C53.0788 203.065 51.0662 196.589 51.6625 194.208C52.2588 191.826 49.7988 187.062 43.2366 180.513C39.0611 173.07 42.7892 106.679 44.5788 98.3434C46.3685 90.0075 46.2937 67.0834 26.0124 65.2971Z" fill="#FFC2BD"/>
<path fill-rule="evenodd" clip-rule="evenodd" d="M43.4604 109.061C43.4604 109.061 47.7848 82.2664 43.6093 73.9305C39.4338 65.5946 32.7425 59.2683 22.1354 67.083C9.60812 76.3121 12.1436 103.255 12.1436 103.255C12.1436 103.255 26.0124 106.382 43.4604 109.061Z" fill="#8E8E8E"/>
<path d="M32.465 70.3726C33.1778 70.3282 33.982 70.3741 34.9154 70.5877C36.2824 70.9006 37.6225 71.5233 38.8753 72.5284C42.6256 75.5373 44.9957 81.4109 45.3591 90.897L45.3707 91.2218L43.73 109.978C43.717 110.127 43.5857 110.237 43.4368 110.224C43.3028 110.212 43.2002 110.105 43.1905 109.975L43.1908 109.931L44.8306 91.2073C44.5133 81.7071 42.1911 75.8818 38.5362 72.9495C37.3496 71.9975 36.0843 71.4095 34.7945 71.1144C33.9898 70.9302 33.2896 70.8787 32.6667 70.9033L32.4776 70.9135C32.4213 70.9176 32.2741 70.9275 32.2445 70.9241C32.096 70.9067 31.9898 70.7724 32.0072 70.6242C32.0247 70.4761 32.1591 70.3701 32.3076 70.3875C32.2848 70.3848 32.3572 70.3793 32.465 70.3726Z" fill="#373737"/>
<path d="M47.8012 193.558C47.9959 193.567 48.1465 193.731 48.1377 193.926L48.1221 194.347C48.1194 194.431 48.1167 194.521 48.1141 194.615C48.0802 195.855 48.0787 197.172 48.1311 198.404L48.1494 198.787C48.236 200.416 48.4184 201.634 48.7019 202.248C48.7835 202.424 48.7062 202.633 48.5293 202.715C48.3523 202.796 48.1427 202.719 48.0611 202.543C47.7038 201.769 47.5074 200.348 47.426 198.434C47.3805 197.362 47.375 196.23 47.3961 195.138L47.4127 194.456L47.4327 193.894C47.4416 193.7 47.6066 193.549 47.8012 193.558Z" fill="#D18888"/>
<path d="M49.0222 58.0595C49.0682 57.9333 49.1986 57.8621 49.3266 57.8863L49.3691 57.898L59.2112 61.4707C59.3517 61.5217 59.4241 61.6767 59.373 61.8169C59.3271 61.9431 59.1967 62.0143 59.0687 61.9901L59.0262 61.9785L49.1841 58.4057C49.0436 58.3547 48.9711 58.1997 49.0222 58.0595Z" fill="#373737"/>
<path d="M71.3696 64.7373C71.5131 64.6958 71.6633 64.7782 71.7049 64.9215L71.7563 65.1034L71.884 65.5761C71.9149 65.6931 71.947 65.8163 71.9801 65.9456L72.0304 66.144C72.2737 67.1091 72.517 68.1766 72.744 69.3164C73.2798 72.007 73.6417 74.6723 73.7497 77.1659C73.8216 78.8258 73.7775 80.3631 73.6034 81.7535C73.5848 81.9016 73.4496 82.0066 73.3013 81.9881C73.1529 81.9696 73.0477 81.8346 73.0663 81.6865C73.2364 80.3285 73.2796 78.8208 73.209 77.1892C73.1023 74.7263 72.744 72.0873 72.2131 69.4218C71.988 68.2912 71.7467 67.2325 71.5055 66.2758L71.3607 65.714L71.1942 65.1034C71.1908 65.0915 71.1877 65.0811 71.1851 65.0721C71.1435 64.9288 71.2261 64.7789 71.3696 64.7373Z" fill="#373737"/>
</g>
<defs>
<clipPath id="clip0_55_5623">
<rect width="143" height="334" fill="white"/>
</clipPath>
</defs>
</svg>
