<svg width="126" height="320" viewBox="0 0 126 320" fill="none" xmlns="http://www.w3.org/2000/svg">
<g clip-path="url(#clip0_55_5326)">
<path fill-rule="evenodd" clip-rule="evenodd" d="M82.7409 105.916L74.6343 86.1253L89.8699 77.1156C89.8699 77.1156 105.475 104.358 102.289 110.455C98.2683 118.147 89.2081 118.17 82.7409 105.916Z" fill="#FFC999"/>
<path fill-rule="evenodd" clip-rule="evenodd" d="M15.6222 318.049C6.27687 322.06 1.43087 316.403 1.43087 316.403C1.43087 316.403 1.15154 314.414 2.77711 312.179C4.81071 309.38 9.37517 308.36 14.7586 302.996C18.8946 298.875 21.5988 292.488 21.5988 292.488C24.5771 288.031 34.1982 293.252 34.1982 293.252C34.1982 293.252 34.4205 302.42 34.2611 307.667C34.2611 307.667 33.9335 310.558 26.7497 311.638C21.3735 312.445 21.2192 315.646 15.6222 318.049Z" fill="#BF5F82"/>
<path fill-rule="evenodd" clip-rule="evenodd" d="M71.2258 290.45C71.2258 290.45 70.9092 303.825 72.0002 307.34C75.1124 310.81 77.8253 309.173 81.9488 312.62C86.0724 316.067 94.7377 321.768 102.465 315.696C103.384 311.629 100.795 309.82 97.5917 307.686C84.3817 298.886 86.6683 297.265 84.2391 292.122C80.5105 284.232 71.1 284.89 71.2258 290.45Z" fill="#BF5F82"/>
<path fill-rule="evenodd" clip-rule="evenodd" d="M35.0727 113.567C35.0727 113.567 30.5931 91.8771 28.6209 83.8655C26.6487 75.8546 23.6074 56.6637 26.9134 55.2042C30.2187 53.7446 38.1359 50.6382 38.1359 50.6382C38.1359 50.6382 44.4539 50.3706 51.5756 51.8389C57.2142 53.0016 57.1484 49.684 63.9819 50.7684C66.8755 51.2269 78.215 54.6937 80.4212 56.4078C82.6266 58.1211 78.9389 114.444 78.9389 114.444C78.9389 114.444 81.6577 117.202 78.4073 120.824C76.7957 122.519 69.7661 121.994 60.774 122.075C50.5372 122.166 38.5052 123.529 36.2588 121.598C32.0388 117.969 35.0727 113.567 35.0727 113.567Z" fill="#8E8E8E"/>
<path fill-rule="evenodd" clip-rule="evenodd" d="M60.7008 46.8855L54.2051 52.481L61.6024 60.0173L65.2309 50.9366L60.7008 46.8855Z" fill="#8E8E8E"/>
<path fill-rule="evenodd" clip-rule="evenodd" d="M33.9065 117.699L32.9471 127.485C32.9471 127.485 6.94672 113.655 1.78555 105.645C-2.79646 98.5339 8.04798 81.1265 8.04798 81.1265C8.04798 81.1265 18.8815 88.6686 20.9078 93.4181L19.1272 98.7664L33.9065 117.699Z" fill="#FFC999"/>
<path fill-rule="evenodd" clip-rule="evenodd" d="M80.5807 100.984C80.5807 100.984 69.7428 82.4269 68.9026 71.6205C68.0778 61.0232 77.4005 53.0804 82.2245 57.696C89.2541 64.4213 96.7786 86.9877 96.7786 86.9877C96.7786 86.9877 88.8818 97.1265 80.5807 100.984Z" fill="#8E8E8E"/>
<path d="M93.6412 88.9441C93.7543 88.7768 93.9816 88.7329 94.1489 88.8461C94.3162 88.9592 94.3601 89.1865 94.2469 89.3537C93.1474 90.9796 91.9262 92.4862 90.604 93.877C88.5041 96.0859 86.2545 97.9022 84.004 99.3521C83.2154 99.8602 82.4824 100.286 81.8237 100.634C81.6849 100.707 81.5552 100.774 81.4352 100.834L81.0944 101C81.0453 101.023 81.0083 101.04 80.9838 101.05C80.799 101.132 80.5832 101.048 80.5018 100.863C80.4204 100.678 80.5042 100.463 80.689 100.381L80.8348 100.314L80.8913 100.287C81.0273 100.221 81.1811 100.144 81.3515 100.056L81.4824 99.9874C82.1229 99.6494 82.8376 99.2337 83.6079 98.7374C85.8118 97.3175 88.0165 95.5376 90.074 93.3732C91.369 92.011 92.5648 90.5357 93.6412 88.9441Z" fill="#373737"/>
<path fill-rule="evenodd" clip-rule="evenodd" d="M3.39966 89.873C3.39966 89.873 15.9589 62.9893 22.7229 57.7279C29.4877 52.4666 32.5056 55.2322 35.2383 58.9798C36.9596 61.3388 40.9186 68.0334 32.1868 82.1546C25.6114 92.7877 22.8553 96.7292 22.0707 98.5032C11.0449 97.7646 3.39966 89.873 3.39966 89.873Z" fill="#8E8E8E"/>
<path fill-rule="evenodd" clip-rule="evenodd" d="M54.3443 53.4756L60.6711 47.0501L59.5369 25.1141L42.4549 26.0896L41.7639 47.7309L54.3443 53.4756Z" fill="#FFC999"/>
<path fill-rule="evenodd" clip-rule="evenodd" d="M63.9655 23.1114C63.9655 23.1114 66.5929 20.4219 67.6825 22.2478C68.7713 24.073 66.8116 30.568 63.9794 30.7216C60.1974 30.9256 63.9655 23.1114 63.9655 23.1114Z" fill="#FFC999"/>
<path fill-rule="evenodd" clip-rule="evenodd" d="M47.4024 39.6864C47.4024 39.6864 52.9328 44.2648 60.3141 39.7939C65.6273 36.5757 66.341 24.8304 65.3641 16.2016C64.8113 11.3191 62.5751 8.68217 57.8249 7.21455C53.074 5.74693 40.1732 5.63505 40.0204 19.9939C39.85 35.987 47.4024 39.6864 47.4024 39.6864Z" fill="#FFC999"/>
<path d="M57.0977 18.4297C57.2221 18.4619 57.3025 18.5783 57.2934 18.702L57.2857 18.7487L56.517 21.7233L58.0922 29.8588C58.1205 30.0054 58.0213 30.1425 57.8797 30.1666L57.8361 30.1704L54.3955 30.1828C54.251 30.1833 54.1333 30.0666 54.1328 29.922C54.1323 29.7918 54.2269 29.6836 54.3512 29.6628L54.3937 29.6592L57.5179 29.6476L55.992 21.7647C55.9871 21.7392 55.986 21.7132 55.9887 21.6876L55.9956 21.6495L56.7788 18.6177C56.8109 18.4933 56.9273 18.4129 57.0511 18.422L57.0977 18.4297Z" fill="#DD936F"/>
<path d="M53.7728 17.6188C53.8128 18.0022 53.5344 18.3455 53.151 18.3855L50.5592 18.6683L49.9097 18.7336C48.039 18.9138 46.8598 18.951 46.131 18.8031C45.7532 18.7264 45.5092 18.3579 45.5859 17.9802C45.6626 17.6024 46.031 17.3583 46.4088 17.435C47.0186 17.5588 48.3318 17.497 50.4144 17.2799L53.0061 16.997C53.3895 16.957 53.7328 17.2354 53.7728 17.6188Z" fill="#373737"/>
<path d="M51.5448 32.1783C51.5962 31.9831 51.7962 31.8664 51.9914 31.9178L52.1017 31.944L52.2233 31.97C52.4221 32.011 52.6562 32.0523 52.9237 32.0909C54.324 32.2931 55.9891 32.3428 57.8539 32.1447C58.0547 32.1234 58.2347 32.2689 58.2561 32.4697C58.2774 32.6705 58.1319 32.8505 57.9311 32.8719C56.0029 33.0766 54.2773 33.0251 52.8192 32.8146C52.5935 32.782 52.3892 32.7475 52.2075 32.7124L52.0754 32.6861C51.9454 32.6593 51.8547 32.6379 51.8054 32.6249C51.6101 32.5736 51.4935 32.3736 51.5448 32.1783Z" fill="#FF7946"/>
<path fill-rule="evenodd" clip-rule="evenodd" d="M41.6211 26.1576L38.8548 20.6097C38.8548 20.6097 37.129 12.6229 38.9959 9.20362C41.8931 3.89767 48.4502 4.07975 52.3507 2.68306C56.2519 1.28638 56.2234 -0.0240238 57.8007 0.203395C59.378 0.430813 65.4657 4.7313 66.1253 9.19411C66.7051 13.1165 65.6463 23.0966 65.6463 23.0966C65.6463 23.0966 64.5984 14.247 63.7597 11.9063C60.6833 10.5996 49.4754 10.468 44.7881 11.8822C44.7881 11.8822 44.3647 14.8898 44.1176 17.009C41.6021 18.7859 41.6211 26.1576 41.6211 26.1576Z" fill="#373737"/>
<path d="M60.4219 39.2959C60.52 39.1897 60.6856 39.1831 60.7918 39.2812C60.898 39.3793 60.9046 39.5449 60.8065 39.6511C60.7366 39.7269 60.6037 39.8521 60.407 40.0101C60.0841 40.2696 59.696 40.5282 59.2419 40.7689C56.6227 42.1575 53.1487 42.3704 48.8123 40.6745C48.6776 40.6219 48.6111 40.47 48.6638 40.3354C48.7165 40.2007 48.8683 40.1343 49.003 40.1869C53.1967 41.8269 56.5115 41.6238 58.9966 40.3063C59.4206 40.0815 59.7813 39.8413 60.0791 39.602L60.1994 39.5026C60.3081 39.4101 60.3822 39.3389 60.4219 39.2959Z" fill="#DD936F"/>
<path d="M56.8369 21.2166C57.1259 21.2065 57.3684 21.4326 57.3785 21.7216C57.3879 21.9913 57.1916 22.2205 56.9304 22.2581L56.8735 22.2631L54.3427 22.3516C54.0537 22.3617 53.8112 22.1356 53.8011 21.8467C53.7917 21.5769 53.988 21.3477 54.2492 21.3102L54.3061 21.3051L56.8369 21.2166Z" fill="#373737"/>
<path d="M54.5541 22.9047C55.0656 22.6844 55.5889 22.567 56.1022 22.6141C56.589 22.6589 57.029 22.853 57.3881 23.2129C57.5924 23.4176 57.592 23.7491 57.3873 23.9533C57.1973 24.143 56.8979 24.1563 56.6925 23.9933L56.6469 23.9526C56.4674 23.7727 56.2573 23.68 56.0064 23.6569C55.6944 23.6282 55.3332 23.7093 54.9684 23.8664C54.8303 23.9259 54.7162 23.9847 54.6354 24.0313L54.555 24.0804C54.3136 24.2397 53.9889 24.1732 53.8296 23.9318C53.6703 23.6905 53.7368 23.3657 53.9781 23.2064C54.0997 23.1262 54.2983 23.0149 54.5541 22.9047Z" fill="#373737"/>
<path d="M58.6306 16.9585C59.8106 16.5212 61.0069 16.2855 62.1501 16.3638C63.0427 16.4249 63.8606 16.679 64.5741 17.1548C64.8948 17.3687 64.9814 17.8021 64.7675 18.1228C64.5536 18.4435 64.1202 18.5301 63.7995 18.3162C63.3002 17.9832 62.7162 17.8018 62.0548 17.7565C61.1378 17.6937 60.126 17.893 59.1158 18.2674C58.8658 18.3601 58.6313 18.4579 58.4162 18.5566L58.2586 18.6307C58.108 18.7033 58.0042 18.758 57.9547 18.786C57.6193 18.976 57.1934 18.8581 57.0034 18.5227C56.8134 18.1873 56.9313 17.7614 57.2667 17.5714C57.5466 17.4128 58.0198 17.1849 58.6306 16.9585Z" fill="#373737"/>
<path d="M56.3687 34.7374C56.5132 34.7342 56.633 34.8488 56.6362 34.9933C56.639 35.1234 56.5465 35.2334 56.4226 35.2565L56.3802 35.2608L54.3173 35.3061C54.1728 35.3093 54.053 35.1947 54.0499 35.0502C54.047 34.9201 54.1396 34.8101 54.2635 34.7871L54.3058 34.7827L56.3687 34.7374Z" fill="#DD936F"/>
<path d="M44.935 21.4923C45.2241 21.4875 45.4624 21.718 45.4672 22.0071C45.4716 22.277 45.2712 22.5025 45.0093 22.5353L44.9523 22.5393L40.8003 22.608C40.5112 22.6128 40.2729 22.3823 40.2681 22.0932C40.2637 21.8233 40.4642 21.5978 40.726 21.565L40.783 21.561L44.935 21.4923Z" fill="#373737"/>
<path fill-rule="evenodd" clip-rule="evenodd" d="M45.2367 21.189L53.1627 21.0135C53.7162 21.0011 54.1747 21.4384 54.1828 21.9919C54.1981 23.0244 54.1769 24.6815 53.9393 26.1045C53.6607 27.7827 52.1792 28.8393 50.4819 28.9556C48.3606 29.1011 46.4557 29.145 45.4677 28.065C43.9636 26.4182 44.2619 23.6475 44.2604 22.1828C44.2604 21.646 44.6992 21.2007 45.2367 21.189Z" fill="white"/>
<path d="M53.2363 20.8399L53.1588 20.839L45.2328 21.0147C44.6003 21.0284 44.086 21.5515 44.086 22.1828L44.0826 22.5104L44.0668 23.2698C44.0534 24.1369 44.0732 24.6918 44.1565 25.3218C44.313 26.5053 44.6807 27.4619 45.339 28.1826C46.2356 29.1628 47.5911 29.3287 50.4939 29.1296C52.3472 29.0026 53.8297 27.8297 54.1113 26.133C54.3132 24.924 54.3794 23.4826 54.3572 21.9893C54.3481 21.3656 53.852 20.866 53.2363 20.8399ZM45.2405 21.3634L53.1666 21.1879C53.6245 21.1776 54.0018 21.5389 54.0084 21.9945C54.0303 23.4686 53.965 24.8915 53.7673 26.0757C53.5138 27.6026 52.171 28.6651 50.47 28.7816L49.9076 28.8164C47.5022 28.9475 46.335 28.7547 45.5964 27.9472C44.993 27.2866 44.6502 26.3948 44.5023 25.2761C44.4216 24.6662 44.4024 24.1242 44.4157 23.2716L44.4346 22.2963C44.4348 22.2588 44.4349 22.2225 44.4349 22.1826C44.4349 21.7415 44.7972 21.373 45.2405 21.3634Z" fill="#373737"/>
<path d="M50.7042 23.0221C50.897 23.0179 51.0567 23.1708 51.0608 23.3636C51.0845 24.4591 50.3137 25.3823 49.3132 25.4043C48.312 25.4263 47.5016 24.5381 47.4779 23.4423C47.4737 23.2495 47.6266 23.0898 47.8194 23.0857C48.0122 23.0815 48.1719 23.2344 48.176 23.4272C48.1918 24.1567 48.705 24.7192 49.2978 24.7061C49.8901 24.6931 50.3784 24.1083 50.3626 23.3787C50.3585 23.1859 50.5114 23.0262 50.7042 23.0221Z" fill="#373737"/>
<path fill-rule="evenodd" clip-rule="evenodd" d="M57.597 20.8275L66.5702 20.6293C66.9314 21.9332 66.723 27.011 65.2071 28.132C63.1684 29.2581 58.9908 28.8822 58.3188 27.7956C57.3001 26.1473 56.865 22.9693 56.8518 21.5975C56.8482 21.1792 57.1787 20.837 57.597 20.8275Z" fill="white"/>
<path d="M66.5664 20.4549L57.5933 20.6531C57.0797 20.6648 56.6731 21.0852 56.6775 21.599C56.6962 23.5422 57.288 26.4593 58.1705 27.8873C58.9352 29.1237 63.2676 29.4026 65.2916 28.2846C66.6648 27.271 67.2635 22.4781 66.7384 20.5828C66.7171 20.5058 66.6462 20.4532 66.5664 20.4549ZM66.4348 20.8063L66.4541 20.8927C66.8475 22.7998 66.2657 27.1323 65.1036 27.9917C63.2429 29.0178 59.1155 28.7521 58.4672 27.7038C57.6245 26.3403 57.0445 23.481 57.0263 21.5958C57.0236 21.2728 57.2785 21.0092 57.6011 21.0019L66.4348 20.8063Z" fill="#373737"/>
<path d="M61.9041 22.7745C62.0969 22.7703 62.2566 22.9232 62.2608 23.116C62.2845 24.2119 61.5142 25.1347 60.5132 25.1567C59.5125 25.1788 58.7015 24.2903 58.6778 23.1948C58.6736 23.002 58.8266 22.8423 59.0194 22.8381C59.2122 22.8339 59.3718 22.9869 59.376 23.1797C59.3918 23.9089 59.9054 24.4716 60.4978 24.4586C61.0905 24.4455 61.5784 23.861 61.5626 23.1311C61.5584 22.9383 61.7113 22.7787 61.9041 22.7745Z" fill="#373737"/>
<path d="M44.3797 20.7388L54.2099 20.779C54.4991 20.7802 54.7325 21.0155 54.7314 21.3047C54.7302 21.5746 54.5251 21.7959 54.2627 21.8233L54.2056 21.8261L44.3754 21.7859C44.0863 21.7847 43.8528 21.5494 43.854 21.2602C43.8551 20.9903 44.0602 20.769 44.3227 20.7416L44.3797 20.7388Z" fill="#373737"/>
<path d="M66.6294 20.3024C66.9184 20.2919 67.1611 20.5177 67.1715 20.8067C67.1813 21.0764 66.9853 21.3058 66.7241 21.3437L66.6672 21.3488L57.0418 21.6969C56.7528 21.7073 56.5101 21.4816 56.4996 21.1926C56.4899 20.9229 56.6859 20.6934 56.947 20.6556L57.0039 20.6504L66.6294 20.3024Z" fill="#373737"/>
<path fill-rule="evenodd" clip-rule="evenodd" d="M40.3891 21.6801C39.3946 20.6191 37.8275 20.3025 36.6941 21.4864C34.8689 23.3949 36.403 30.635 41.2293 31.0226C43.0691 30.801 41.9423 23.3364 40.3891 21.6801Z" fill="#FFC999"/>
<path fill-rule="evenodd" clip-rule="evenodd" d="M85.6531 105.063C85.6531 105.063 88.7894 116.264 98.7037 114.205C105.474 112.799 112.071 77.4945 112.593 73.3936C112.966 70.462 104.128 69.9802 104.128 69.9802L85.6531 105.063Z" fill="#FFC999"/>
<path fill-rule="evenodd" clip-rule="evenodd" d="M104.009 70.5072C104.009 70.5072 104.357 68.5336 105.054 64.5855C105.752 60.6382 113.314 52.0439 113.804 51.6095C115.475 50.1302 116.832 52.1967 113.283 57.5195C117.644 56.2412 120.351 54.2142 121.861 51.4274C123.371 48.6414 126.429 50.604 125.482 55.0815C124.535 59.5589 124.371 63.1845 121.481 66.5087C117.342 71.2684 113.891 72.8399 111.944 73.6698C110.362 74.3448 105.258 73.6245 104.009 70.5072Z" fill="#FFC999"/>
<path fill-rule="evenodd" clip-rule="evenodd" d="M36.5601 295.361L56.7177 158.665L58.0222 158.374L68.7329 294.645C68.7329 294.645 80.0446 297.918 85.9882 294.298C86.0474 267.704 84.5432 181.415 81.6372 141.983C81.1692 135.634 79.1612 127.013 78.7546 124.616C60.6087 121.671 35.9107 126.005 35.9107 126.005L19.1951 293.394C19.1951 293.394 28.1887 298.105 36.5601 295.361Z" fill="#F48FB1"/>
<path d="M67.23 153.027C67.3595 152.963 67.5166 153.016 67.5809 153.145C67.6381 153.261 67.6027 153.397 67.5032 153.472L67.4629 153.496L56.5724 158.906C56.4429 158.97 56.2858 158.918 56.2215 158.788C56.1643 158.673 56.1997 158.536 56.2992 158.462L56.3395 158.437L67.23 153.027Z" fill="#8E8E8E"/>
<path fill-rule="evenodd" clip-rule="evenodd" d="M36.1481 121.542C36.1481 121.542 59.2073 117.98 78.4165 121.216C78.5855 122.916 78.7631 125.009 78.7631 125.009C78.7631 125.009 63.2146 121.298 36.0735 126.628C36.1181 122.012 36.1481 121.542 36.1481 121.542Z" fill="#F48FB1"/>
<path d="M44.0494 126.335C52.3675 125.618 60.8692 125.315 68.8068 125.663C72.1748 125.811 75.3539 126.075 78.3128 126.465C78.4562 126.484 78.5571 126.615 78.5381 126.759C78.5192 126.902 78.3877 127.003 78.2444 126.984C75.3014 126.596 72.1374 126.333 68.7839 126.186C60.872 125.84 52.3916 126.141 44.0944 126.856C42.351 127.007 40.7318 127.166 39.2612 127.327L38.474 127.414C38.1394 127.452 37.8273 127.489 37.5386 127.523L36.3882 127.668C36.2449 127.687 36.1131 127.586 36.0937 127.443C36.0743 127.3 36.1748 127.168 36.318 127.149L37.0589 127.054L37.9283 126.95L38.4148 126.894C40.0925 126.703 41.9842 126.513 44.0494 126.335Z" fill="#8E8E8E"/>
<path d="M43.9116 120.467C52.2329 119.75 60.7379 119.447 68.6796 119.795C72.0509 119.943 75.2332 120.207 78.1956 120.597C78.3958 120.624 78.5367 120.807 78.5103 121.008C78.4839 121.208 78.3003 121.349 78.1001 121.322C75.16 120.935 71.9987 120.672 68.6476 120.526C61.0345 120.192 52.8937 120.46 44.8965 121.118L43.9744 121.196C42.0732 121.36 40.3197 121.534 38.7457 121.71L37.8714 121.809L36.6993 121.951L36.2721 122.007C36.072 122.034 35.8878 121.893 35.8608 121.693C35.8337 121.493 35.974 121.309 36.1741 121.282L36.7208 121.212C37.039 121.172 37.3949 121.129 37.7864 121.083L38.2734 121.027C39.9522 120.836 41.8451 120.645 43.9116 120.467Z" fill="#373737"/>
<path d="M59.2787 120.862C59.4088 120.862 59.5168 120.957 59.5371 121.081L59.5406 121.124L59.5346 123.026C59.5272 124.472 59.5138 126.077 59.4928 127.799C59.4333 132.692 59.3258 137.578 59.1584 142.139L59.1069 143.482C58.8949 148.785 58.6096 153.232 58.241 156.569C58.2251 156.713 58.0958 156.817 57.9521 156.801C57.8084 156.785 57.7047 156.656 57.7206 156.512L57.8084 155.68C58.1629 152.17 58.4353 147.564 58.6352 142.12C58.7905 137.889 58.8942 133.377 58.9558 128.84L58.9848 126.412C58.994 125.509 59.0012 124.646 59.0064 123.827L59.017 121.127C59.0169 120.979 59.1341 120.862 59.2787 120.862Z" fill="#8E8E8E"/>
<path fill-rule="evenodd" clip-rule="evenodd" d="M63.7713 122.726C63.786 123.377 63.3874 123.915 62.8807 123.926C62.3746 123.937 61.952 123.419 61.9366 122.768C61.9227 122.117 62.3213 121.58 62.8273 121.568C63.3333 121.556 63.756 122.076 63.7713 122.726Z" fill="white"/>
<path d="M113.038 57.4264C113.089 57.2912 113.24 57.223 113.375 57.2742C113.496 57.3197 113.563 57.4442 113.54 57.5662L113.528 57.6118L112.494 60.3406L112.495 60.357C112.499 60.712 112.493 61.1742 112.468 61.7095L112.458 61.9135C112.408 62.8546 112.312 63.7848 112.159 64.6565C111.748 66.9971 110.997 68.5792 109.765 69.0511C109.63 69.1028 109.479 69.0353 109.427 68.9003C109.376 68.7653 109.443 68.6139 109.578 68.5622C110.577 68.1794 111.263 66.7357 111.644 64.5659C111.793 63.7172 111.886 62.8073 111.935 61.8859L111.953 61.4925C111.965 61.1762 111.971 60.8899 111.972 60.6419L111.97 60.3008L111.987 60.2022L113.038 57.4264Z" fill="#DD936F"/>
<path d="M123.585 59.0259C123.984 58.9402 124.348 59.089 124.62 59.4774C124.703 59.5959 124.674 59.7592 124.555 59.842C124.437 59.9248 124.273 59.8959 124.191 59.7774C124.038 59.5594 123.885 59.4969 123.694 59.5378C123.475 59.5848 123.212 59.768 122.941 60.0458C122.861 60.1279 122.784 60.2142 122.711 60.302L122.606 60.4344C122.545 60.5136 122.502 60.5743 122.499 60.5735L122.445 60.6798C122.429 60.7105 122.41 60.7458 122.388 60.7854C122.298 60.948 122.189 61.1284 122.061 61.3223C121.695 61.8747 121.246 62.4266 120.71 62.9421C119.755 63.8592 118.629 64.5594 117.322 64.9544C117.184 64.9962 117.037 64.9179 116.996 64.7795C116.954 64.6411 117.032 64.495 117.17 64.4532C118.393 64.0837 119.449 63.4272 120.347 62.5645C120.854 62.0774 121.279 61.5552 121.624 61.0334C121.714 60.8969 121.794 60.7679 121.864 60.6483L121.93 60.532C121.979 60.443 122.011 60.3809 122.044 60.3165L122.118 60.2123C122.139 60.1833 122.163 60.1506 122.191 60.115C122.305 59.9671 122.431 59.8192 122.566 59.6803C122.903 59.3351 123.241 59.0995 123.585 59.0259Z" fill="#DD936F"/>
<path d="M123.688 55.6315C124.405 55.3051 124.981 55.6186 125.185 56.6137C125.214 56.7554 125.123 56.8938 124.981 56.9229C124.84 56.952 124.701 56.8608 124.672 56.7191C124.534 56.0465 124.309 55.9241 123.906 56.108C123.719 56.1929 123.511 56.3424 123.295 56.5376C123.164 56.6564 123.038 56.7844 122.923 56.9124L122.823 57.027C122.806 57.0464 122.794 57.0613 122.787 57.0704C121.433 58.9323 120.147 60.1817 118.967 60.9326C118.243 61.3933 117.706 61.5839 117.396 61.619C117.253 61.6353 117.123 61.5321 117.107 61.3884C117.092 61.2591 117.174 61.1411 117.295 61.1069L117.393 61.0889C117.453 61.076 117.544 61.0509 117.664 61.0082C117.958 60.9042 118.3 60.7367 118.686 60.4909C119.808 59.777 121.047 58.5734 122.37 56.7535L122.419 56.6935C122.449 56.6576 122.488 56.6133 122.534 56.5625C122.66 56.4219 122.798 56.2813 122.944 56.1494C123.196 55.9211 123.445 55.7424 123.688 55.6315Z" fill="#DD936F"/>
<path d="M124.242 52.1102C124.65 52.0379 125.04 52.1816 125.414 52.5384C125.518 52.6383 125.522 52.804 125.422 52.9085C125.322 53.013 125.157 53.0168 125.052 52.917C124.792 52.6684 124.565 52.5848 124.333 52.6258C124.013 52.6825 123.646 52.9707 123.134 53.5557L123.036 53.6688C122.918 53.8074 121.759 55.2584 121.281 55.8094L121.232 55.8649C121.081 56.0361 120.931 56.199 120.782 56.3557C119.841 57.3389 118.9 58.0925 118.003 58.646C117.74 58.8084 117.496 58.9438 117.274 59.0545L117.143 59.1179C116.987 59.1918 116.875 59.2381 116.812 59.2606C116.676 59.3095 116.526 59.2387 116.478 59.1026C116.429 58.9665 116.5 58.8166 116.636 58.7678L116.699 58.7432C116.752 58.7215 116.826 58.689 116.919 58.6447C117.158 58.5319 117.429 58.385 117.728 58.2004C118.588 57.6698 119.494 56.9442 120.403 55.9939C120.5 55.8929 120.596 55.789 120.693 55.6817L120.84 55.5182C121.272 55.0291 122.507 53.4827 122.638 53.3292C123.278 52.5787 123.742 52.1987 124.242 52.1102Z" fill="#DD936F"/>
<path d="M96.2397 84.7035C96.3107 84.5775 96.4704 84.533 96.5963 84.6041C96.7082 84.6672 96.7558 84.8004 96.7151 84.9176L96.6957 84.9607L88.9452 98.7009C88.8741 98.8268 88.7145 98.8713 88.5885 98.8003C88.4766 98.7371 88.429 98.604 88.4697 98.4867L88.4891 98.4436L96.2397 84.7035Z" fill="#DD936F"/>
<path fill-rule="evenodd" clip-rule="evenodd" d="M54.2758 53.3462L47.9783 61.7454L38.4158 50.6545L41.8622 46.2867L54.2758 53.3462Z" fill="#8E8E8E"/>
<path d="M54.5637 53.7964C54.7442 53.7286 54.9455 53.82 55.0133 54.0006L55.0854 54.2103L55.1568 54.4353C55.1946 54.5576 55.2354 54.6947 55.279 54.8472L55.4149 55.3384C55.5847 55.9726 55.7679 56.7314 55.9618 57.6238C56.665 60.8598 57.3675 65.1824 58.0227 70.7392C58.6807 76.3199 59.2549 82.8589 59.7215 90.4318L59.7907 91.5925C60.4222 102.565 60.3286 111.988 59.8428 119.111C59.8296 119.304 59.663 119.449 59.4706 119.436C59.2782 119.423 59.1329 119.256 59.146 119.064L59.1955 118.308C59.6516 111.053 59.7054 101.524 59.0245 90.4748L58.9412 89.1513C58.505 82.3688 57.9809 76.4423 57.3869 71.3147L57.2284 69.9791C56.6216 64.9861 55.9776 61.0387 55.3331 58.0214L55.2794 57.7721C55.0358 56.6507 54.8099 55.7459 54.6076 55.0394L54.5272 54.7648C54.5017 54.68 54.4776 54.6019 54.4548 54.5304L54.3892 54.3302C54.3754 54.2898 54.3655 54.2619 54.3595 54.2461C54.2917 54.0656 54.3831 53.8642 54.5637 53.7964Z" fill="#373737"/>
<path d="M80.7197 58.0847C80.9215 58.0765 81.0919 58.2331 81.1004 58.4349L81.1147 58.9035C81.1611 60.8612 81.1099 63.1027 80.8848 65.2348C80.7444 66.5645 80.5437 67.7468 80.2742 68.747L80.215 68.9586L80.2355 68.9964L80.2586 69.0451C80.3175 69.1781 80.3717 69.3713 80.4252 69.6296C80.5298 70.1337 80.6328 70.8943 80.7255 71.8598L80.768 72.3248C80.9547 74.4709 81.0798 77.3329 81.1132 80.6288C81.2042 89.6202 80.6325 100.473 79.2638 112.297L79.1933 112.898L79.2874 113.138L79.3173 113.218C79.4368 113.539 79.5561 113.893 79.6674 114.273C79.9348 115.182 80.1144 116.086 80.1652 116.937C80.2501 118.356 79.9704 119.514 79.2173 120.302C79.0778 120.448 78.8463 120.453 78.7004 120.314C78.5544 120.174 78.5492 119.943 78.6888 119.797C79.2758 119.183 79.5092 118.216 79.4353 116.98C79.3881 116.191 79.2189 115.34 78.9658 114.479C78.8808 114.189 78.791 113.915 78.7002 113.66L78.632 113.473C78.5643 113.291 78.5121 113.162 78.4833 113.095C78.458 113.036 78.4486 112.971 78.4561 112.907C79.8526 101.077 80.4513 90.199 80.3865 81.1654L80.3819 80.6362C80.3488 77.3586 80.2245 74.5155 80.0396 72.3901L79.9976 71.9297C79.9072 70.9884 79.8075 70.2517 79.7092 69.7781C79.6841 69.6571 79.6596 69.5563 79.6371 69.478L79.614 69.4052C79.4872 69.3306 79.4045 69.1887 79.4349 69.0251L79.4461 68.98C79.7658 67.9432 80.0002 66.6491 80.1576 65.158C80.363 63.2122 80.4213 61.1653 80.3919 59.3384L80.3731 58.5529C80.3719 58.518 80.3708 58.4888 80.3698 58.4657C80.3613 58.2639 80.518 58.0935 80.7197 58.0847Z" fill="#373737"/>
<path d="M62.8702 64.5842L62.7955 64.584C62.5829 64.5833 62.4145 64.7635 62.4297 64.9756L63.3591 77.9963C63.3679 78.1199 63.4388 78.2307 63.5473 78.2905L70.6302 82.1932C70.7517 82.2601 70.9007 82.2525 71.0148 82.1736L76.4414 78.4164C76.5302 78.3549 76.5872 78.2574 76.5973 78.1499L76.6319 77.7042L76.6606 77.2579C76.6733 77.0453 76.6858 76.8138 76.6979 76.5633L76.7292 75.851C76.8244 73.4608 76.8492 70.4405 76.7663 66.7724C76.7631 66.6316 76.6793 66.5052 76.5509 66.4473C74.8021 65.6595 72.0113 65.1482 68.5546 64.8509C67.3108 64.7439 66.0529 64.6717 64.8308 64.628L64.072 64.6044C63.5987 64.592 63.1932 64.5859 62.8702 64.5842ZM64.0742 77.7459L63.187 65.318L63.7769 65.3287C64.0863 65.3356 64.4306 65.3454 64.8047 65.3588C66.0153 65.402 67.2612 65.4736 68.4919 65.5795L68.7973 65.6064L69.397 65.6639C72.1605 65.943 74.4274 66.375 75.9384 66.9814L76.0399 67.0233L76.0518 67.59C76.1163 71.0151 76.0837 73.8405 75.9878 76.0822L75.9585 76.7098C75.9494 76.8884 75.9401 77.0564 75.9307 77.2136L75.8829 77.9131L70.7851 81.4431L64.0742 77.7459Z" fill="#373737"/>
<path fill-rule="evenodd" clip-rule="evenodd" d="M40.4984 113.618C40.4984 113.618 34.6711 108.149 32.7501 108.385C29.7724 108.749 31.9026 114.498 31.9026 114.498C31.9026 114.498 29.3849 116.225 31.1201 119.135C30.1022 122.008 31.7051 123.349 31.7051 123.349C31.7051 123.349 30.0825 125.547 32.4795 127.264C34.8773 128.98 40.241 128.369 39.3708 124.653C41.487 122.543 39.6706 120.518 39.6706 120.518C39.6706 120.518 41.1975 118.519 39.3862 116.592C40.9386 115.673 41.101 114.195 40.4984 113.618Z" fill="#FFC999"/>
<path d="M33.3832 113.254C33.4456 113.141 33.5785 113.093 33.696 113.133L33.7392 113.152L39.5131 116.364C39.6395 116.434 39.6849 116.593 39.6147 116.72C39.5522 116.832 39.4193 116.88 39.3018 116.84L39.2586 116.821L33.4847 113.61C33.3583 113.539 33.3129 113.38 33.3832 113.254Z" fill="#DD936F"/>
<path d="M31.7239 114.307C31.8295 114.208 31.9952 114.213 32.0939 114.319C32.1927 114.425 32.1871 114.59 32.0815 114.689L32.003 114.768C31.9696 114.803 31.9296 114.846 31.8842 114.897C31.731 115.07 31.5776 115.268 31.4346 115.486C30.6664 116.656 30.5125 117.855 31.332 118.981C31.3857 119.055 31.3971 119.152 31.3619 119.236C30.7389 120.73 30.8549 121.849 31.4115 122.659C31.5116 122.805 31.6184 122.927 31.7243 123.026C31.7854 123.083 31.8302 123.118 31.851 123.132C31.9104 123.172 31.9502 123.234 31.9624 123.304L31.9663 123.346L31.9963 126.003C31.9979 126.147 31.882 126.266 31.7375 126.267C31.6074 126.269 31.4983 126.175 31.4767 126.051L31.4728 126.008L31.444 123.48L31.3873 123.43C31.2836 123.336 31.1676 123.211 31.0504 123.054L30.9801 122.955C30.3665 122.063 30.2077 120.865 30.7513 119.361L30.8244 119.169L30.7493 119.053C29.9872 117.829 30.1609 116.537 30.9215 115.316L30.9969 115.199C31.1544 114.959 31.323 114.741 31.4919 114.55L31.5867 114.446C31.6446 114.384 31.6914 114.337 31.7239 114.307Z" fill="#DD936F"/>
<path d="M34.1997 118.817L39.7367 120.265C39.8766 120.301 39.9603 120.444 39.9237 120.584C39.8912 120.709 39.7746 120.789 39.6508 120.779L39.6042 120.771L34.0672 119.323C33.9273 119.287 33.8436 119.144 33.8802 119.004C33.9127 118.88 34.0293 118.8 34.1531 118.809L34.1997 118.817Z" fill="#DD936F"/>
<path d="M34.0854 123.532L39.4126 124.395C39.5553 124.418 39.6523 124.553 39.6292 124.695C39.6083 124.824 39.4974 124.915 39.3713 124.915L39.3289 124.912L34.0017 124.049C33.859 124.026 33.762 123.891 33.7851 123.749C33.806 123.62 33.9169 123.529 34.043 123.529L34.0854 123.532Z" fill="#DD936F"/>
<path fill-rule="evenodd" clip-rule="evenodd" d="M54.8107 59.6251C54.826 60.276 54.3975 60.8142 53.8549 60.8266C53.3124 60.8383 52.8604 60.3206 52.8458 59.6697C52.8312 59.0182 53.259 58.4807 53.8016 58.4683C54.3442 58.4559 54.7961 58.9736 54.8107 59.6251Z" fill="white"/>
<path fill-rule="evenodd" clip-rule="evenodd" d="M56.4566 71.5803C56.472 72.2311 56.0435 72.7693 55.5009 72.7817C54.9583 72.7934 54.5064 72.2757 54.4911 71.6249C54.4772 70.9733 54.9049 70.4359 55.4475 70.4234C55.9901 70.411 56.442 70.9295 56.4566 71.5803Z" fill="white"/>
<path fill-rule="evenodd" clip-rule="evenodd" d="M57.5358 84.5312C57.5504 85.182 57.1226 85.7202 56.5793 85.7327C56.0367 85.7444 55.5855 85.2266 55.5702 84.5758C55.5556 83.9243 55.9841 83.3868 56.5267 83.3744C57.0685 83.3619 57.5204 83.8797 57.5358 84.5312Z" fill="white"/>
<path fill-rule="evenodd" clip-rule="evenodd" d="M58.0069 96.7093C58.0216 97.3609 57.5938 97.8983 57.0505 97.9108C56.5079 97.9225 56.0567 97.4047 56.0413 96.7539C56.0275 96.1024 56.4552 95.5649 56.9978 95.5525C57.5404 95.54 57.9916 96.0585 58.0069 96.7093Z" fill="white"/>
<path fill-rule="evenodd" clip-rule="evenodd" d="M58.1742 112.826C58.1888 113.477 57.761 114.015 57.2177 114.028C56.6751 114.04 56.2239 113.522 56.2086 112.871C56.1947 112.22 56.6225 111.682 57.1651 111.67C57.7077 111.657 58.1588 112.175 58.1742 112.826Z" fill="white"/>
<path d="M38.312 50.7298C38.445 50.6155 38.6393 50.6189 38.7679 50.7304L38.8044 50.7671L47.7801 61.2118L54.0903 53.7735C54.2037 53.6398 54.3961 53.6127 54.5406 53.7026L54.5824 53.7331C54.7161 53.8465 54.7432 54.0389 54.6533 54.1834L54.6228 54.2252L48.0482 61.9757C47.9209 62.1258 47.6982 62.139 47.5542 62.0147L47.5171 61.9774L38.2748 51.2222C38.1491 51.0759 38.1658 50.8555 38.312 50.7298Z" fill="#373737"/>
<path d="M64.9036 51.0231C64.9643 50.8401 65.1619 50.7409 65.345 50.8017C65.5127 50.8574 65.61 51.0281 65.5783 51.1971L65.5664 51.2431L62.1917 61.4111C62.1147 61.643 61.8339 61.7218 61.6483 61.5788L61.6101 61.5447L54.3649 54.1065C54.2304 53.9683 54.2333 53.7473 54.3714 53.6127C54.4957 53.4916 54.6872 53.4819 54.8224 53.5818L54.8652 53.6192L61.7095 60.6458L64.9036 51.0231Z" fill="#373737"/>
<path d="M65.0463 125.87C65.1892 125.848 65.323 125.946 65.3453 126.088L65.3707 126.26C65.3908 126.4 65.4131 126.562 65.4371 126.746L65.4957 127.213C65.5444 127.616 65.5924 128.051 65.638 128.515C65.9154 131.335 66.0194 134.233 65.8485 136.942L65.8165 137.405C65.3551 143.523 63.5194 147.4 59.8433 147.925C59.7002 147.946 59.5676 147.846 59.5471 147.703C59.5266 147.56 59.6261 147.428 59.7692 147.407C63.1985 146.917 64.9374 143.068 65.3259 136.909C65.4948 134.232 65.3918 131.361 65.117 128.567L65.0617 128.028C65.0242 127.679 64.9857 127.349 64.947 127.041L64.8837 126.558L64.8279 126.169C64.8057 126.026 64.9034 125.892 65.0463 125.87Z" fill="#8E8E8E"/>
<path d="M22.7282 60.1581C22.8298 59.9835 23.0536 59.9244 23.2281 60.026L23.2957 60.067C23.3617 60.1084 23.4519 60.1678 23.5637 60.2459C23.8198 60.425 24.104 60.6441 24.4091 60.9049C25.2765 61.6465 26.1423 62.5757 26.9493 63.706C30.0927 68.1086 31.4726 74.1735 30.1093 82.1089C30.0751 82.3079 29.8861 82.4415 29.6871 82.4073C29.4881 82.3731 29.3544 82.1841 29.3886 81.985C30.7189 74.2417 29.384 68.3745 26.3542 64.1309C25.5829 63.0507 24.7576 62.165 23.9339 61.4607C23.695 61.2565 23.4708 61.0803 23.2656 60.9313L23.1447 60.8452C23.0052 60.7477 22.908 60.6858 22.8602 60.658C22.6857 60.5564 22.6266 60.3326 22.7282 60.1581Z" fill="#373737"/>
<path d="M3.14526 89.6102C3.29035 89.4698 3.52182 89.4736 3.66227 89.6187L3.80104 89.7576C3.86251 89.818 3.93906 89.8921 4.03028 89.9788L4.30528 90.2362C4.54498 90.4573 4.81088 90.6943 5.10177 90.9442C6.26676 91.9452 7.5891 92.9466 9.04254 93.8809C13.2408 96.5798 17.6552 98.1805 22.067 98.1376C22.2689 98.1356 22.4342 98.2977 22.4362 98.4996C22.4381 98.7015 22.276 98.8668 22.0741 98.8688C17.4995 98.9133 12.9552 97.2655 8.64711 94.496C7.16357 93.5423 5.81459 92.5208 4.62521 91.4989L4.28016 91.1983C4.0583 91.0023 3.8529 90.8154 3.66453 90.639L3.44624 90.4322L3.13686 90.1272C2.99641 89.9822 3.00017 89.7507 3.14526 89.6102Z" fill="#DD936F"/>
<path d="M38.0026 22.4511C38.0559 22.3167 38.2081 22.251 38.3425 22.3043L38.435 22.3444C38.49 22.3698 38.5574 22.4034 38.6344 22.4452C38.8463 22.5602 39.0582 22.7 39.2569 22.866C39.9836 23.473 40.3505 24.2627 40.1335 25.2226C40.0509 25.5867 39.885 25.7819 39.5754 25.9692L39.4415 26.0456C39.176 26.1931 39.11 26.2659 39.087 26.493C39.0426 26.9271 39.2415 27.2503 39.6217 27.497C39.7488 27.5796 39.8868 27.6464 40.0248 27.6982L40.1128 27.7292C40.1513 27.7418 40.1811 27.7502 40.1998 27.7546C40.3404 27.7881 40.4273 27.9293 40.3939 28.0699C40.3604 28.2106 40.2193 28.2975 40.0786 28.264C39.887 28.2184 39.6134 28.1158 39.3367 27.9362C38.8058 27.5917 38.4993 27.0936 38.5661 26.44C38.6072 26.0344 38.7642 25.8373 39.1102 25.6321L39.2392 25.5591C39.4841 25.4219 39.5724 25.3294 39.6228 25.107C39.7909 24.3636 39.5103 23.7599 38.9213 23.2679C38.7512 23.1258 38.5678 23.0048 38.3846 22.9053L38.2673 22.8445C38.2158 22.8191 38.1755 22.8013 38.1495 22.791C38.0151 22.7377 37.9493 22.5855 38.0026 22.4511Z" fill="#DD936F"/>
<path d="M69.901 157.474C70.0452 157.463 70.1704 157.572 70.1805 157.716C70.1896 157.846 70.1025 157.96 69.9798 157.989L69.9377 157.996L61.3009 158.603C61.1567 158.613 61.0315 158.504 61.0214 158.36C61.0123 158.23 61.0994 158.116 61.2221 158.087L61.2642 158.08L69.901 157.474Z" fill="#8E8E8E"/>
</g>
<defs>
<clipPath id="clip0_55_5326">
<rect width="126" height="320" fill="white"/>
</clipPath>
</defs>
</svg>
