<svg width="102" height="287" viewBox="0 0 102 287" fill="none" xmlns="http://www.w3.org/2000/svg">
<g clip-path="url(#clip0_55_5560)">
<path fill-rule="evenodd" clip-rule="evenodd" d="M18.9 24.0295C18.9 24.0295 11.5795 22.9653 9.64493 30.7178C2.55174 33.3016 4.48631 41.0541 4.48631 41.0541C4.48631 41.0541 0.924122 47.1434 8.00138 50.2638C8.56678 56.503 15.644 55.3687 15.644 55.3687C15.644 55.3687 17.343 60.1898 22.7213 58.2045C28.525 62.7263 39.4617 61.819 43.3454 56.2906C51.0449 62.0495 64.4441 55.0203 62.7632 49.7633C71.7563 49.2176 76.116 39.6623 70.8465 31.5453C74.8944 25.1249 70.2804 21.3354 70.2804 21.3354C70.2804 21.3354 71.554 6.58759 61.3628 4.60224C56.1259 -3.33913 44.8026 3.04243 44.8026 3.04243C44.8026 3.04243 37.3006 1.48262 34.6114 8.00579C26.2287 9.29766 26.6223 13.9139 25.9772 17.7902C18.4752 18.2157 18.9 24.0295 18.9 24.0295Z" fill="#373737"/>
<path fill-rule="evenodd" clip-rule="evenodd" d="M1.68247 74.3542L1.53834 74.1126C-0.470366 70.7528 0.61956 66.3975 3.97319 64.3851L36.6551 44.774C40.0087 42.7615 44.356 43.8542 46.3647 47.214L46.5088 47.4556C48.5175 50.8154 47.4276 55.1706 44.074 57.1831L11.392 76.7942C8.03842 78.8066 3.69118 77.714 1.68247 74.3542Z" fill="#FFC999"/>
<path fill-rule="evenodd" clip-rule="evenodd" d="M27.4187 66.422L43.3803 57.1832C46.72 55.1791 47.7836 50.7468 45.7431 47.3349C43.7032 43.9223 39.3012 42.77 35.9614 44.7741L20.4675 53.5651L27.4187 66.422Z" fill="#8E8E8E"/>
<path d="M20.6329 53.9207C20.7199 53.8714 20.8274 53.8921 20.8906 53.9648L20.9148 53.9991L27.7633 66.138L43.3846 57.1824C43.4714 57.1327 43.579 57.1529 43.6425 57.2252L43.6669 57.2594C43.7165 57.3463 43.6964 57.4541 43.6242 57.5177L43.5901 57.5421L27.7886 66.6018C27.7001 66.6525 27.5901 66.6306 27.5271 66.5548L27.5058 66.5239L20.5546 54.203C20.4984 54.1034 20.5335 53.977 20.6329 53.9207Z" fill="#BF5F82"/>
<path fill-rule="evenodd" clip-rule="evenodd" d="M37.4865 260.898C34.3982 260.97 31.804 258.588 31.6086 255.499L27.4311 189.442C27.1304 184.683 30.8402 180.629 35.5983 180.517C40.3564 180.404 44.2526 184.279 44.1757 189.047L43.1038 255.229C43.0539 258.323 40.5747 260.825 37.4865 260.898Z" fill="#FFC999"/>
<path fill-rule="evenodd" clip-rule="evenodd" d="M34.1489 118.816C28.5426 118.948 24.1441 123.678 24.4088 129.29L27.2608 189.627C27.4797 194.274 31.3613 197.897 36.0038 197.787C40.6462 197.677 44.3539 193.876 44.3546 189.224L44.3691 128.82C44.3705 123.201 39.7551 118.684 34.1489 118.816Z" fill="#FFC999"/>
<path fill-rule="evenodd" clip-rule="evenodd" d="M31.7396 264.011L42.5883 264.152L43.4212 246.969L30.9663 246.807L31.7396 264.011Z" fill="#8E8E8E"/>
<path d="M31.0603 249.882L42.5582 250.031C42.7549 250.034 42.9123 250.196 42.9097 250.393C42.9074 250.573 42.7715 250.721 42.5973 250.742L42.549 250.745L31.051 250.596C30.8544 250.593 30.697 250.431 30.6995 250.234C30.7019 250.053 30.8378 249.906 31.0119 249.885L31.0603 249.882Z" fill="#E1E2E1"/>
<path fill-rule="evenodd" clip-rule="evenodd" d="M30.6673 263.32L42.5934 263.475L42.9136 285.37L16.0395 285.021L16.0173 281.66C16.0132 280.424 16.8939 279.363 18.1071 279.142L25.2682 277.133L28.9607 275.091C30.0728 274.475 30.7567 273.3 30.7394 272.027C30.7026 269.292 30.6465 264.652 30.6673 263.32Z" fill="#BF5F82"/>
<path fill-rule="evenodd" clip-rule="evenodd" d="M42.6449 286.08L15.8526 285.732C15.5983 285.729 15.3953 285.52 15.3987 285.265L15.4376 282.255C15.441 282.001 15.6496 281.797 15.9039 281.8L42.6962 282.148C42.9498 282.152 43.1528 282.361 43.15 282.616L43.1105 285.626C43.1077 285.88 42.8992 286.084 42.6449 286.08Z" fill="#E1E2E1"/>
<path fill-rule="evenodd" clip-rule="evenodd" d="M15.9038 281.8C15.9281 279.903 17.3229 278.304 19.1965 278.026L25.269 277.123L25.6085 281.86L15.9038 281.8Z" fill="#E1E2E1"/>
<path d="M15.9061 281.618L42.6983 281.966C42.799 281.968 42.8795 282.05 42.8782 282.151C42.877 282.239 42.8136 282.312 42.7304 282.328L42.6936 282.331L15.9013 281.983C15.8007 281.982 15.7202 281.899 15.7215 281.798C15.7226 281.71 15.786 281.637 15.8693 281.621L15.9061 281.618Z" fill="#A3B5D6"/>
<path d="M30.5049 271.197C30.549 271.001 30.7439 270.877 30.9403 270.921L31.0539 270.949C31.183 270.983 31.3574 271.036 31.565 271.11C32.0245 271.274 32.4842 271.487 32.9156 271.755C33.389 272.049 33.7996 272.393 34.1281 272.792C34.3256 273.032 34.1524 273.394 33.8421 273.39C33.5368 273.386 33.0752 273.441 32.5039 273.544L32.3587 273.571C32.1406 273.612 31.9119 273.658 31.6757 273.71L31.3502 273.782L31.0559 273.85L31.1343 273.917C31.4176 274.163 31.6986 274.441 31.9682 274.752L32.1284 274.942C32.2229 275.058 32.3147 275.177 32.4035 275.299C32.5918 275.557 32.381 275.916 32.0642 275.876C31.6639 275.826 31.1881 275.821 30.654 275.854C30.1821 275.883 29.6812 275.942 29.1694 276.022L28.8396 276.076L28.9256 276.132L29.0363 276.208L29.1473 276.29C29.4701 276.537 29.753 276.836 29.9836 277.193C30.0931 277.362 30.0449 277.588 29.8759 277.698C29.707 277.808 29.4813 277.759 29.3719 277.59C29.1883 277.306 28.9632 277.068 28.7051 276.871C28.444 276.671 28.163 276.523 27.8825 276.421C27.7644 276.377 27.6671 276.349 27.5984 276.333L27.5301 276.318C27.1394 276.253 27.1185 275.698 27.5031 275.604L27.703 275.557C27.7473 275.547 27.7969 275.536 27.8514 275.525C28.1229 275.466 28.4212 275.408 28.7376 275.353C29.3803 275.242 30.0135 275.162 30.6088 275.125C30.8247 275.112 31.0327 275.104 31.232 275.103L31.304 275.103L31.2692 275.064C31.0692 274.847 30.8637 274.648 30.6572 274.469L30.5022 274.338C30.4079 274.261 30.3189 274.192 30.2366 274.131L30.0935 274.03C30.0667 274.012 30.0472 273.999 30.0357 273.992C29.7636 273.824 29.8244 273.411 30.1334 273.328L30.5419 273.224C30.8556 273.146 31.1869 273.069 31.5212 272.996C31.7637 272.943 31.999 272.895 32.2242 272.853C32.4518 272.81 32.665 272.774 32.8626 272.744L33.0201 272.722L32.9665 272.679C32.8758 272.608 32.7809 272.539 32.6823 272.473L32.5315 272.376C32.1478 272.137 31.7342 271.946 31.3204 271.798C31.2119 271.76 31.1094 271.726 31.0144 271.697L30.7808 271.634C30.5844 271.589 30.4609 271.394 30.5049 271.197Z" fill="#E1E2E1"/>
<path d="M30.9048 267.698C30.8629 267.697 30.8213 267.704 30.7818 267.718C30.1061 267.954 29.9057 268.452 30.19 268.955C30.3132 269.173 30.4974 269.356 30.6869 269.502L30.7777 269.569L30.8356 269.622L31.1866 269.921C31.3021 270.019 31.4255 270.122 31.5558 270.23C32.1761 270.742 32.8269 271.254 33.4776 271.733C33.8619 272.016 34.2354 272.279 34.5947 272.518L34.9183 272.73C35.9789 273.41 36.856 273.834 37.5202 273.944C38.5711 274.118 39.1226 273.486 38.9297 272.227C38.6322 270.283 37.1281 269.025 34.8523 268.313C34.0506 268.063 33.1973 267.895 32.3365 267.795C31.8312 267.737 31.3939 267.709 31.0573 267.7L30.9048 267.698ZM30.9221 268.443L30.9622 268.428L31.1504 268.434C31.4491 268.444 31.8247 268.471 32.2526 268.521C33.0712 268.616 33.8809 268.775 34.6351 269.011C36.6735 269.648 37.9626 270.726 38.2092 272.337C38.3307 273.13 38.1724 273.312 37.6388 273.224C37.0402 273.125 36.1231 272.659 34.9982 271.91C34.649 271.677 34.2847 271.421 33.9091 271.144C33.2704 270.675 32.63 270.17 32.0194 269.666L31.6562 269.363L31.2276 268.996L31.1887 268.966C31.055 268.871 30.8978 268.725 30.8243 268.595L30.8016 268.553C30.7802 268.505 30.7999 268.488 30.9221 268.443Z" fill="#E1E2E1"/>
<path fill-rule="evenodd" clip-rule="evenodd" d="M77.1668 259.935C80.2321 259.554 82.4508 257.511 82.1937 254.428L76.6887 187.774C76.2923 183.022 72.0303 179.555 67.3075 180.14C62.584 180.726 59.2949 185.13 60.0667 189.835L71.4753 255.843C71.9763 258.896 74.1014 260.315 77.1668 259.935Z" fill="#FFC999"/>
<path fill-rule="evenodd" clip-rule="evenodd" d="M59.7388 118.89C65.3042 118.2 70.3457 122.235 70.9021 127.826L76.8846 187.931C77.3454 192.561 74.034 196.713 69.4249 197.285C64.8171 197.856 60.5946 194.638 59.9148 190.036L51.0873 130.283C50.2662 124.725 54.1735 119.58 59.7388 118.89Z" fill="#FFC999"/>
<path fill-rule="evenodd" clip-rule="evenodd" d="M83.7608 261.844L72.2213 262.088L69.1621 244.914L81.6142 244.634L83.7608 261.844Z" fill="#8E8E8E"/>
<path d="M81.5342 247.709C81.7308 247.705 81.8938 247.861 81.8984 248.058C81.9023 248.238 81.7718 248.391 81.5985 248.418L81.5503 248.422L70.0537 248.682C69.8571 248.686 69.6941 248.53 69.6895 248.333C69.6856 248.153 69.8162 248 69.9894 247.973L70.0377 247.969L81.5342 247.709Z" fill="#E1E2E1"/>
<path fill-rule="evenodd" clip-rule="evenodd" d="M83.9251 261.143L72.001 261.411L74.176 283.309L101.045 282.703L101.035 279.343C101.028 278.107 100.137 277.055 98.9221 276.845L91.7423 274.904L88.0305 272.897C86.9128 272.292 85.9296 271.059 85.5291 269.851C84.7891 267.616 83.9583 262.474 83.9251 261.143Z" fill="#BF5F82"/>
<path fill-rule="evenodd" clip-rule="evenodd" d="M74.4512 284.016L101.239 283.413C101.493 283.408 101.694 283.197 101.688 282.942L101.62 279.933C101.616 279.678 101.404 279.476 101.151 279.482L74.3632 280.085C74.1089 280.091 73.908 280.302 73.9134 280.557L73.9808 283.567C73.987 283.821 74.1969 284.022 74.4512 284.016Z" fill="#E1E2E1"/>
<path fill-rule="evenodd" clip-rule="evenodd" d="M101.151 279.482C101.108 277.585 99.6978 275.999 97.8221 275.738L91.7419 274.894L91.4468 279.634L101.151 279.482Z" fill="#E1E2E1"/>
<path d="M101.147 279.299C101.247 279.297 101.331 279.377 101.333 279.478C101.335 279.566 101.274 279.641 101.192 279.66L101.155 279.664L74.3668 280.268C74.2662 280.271 74.1828 280.191 74.1805 280.09C74.1785 280.002 74.2393 279.927 74.322 279.908L74.3586 279.903L101.147 279.299Z" fill="#A3B5D6"/>
<path d="M86.0118 268.746C86.2078 268.7 86.4039 268.822 86.4498 269.019C86.4957 269.215 86.3741 269.411 86.1781 269.457L86.0382 269.495C85.9198 269.53 85.787 269.573 85.6437 269.626C85.2339 269.776 84.8242 269.97 84.4442 270.21C84.2899 270.307 84.1441 270.41 84.0078 270.519L83.9487 270.567L83.9625 270.569C84.1527 270.593 84.359 270.624 84.58 270.661L84.7486 270.691C84.9792 270.732 85.2205 270.779 85.4691 270.831C85.6899 270.877 85.9091 270.925 86.1225 270.973L86.7081 271.112C86.7629 271.126 86.8075 271.137 86.8408 271.146C87.1507 271.225 87.2154 271.637 86.9449 271.808L86.8881 271.846L86.8261 271.89C86.7242 271.964 86.6098 272.052 86.4861 272.155C86.232 272.368 85.9775 272.61 85.7316 272.881L85.6869 272.931L85.7637 272.931C85.8973 272.93 86.0348 272.933 86.176 272.938L86.3905 272.947C86.9959 272.979 87.6401 273.056 88.293 273.163C88.5241 273.201 88.745 273.241 88.9522 273.281L89.4121 273.377C89.4445 273.384 89.4714 273.39 89.4926 273.395C89.8781 273.486 89.8626 274.041 89.4727 274.11L89.4053 274.125C89.3375 274.142 89.2414 274.171 89.1248 274.215C88.8478 274.319 88.5702 274.468 88.3122 274.667C88.0522 274.868 87.8261 275.111 87.6429 275.4C87.535 275.57 87.3098 275.621 87.1399 275.513C86.9699 275.404 86.9197 275.179 87.0276 275.009C87.2577 274.646 87.5417 274.34 87.8668 274.089C87.9399 274.033 88.013 273.98 88.0857 273.931L88.1615 273.881L87.8618 273.835C87.4456 273.773 87.0362 273.725 86.6433 273.695L86.3519 273.677C85.8143 273.648 85.336 273.658 84.9343 273.712C84.6178 273.755 84.4037 273.398 84.5895 273.138C84.6811 273.009 84.776 272.885 84.8739 272.763C85.1862 272.375 85.5174 272.033 85.8519 271.738L85.923 271.677L85.6433 271.614L85.3209 271.546C85.0788 271.495 84.8443 271.45 84.6208 271.41L84.3342 271.361C83.8258 271.279 83.4136 271.236 83.1335 271.243C82.8232 271.25 82.6467 270.89 82.8418 270.648C83.1691 270.242 83.5803 269.892 84.0554 269.592C84.4827 269.322 84.9379 269.107 85.393 268.94C85.6672 268.839 85.883 268.777 86.0118 268.746Z" fill="#E1E2E1"/>
<path d="M86.18 267.379C86.4091 267.209 86.6265 266.999 86.7575 266.746C87.0166 266.246 86.8009 265.766 86.1395 265.542C86.1134 265.533 86.0865 265.527 86.0591 265.524L86.0064 265.523L85.8324 265.527C85.5503 265.538 85.1755 265.565 84.7345 265.616C83.8757 265.716 83.0163 265.883 82.2039 266.135C79.864 266.86 78.3191 268.142 78.0344 270.128C77.8539 271.386 78.409 272.014 79.4554 271.833C80.1831 271.707 81.164 271.198 82.3605 270.386C82.7182 270.143 83.09 269.876 83.4727 269.589C84.1207 269.103 84.7687 268.583 85.3865 268.063L85.7541 267.75L86.18 267.379ZM85.9625 266.254L86.0062 266.272C86.0765 266.303 86.1149 266.33 86.1301 266.348L86.1366 266.357C86.1348 266.353 86.1333 266.366 86.1107 266.409C86.0544 266.518 85.9342 266.642 85.811 266.742L85.7353 266.8L85.4951 267.009C85.3242 267.159 85.1304 267.325 84.9175 267.504C84.3095 268.016 83.6718 268.528 83.0358 269.005C82.6619 269.285 82.2993 269.545 81.9516 269.781C80.8366 270.538 79.9268 271.01 79.3315 271.113C78.8016 271.205 78.6422 271.025 78.756 270.232C78.992 268.585 80.3193 267.483 82.4193 266.833C83.1847 266.595 84.0013 266.436 84.8185 266.341C85.2802 266.288 85.6635 266.262 85.9322 266.255L85.9625 266.254Z" fill="#E1E2E1"/>
<path fill-rule="evenodd" clip-rule="evenodd" d="M42.1601 16.8284C48.0373 17.862 49.8242 13.4061 49.8242 13.4061C49.8242 13.4061 52.2494 7.13074 52.8702 10.9834C53.2007 13.0305 56.3603 10.3142 57.8127 12.4967C58.7903 13.9656 56.3465 15.8586 59.5227 19.7752C61.3631 22.0444 54.1036 23.8548 58.5825 28.0366C58.5825 28.0366 55.3979 33.1415 60.8676 34.8062L61.4469 40.792C61.7843 44.2761 59.0488 47.2909 55.5552 47.2854C52.2237 47.2805 49.5554 44.5198 49.6566 41.1842L49.8776 33.8857C41.3847 33.8857 40.9704 22.1923 42.1601 16.8284Z" fill="#FFC999"/>
<path d="M52.471 23.0622C52.6133 22.9196 52.8441 22.9196 52.9864 23.0622C53.1288 23.2048 53.1288 23.436 52.9864 23.5786C52.796 23.7694 52.4507 24.0427 51.965 24.3133C51.0074 24.8469 49.909 25.1244 48.6997 25.0069C48.4993 24.9875 48.3527 24.809 48.3721 24.6082C48.3915 24.4075 48.5697 24.2606 48.77 24.2801C49.8204 24.3821 50.7746 24.141 51.6107 23.6751C51.8574 23.5376 52.0743 23.3906 52.2591 23.2444L52.3549 23.1664C52.4105 23.1196 52.4494 23.0838 52.471 23.0622Z" fill="#F5222D"/>
<path d="M48.3601 17.1772C48.4956 17.1676 48.6151 17.2586 48.6454 17.3869L48.6528 17.4426L48.6533 17.4544C48.6626 17.7138 48.6161 18.1093 48.4676 18.6237C48.2691 19.3118 47.9251 20.0645 47.4066 20.8708L47.3158 21.0078L47.4607 21.0974C47.9587 21.4043 48.3971 21.6614 48.7768 21.8728L48.9165 21.9499C49.0563 22.0265 49.1792 22.0919 49.2853 22.1465L49.5021 22.2546C49.6392 22.318 49.6991 22.4807 49.6358 22.618C49.5726 22.7553 49.4102 22.8153 49.2731 22.752L49.1966 22.7151L48.9498 22.5892C48.8607 22.5425 48.7622 22.4897 48.6542 22.4305L48.3641 22.269C47.9125 22.0138 47.3868 21.7 46.7853 21.3219C46.653 21.2387 46.617 21.0616 46.7064 20.9332C47.3336 20.0329 47.7301 19.2073 47.9424 18.4716C48.0635 18.0521 48.107 17.7336 48.1078 17.5275L48.1067 17.4695L48.1072 17.4252C48.1191 17.2939 48.2245 17.1869 48.3601 17.1772Z" fill="#DD936F"/>
<path d="M56.3002 17.111C56.5005 17.111 56.6629 17.2737 56.6629 17.4744C56.6629 18.8704 55.613 20.0148 54.3025 20.0148C52.9927 20.0148 51.9429 18.8703 51.9429 17.4744C51.9429 17.2737 52.1053 17.111 52.3056 17.111C52.5059 17.111 52.6683 17.2737 52.6683 17.4744C52.6683 18.4819 53.4077 19.288 54.3025 19.288C55.198 19.288 55.9374 18.482 55.9374 17.4744C55.9374 17.2737 56.0998 17.111 56.3002 17.111Z" fill="#373737"/>
<path d="M46.7481 17.3606C46.9381 17.3606 47.0922 17.5149 47.0922 17.7053C47.0922 19.085 46.1497 20.2269 44.9515 20.2269C43.7527 20.2269 42.8101 19.0851 42.8101 17.7053C42.8101 17.5149 42.9641 17.3606 43.1541 17.3606C43.3441 17.3606 43.4981 17.5149 43.4981 17.7053C43.4981 18.7302 44.1646 19.5375 44.9515 19.5375C45.7377 19.5375 46.4041 18.7301 46.4041 17.7053C46.4041 17.5149 46.5581 17.3606 46.7481 17.3606Z" fill="#373737"/>
<path d="M52.1673 13.1161C53.5529 12.6703 55.0188 12.6114 56.4032 13.1961C56.6581 13.3038 56.9063 13.4326 57.1471 13.5833C57.317 13.6896 57.3687 13.9138 57.2626 14.0841C57.1564 14.2543 56.9327 14.3061 56.7628 14.1997C56.5548 14.0696 56.3409 13.9586 56.1214 13.8658C54.9205 13.3586 53.6242 13.4107 52.3891 13.8081C52.1811 13.875 51.9936 13.9465 51.8302 14.0176L51.692 14.0804C51.6691 14.0914 51.6514 14.1003 51.6392 14.1067C51.462 14.2004 51.2426 14.1324 51.1492 13.9549C51.0557 13.7774 51.1235 13.5575 51.3007 13.4639C51.4713 13.3738 51.7688 13.2442 52.1673 13.1161Z" fill="#373737"/>
<path d="M54.9509 32.3254C55.0835 32.2531 55.2495 32.3022 55.3216 32.4351C55.3938 32.5679 55.3447 32.7342 55.2121 32.8065C53.4871 33.7468 51.692 34.2211 49.8891 34.2455C49.7382 34.2475 49.6141 34.1266 49.6121 33.9754C49.6101 33.8241 49.7308 33.6999 49.8817 33.6978C51.5955 33.6746 53.3035 33.2234 54.9509 32.3254Z" fill="#DD936F"/>
<path fill-rule="evenodd" clip-rule="evenodd" d="M62.4622 93.2939C68.3941 93.759 82.4724 131.313 87.7911 144.741C87.0829 147.445 82.7571 152.217 82.7571 152.217C82.7571 152.217 83.22 154.37 83.5048 155.663C78.4432 159.833 68.6539 162.099 68.6539 162.099L68.6324 163.949C52.9806 171.169 32.0211 164.25 32.0211 164.25C32.0211 164.25 31.6296 163.849 31.911 162.398C24.8039 162.315 9.58717 153.283 9.58717 153.283L11.7504 148.813L5.49146 142.396C5.49146 142.396 22.3926 111.247 27.5949 102.535C32.1618 94.8856 36.4453 92.6837 36.4453 92.6837C36.4453 92.6837 51.9378 92.4678 62.4622 93.2939Z" fill="#BF5F82"/>
<path d="M35.448 100.039C35.512 99.9079 35.6699 99.8536 35.8007 99.9178C35.9184 99.9755 35.974 100.109 35.9373 100.231L35.9216 100.271L10.1863 152.941L10.4276 153.119L10.629 153.264C11.1373 153.625 11.7365 154.028 12.4227 154.463C14.3852 155.705 16.6501 156.948 19.1867 158.108C23.1304 159.912 27.3618 161.345 31.8302 162.27C31.9728 162.3 32.0645 162.439 32.035 162.582C32.0056 162.725 31.8661 162.817 31.7235 162.787C27.2146 161.854 22.9459 160.408 18.9678 158.589C16.4086 157.418 14.1229 156.164 12.141 154.909C11.5238 154.519 10.9756 154.153 10.4991 153.818L10.3238 153.695C10.179 153.592 10.0497 153.498 9.93615 153.414L9.69181 153.229C9.60596 153.162 9.57148 153.05 9.60089 152.948L9.61745 152.905L35.448 100.039Z" fill="#373737"/>
<path d="M66.7159 110.743C66.8385 110.697 66.974 110.748 67.0374 110.858L67.0558 110.897L84.0123 155.837C84.056 155.953 84.0136 156.083 83.9104 156.151L83.628 156.331L83.4409 156.446C83.0608 156.678 82.6192 156.937 82.1208 157.216C80.6981 158.011 79.1048 158.806 77.3781 159.547C74.5617 160.757 71.6701 161.706 68.7731 162.293C68.6304 162.322 68.4913 162.229 68.4624 162.086C68.4336 161.943 68.5259 161.804 68.6686 161.775C71.5274 161.196 74.3852 160.258 77.1702 159.062C78.8793 158.328 80.4565 157.541 81.864 156.754L82.2719 156.524C82.5345 156.373 82.7782 156.23 83.0021 156.095L83.2611 155.937L83.4433 155.823L66.5625 111.084C66.5162 110.961 66.5672 110.825 66.6771 110.762L66.7159 110.743Z" fill="#373737"/>
<path d="M55.6981 94.298C55.8267 94.2722 55.952 94.3448 55.9966 94.4639L56.0106 94.5164L57.2129 100.602C57.569 102.416 57.9474 104.351 58.3441 106.389L59.0946 110.257C60.4691 117.36 61.8333 124.526 63.1306 131.491L63.4827 133.385C63.7326 134.732 63.9781 136.062 64.219 137.374L64.9328 141.281C66.5414 150.136 67.8812 157.862 68.8897 164.172C68.9101 164.299 68.8359 164.422 68.7143 164.463C67.946 164.725 67.1682 164.967 66.3815 165.19C56.9033 167.879 46.7923 167.727 37.2439 165.857C35.855 165.585 34.5902 165.295 33.4671 165.004L33.1644 164.924C32.8049 164.829 32.4829 164.739 32.2003 164.657L31.7085 164.508C31.6963 164.505 31.6854 164.501 31.6758 164.498C31.5626 164.461 31.4897 164.354 31.4933 164.239L31.4983 164.195L43.2997 104.938C43.3282 104.795 43.4671 104.702 43.6099 104.731C43.7384 104.756 43.8263 104.872 43.8218 104.999L43.8168 105.041L32.0619 164.064L32.2117 164.109C32.4771 164.188 32.7822 164.274 33.125 164.367L33.2996 164.414C34.4856 164.729 35.8416 165.044 37.345 165.338C46.8191 167.194 56.8511 167.345 66.2378 164.682C66.8214 164.517 67.3999 164.341 67.9731 164.154L68.3333 164.033L68.0229 162.113C67.0639 156.241 65.8492 149.277 64.4227 141.423L63.8802 138.449C63.582 136.822 63.2766 135.165 62.9643 133.482C61.5631 125.927 60.0761 118.105 58.5769 110.357L56.8919 101.705L55.4913 94.6088C55.4627 94.4657 55.5554 94.3266 55.6981 94.298Z" fill="#373737"/>
<path d="M49.415 95.3106C49.5459 95.3184 49.649 95.4201 49.6624 95.5466L49.6634 95.5896L46.8897 144.873C46.8815 145.018 46.757 145.13 46.6117 145.122C46.4808 145.114 46.3777 145.012 46.3643 144.886L46.3633 144.843L49.1369 95.5598C49.1451 95.4142 49.2696 95.3028 49.415 95.3106Z" fill="#373737"/>
<path d="M42.0368 94.2242C42.08 94.0849 42.2277 94.007 42.3668 94.0503C42.492 94.0892 42.5674 94.213 42.5498 94.3389L42.5404 94.3809L32.1268 127.97C32.0836 128.109 31.9359 128.187 31.7968 128.144C31.6717 128.105 31.5962 127.981 31.6139 127.855L31.6233 127.813L42.0368 94.2242Z" fill="#373737"/>
<path fill-rule="evenodd" clip-rule="evenodd" d="M35.3123 93.2929L35.7592 89.8963C35.7592 89.8963 49.146 89.9768 62.2764 89.3173C62.6083 90.8258 62.9887 93.5386 62.9887 93.5386C61.8856 92.6306 49.9587 95.2838 35.3123 93.2929Z" fill="#BF5F82"/>
<path d="M61.58 93.2751C61.7254 93.2683 61.8489 93.3809 61.8557 93.5266C61.8625 93.6723 61.7501 93.7959 61.6046 93.8028C55.4675 94.0902 49.5167 94.214 44.262 94.2038L42.7572 94.1971C41.0869 94.1851 39.6109 94.1588 38.4669 94.1232L37.6302 94.0927C37.4696 94.0857 37.3271 94.0787 37.2044 94.0718L36.9537 94.0555C36.8818 94.0501 36.8237 94.0447 36.7799 94.0394C36.7327 94.0337 36.699 94.028 36.6685 94.0189L36.6479 94.0164C36.6232 94.0104 36.6016 93.9872 36.4939 93.8715L36.5338 93.6555C36.5637 93.5145 36.5824 93.5127 36.6527 93.5058C36.7078 93.4868 36.7648 93.4871 36.8165 93.5031L36.8482 93.5154L36.9655 93.5266L37.1486 93.5393C37.3968 93.5546 37.7492 93.5704 38.1826 93.5853L39.1169 93.6131C40.3696 93.6451 41.9302 93.6671 43.6609 93.6738C49.0527 93.695 55.216 93.5732 61.58 93.2751Z" fill="#373737"/>
<path fill-rule="evenodd" clip-rule="evenodd" d="M35.9365 53.5794C34.478 56.7636 31.7764 62.2441 31.4403 65.8649C30.895 71.7349 34.7101 76.1033 34.7101 76.1033C34.7101 76.1033 34.7482 74.3762 35.1189 89.5856C52.5938 92.6567 63.7349 89.3913 63.7349 89.3913L63.3947 85.3595L67.0573 75.7417C67.0573 75.7417 67.9567 72.2805 71.4995 64.3634C73.9621 58.8593 73.7909 52.0356 73.4576 48.387C73.3149 46.8244 72.227 45.5096 70.7193 45.0848C65.4498 43.6006 63.4543 43.5541 63.4543 43.5541L62.9581 40.0714C62.8729 39.4751 62.363 39.0316 61.7615 39.0316H48.9159C48.3643 39.0316 47.8828 39.4064 47.7456 39.9416L46.8046 43.6194L36.7528 44.2087C35.5048 44.4538 36.6655 46.4599 36.5359 47.7275L35.9365 53.5794Z" fill="#8E8E8E"/>
<path d="M59.8565 43.5151C59.9782 43.5151 60.0768 43.614 60.0768 43.7359C60.0768 43.8442 59.9989 43.9344 59.8961 43.9531L59.8565 43.9566H48.2906C48.169 43.9566 48.0703 43.8578 48.0703 43.7359C48.0703 43.6275 48.1483 43.5374 48.251 43.5187L48.2906 43.5151H59.8565Z" fill="#BF5F82"/>
<path d="M63.3725 42.6261C63.4695 42.5035 63.6473 42.483 63.7697 42.5802C63.8797 42.6677 63.9074 42.8207 63.8411 42.9398L63.8155 42.9781L51.2796 58.813C51.1491 58.9778 50.8968 58.9454 50.8064 58.7663L50.7896 58.7257L45.8874 43.8398C45.8384 43.6912 45.919 43.5311 46.0673 43.4821C46.2007 43.438 46.3435 43.4989 46.4064 43.6198L46.4243 43.6623L51.1621 58.0495L63.3725 42.6261Z" fill="#CCD7EE"/>
<path fill-rule="evenodd" clip-rule="evenodd" d="M47.5585 59.8345C46.2759 62.0017 46.8538 64.7194 48.8493 65.9051C50.8449 67.0907 53.5028 66.2945 54.7854 64.128C56.0679 61.9608 55.4901 59.2424 53.4945 58.0567C51.499 56.8718 48.841 57.6673 47.5585 59.8345Z" fill="#CCD7EE"/>
<path fill-rule="evenodd" clip-rule="evenodd" d="M47.0975 59.8239C45.815 61.9911 46.3928 64.7088 48.3884 65.8945C50.3839 67.0801 53.0419 66.2839 54.3244 64.1167C55.607 61.9494 55.0291 59.2318 53.0336 58.0461C51.038 56.8605 48.3801 57.6567 47.0975 59.8239Z" fill="#E1E2E1"/>
<path fill-rule="evenodd" clip-rule="evenodd" d="M47.912 60.2015C46.9163 61.8842 47.3646 63.9945 48.9146 64.915C50.4639 65.8354 52.5274 65.2176 53.5231 63.535C54.5194 61.8523 54.0704 59.742 52.5204 58.8215C50.9718 57.901 48.9077 58.5189 47.912 60.2015Z" fill="#FAAD14"/>
<path d="M36.0813 50.3556C36.1894 50.3597 36.2764 50.4411 36.2912 50.5447L36.2932 50.5845L36.1567 54.2026L36.1296 54.3006L34.239 57.7257C34.146 57.8962 34.0693 58.0377 34.0163 58.1373L33.7806 58.5847C33.2528 59.5991 32.8769 60.4149 32.5798 61.2068C31.944 62.9011 31.6607 64.5436 31.6607 66.6838C31.6607 67.5389 31.8032 68.5141 32.0708 69.586C32.3476 70.6946 32.7496 71.8751 33.2442 73.088C33.592 73.941 33.9649 74.7597 34.3376 75.5145L34.4894 75.8182C34.5384 75.915 34.5856 76.0072 34.631 76.0947L34.8329 76.4752L34.8603 76.5739L35.2632 88.0145L35.2987 89.3462L35.6529 89.4112C43.9816 90.8989 52.0715 90.9252 59.2537 90.0565L59.7109 89.9998L60.3379 89.9173C61.0526 89.8199 61.708 89.7188 62.3 89.6172L62.5499 89.5736C62.7218 89.5431 62.8805 89.514 63.0256 89.4864L63.3601 89.4207L62.9703 85.4524L62.9841 85.3511L70.9482 64.7168C70.9921 64.6031 71.1197 64.5465 71.2332 64.5905C71.3341 64.6296 71.3899 64.7349 71.3702 64.8377L71.3592 64.876L63.4137 85.4611L63.8184 89.5749C63.8279 89.6722 63.7726 89.7624 63.6856 89.7995L63.6465 89.8121L63.3837 89.8665L63.108 89.9201C63.01 89.9388 62.906 89.9581 62.796 89.978L62.6266 90.0084C61.7998 90.1548 60.8425 90.3012 59.7662 90.4378C52.277 91.3882 43.7833 91.3737 35.0406 89.7483C34.9362 89.7289 34.8605 89.6376 34.8605 89.5312L34.8395 88.592C34.8112 87.6008 34.7553 85.9229 34.6778 83.7187L34.5403 79.8733L34.4215 76.6423L34.3077 76.4279L34.1696 76.1617C34.0978 76.0215 34.0219 75.8708 33.9427 75.7103C33.5655 74.9465 33.1883 74.1184 32.8362 73.2549C32.3343 72.024 31.9256 70.8242 31.6433 69.6931C31.3676 68.5887 31.22 67.579 31.22 66.6838C31.22 64.4917 31.5124 62.7967 32.1673 61.0514C32.4713 60.2413 32.8539 59.4108 33.3887 58.3826L33.7029 57.7889L35.7181 54.133L35.8528 50.5678C35.8569 50.4596 35.9382 50.3724 36.0416 50.3577L36.0813 50.3556Z" fill="#BF5F82"/>
<path fill-rule="evenodd" clip-rule="evenodd" d="M63.7578 96.4997C64.9738 98.3378 67.1828 99.0494 68.7709 98.115L99.4337 80.0713C102.184 78.3032 102.669 74.1909 100.51 70.9283C98.3313 67.6365 94.3173 66.4953 91.624 68.4022L64.1021 91.3419C62.7302 92.4846 62.5812 94.7212 63.7578 96.4997Z" fill="#FFC999"/>
<path fill-rule="evenodd" clip-rule="evenodd" d="M24.7593 28.8439C26.9267 29.679 28.1088 31.9316 27.4422 33.9593L14.5751 73.0879C13.2641 76.6407 9.04786 78.3331 5.2002 76.8518C1.31928 75.3565 -0.669334 71.2185 0.798223 67.6914L19.4192 30.6759C20.347 28.8307 22.6626 28.0366 24.7593 28.8439Z" fill="#FFC999"/>
<path fill-rule="evenodd" clip-rule="evenodd" d="M18.5683 27.1909C18.5683 27.1909 17.1195 34.0292 20.5923 36.2929C23.738 38.3435 26.1562 35.4766 26.1562 35.4766C26.1562 35.4766 29.0151 33.0067 30.8887 29.2533C32.1228 26.7806 33.9901 21.8388 32.7699 21.0113C31.1797 19.9333 29.3941 25.6498 28.0534 25.25C26.6787 24.8383 26.9593 23.6298 26.6891 20.6677C26.52 18.8163 27.0847 16.9289 26.6406 15.385C25.7731 12.3674 19.8827 16.7498 18.5683 27.1909Z" fill="#FFC999"/>
<path d="M24.8812 15.5718C24.9284 15.4504 25.065 15.3902 25.1862 15.4375C25.3075 15.4848 25.3675 15.6216 25.3203 15.7431C24.2989 18.371 24.1756 20.7877 24.5758 22.7958C24.611 22.9728 24.6482 23.1323 24.6857 23.2737L24.7138 23.3762C24.7414 23.4735 24.7624 23.5385 24.7736 23.5694C24.8178 23.692 24.7544 23.8272 24.632 23.8715C24.5096 23.9158 24.3746 23.8523 24.3304 23.7297L24.3083 23.6641C24.2995 23.6368 24.2894 23.6042 24.2782 23.5662L24.2606 23.5053C24.2104 23.3283 24.1603 23.122 24.1137 22.8882C23.6969 20.7968 23.8249 18.2897 24.8812 15.5718Z" fill="#DD936F"/>
<path d="M22.6814 17.3717C22.7323 17.2517 22.8706 17.1958 22.9904 17.2468C23.1101 17.2978 23.1659 17.4363 23.115 17.5563L23.0861 17.6275C23.0576 17.6995 23.0189 17.8029 22.9726 17.9352C22.8638 18.2462 22.7547 18.6014 22.6529 18.9944C22.2188 20.6688 22.0511 22.4495 22.3034 24.1999C22.322 24.3289 22.2327 24.4485 22.1039 24.4672C21.9751 24.4858 21.8556 24.3963 21.8371 24.2673C21.5748 22.4477 21.7483 20.6063 22.1968 18.8757C22.3021 18.4697 22.4149 18.102 22.528 17.779L22.6293 17.5017C22.6503 17.447 22.6679 17.4035 22.6814 17.3717Z" fill="#DD936F"/>
<path fill-rule="evenodd" clip-rule="evenodd" d="M25.6774 39.542L17.6059 34.4106C16.9379 33.9858 16.7404 33.0987 17.1638 32.4295L28.1871 15.0279C28.6105 14.358 29.496 14.1601 30.1647 14.5843L38.2355 19.7156C38.9035 20.1405 39.1017 21.0276 38.6776 21.6968L27.655 39.0991C27.2309 39.769 26.3454 39.9668 25.6774 39.542Z" fill="#8E8E8E"/>
<path fill-rule="evenodd" clip-rule="evenodd" d="M59.8282 89.1261C59.8282 89.1261 63.1354 83.8303 64.6328 83.6248C66.9519 83.3061 66.489 88.0765 66.489 88.0765C66.489 88.0765 68.7326 88.8797 68.0023 91.4259C69.3424 93.3946 68.4007 94.7274 68.4007 94.7274C68.4007 94.7274 70.0623 96.0658 68.5954 97.8415C67.1286 99.6165 61.4641 99.4562 62.8756 97.2424C60.8592 96.0686 61.8258 94.1763 61.8258 94.1763C61.8258 94.1763 60.2758 92.9698 61.2597 91.1524C59.9051 90.7672 59.4887 89.6822 59.8282 89.1261Z" fill="#FFC999"/>
<path d="M64.8068 87.3962C64.9043 87.3023 65.0594 87.3054 65.1531 87.4031C65.2365 87.4899 65.2433 87.6223 65.1753 87.7167L65.1463 87.7501L61.4296 91.3292C61.3321 91.4231 61.177 91.4201 61.0832 91.3224C60.9999 91.2355 60.9931 91.1031 61.0611 91.0088L61.0901 90.9754L64.8068 87.3962Z" fill="#DD936F"/>
<path d="M64.5903 83.3825C65.8176 83.1677 66.4637 84.1457 66.6846 85.8063C66.7629 86.3944 66.7812 87.0114 66.7615 87.5915L66.7489 87.8734L66.7443 87.9431L66.8313 87.9999L66.8923 88.0415C67.1013 88.1865 67.3101 88.3572 67.5056 88.5532C68.2718 89.3216 68.6218 90.2438 68.311 91.2824L68.2779 91.3853L68.2887 91.3999C69.1159 92.5431 69.2185 93.5717 68.8637 94.4117L68.824 94.501C68.7748 94.606 68.7248 94.6935 68.679 94.7631L68.6664 94.7812L69.1445 96.6815C69.1738 96.7983 69.1143 96.9166 69.0085 96.9647L68.9668 96.9794C68.8502 97.0088 68.7321 96.9491 68.684 96.8432L68.6694 96.8014L68.1629 94.7876C68.1433 94.7095 68.1631 94.6267 68.2161 94.566L68.2531 94.518C68.2884 94.4677 68.3339 94.3919 68.3805 94.2925C68.7189 93.57 68.6371 92.6606 67.8082 91.5752C67.7562 91.5072 67.7434 91.4169 67.7744 91.3371C68.1344 90.4104 67.8576 89.6005 67.1591 88.9001C66.9858 88.7264 66.7995 88.5741 66.6134 88.4449L66.512 88.3768C66.4509 88.3371 66.4033 88.309 66.3733 88.2928C66.2869 88.2462 66.2366 88.1524 66.2455 88.0546L66.258 87.8774C66.2592 87.8568 66.2604 87.8349 66.2616 87.8117C66.2945 87.19 66.2838 86.5085 66.199 85.8711C66.0103 84.4524 65.5246 83.7172 64.6746 83.866C64.5413 83.8893 64.4144 83.8 64.3911 83.6665C64.3679 83.533 64.457 83.4059 64.5903 83.3825Z" fill="#DD936F"/>
<path d="M65.5956 91.764C65.7134 91.6974 65.8628 91.7391 65.9293 91.8572C65.9884 91.9621 65.962 92.092 65.8727 92.1663L65.8363 92.1915L61.9464 94.3899C61.8286 94.4565 61.6792 94.4148 61.6127 94.2968C61.5536 94.1918 61.5799 94.0619 61.6693 93.9876L61.7057 93.9625L65.5956 91.764Z" fill="#DD936F"/>
<path d="M66.6242 95.3037C66.7478 95.2486 66.8926 95.3044 66.9475 95.4282C66.9964 95.5383 66.9578 95.6651 66.8619 95.7306L66.8232 95.7521L62.9749 97.4667C62.8513 97.5218 62.7065 97.4661 62.6516 97.3422C62.6027 97.2322 62.6412 97.1053 62.7372 97.0398L62.7758 97.0183L66.6242 95.3037Z" fill="#DD936F"/>
<path d="M20.8825 53.1981C20.9253 53.0695 21.064 53 21.1923 53.0429C21.3064 53.081 21.3739 53.195 21.3574 53.3102L21.3473 53.3533L16.1471 68.9826C16.1043 69.1112 15.9656 69.1807 15.8372 69.1378C15.7232 69.0997 15.6557 68.9857 15.6721 68.8705L15.6823 68.8274L20.8825 53.1981Z" fill="#DD936F"/>
<path fill-rule="evenodd" clip-rule="evenodd" d="M99.7258 79.5985L99.9309 79.3694C102.523 76.4712 102.372 72.1555 99.5941 69.7294L73.3243 46.7904C70.5465 44.3642 66.193 44.7474 63.6009 47.6456L63.3965 47.874C60.8043 50.7728 60.9547 55.0885 63.7325 57.5147L90.0023 80.4537C92.7809 82.8799 97.1336 82.4967 99.7258 79.5985Z" fill="#FFC999"/>
<path fill-rule="evenodd" clip-rule="evenodd" d="M77.4625 69.0848L64.1915 58.4105C60.9924 55.8372 60.5551 51.0966 63.2186 47.8771C65.8835 44.6575 70.6805 44.1285 73.8796 46.7018L87.0245 57.2755L77.4625 69.0848Z" fill="#8E8E8E"/>
<path d="M70.4639 47.2101C70.5692 47.1521 70.7015 47.1906 70.7594 47.2961C70.8173 47.4016 70.7789 47.5341 70.6736 47.5921C68.3082 48.8953 66.8941 50.6882 66.2727 52.8531C65.7046 54.8326 65.8316 56.9587 66.389 58.9969C66.4941 59.3809 66.6065 59.7289 66.7188 60.0344L66.817 60.2909L66.8459 60.3611L77.2907 68.9457L86.7154 57.3071C86.7817 57.2253 86.8949 57.2042 86.9846 57.2509L87.0215 57.2752C87.1031 57.3415 87.1243 57.4549 87.0776 57.5449L87.0534 57.5818L77.4914 69.3911C77.4238 69.4745 77.3075 69.4949 77.217 69.4445L77.1844 69.4223L66.5291 60.6646L66.4682 60.5846L66.4351 60.5069C66.4031 60.4297 66.3606 60.3217 66.3104 60.185C66.194 59.8682 66.0778 59.5085 65.9694 59.1121C65.3926 57.0034 65.261 54.8005 65.8545 52.7326C66.5077 50.457 67.9963 48.5696 70.4639 47.2101Z" fill="#BF5F82"/>
<path d="M89.3917 69.3067C89.4911 69.2147 89.6461 69.2209 89.7379 69.3205C89.8194 69.409 89.8236 69.5415 89.7537 69.6345L89.724 69.6673L82.9606 75.9218C82.8612 76.0137 82.7063 76.0075 82.6145 75.9079C82.533 75.8194 82.5288 75.6869 82.5987 75.594L82.6284 75.5612L89.3917 69.3067Z" fill="#DD936F"/>
</g>
<defs>
<clipPath id="clip0_55_5560">
<rect width="102" height="287" fill="white"/>
</clipPath>
</defs>
</svg>
