<svg width="129" height="326" viewBox="0 0 129 326" fill="none" xmlns="http://www.w3.org/2000/svg">
<g clip-path="url(#clip0_55_5393)">
<path fill-rule="evenodd" clip-rule="evenodd" d="M29.2011 300.716C29.2011 300.716 24.7286 313.227 12.9357 316.761C5.21369 319.075 13.8084 325.636 27.3639 321.616C35.0924 319.324 32.9948 315.469 37.3724 315.043C39.9093 314.796 44.8875 313.002 44.9527 311.062C45.0663 307.672 45.0598 306.722 44.97 302.784C44.8673 298.253 33.5447 295.124 29.2011 300.716Z" fill="#373737"/>
<path fill-rule="evenodd" clip-rule="evenodd" d="M95.1611 304.025C95.1611 304.025 95.9252 310.018 96.4368 312.151C96.9484 314.284 97.4773 315.602 101.556 316.185C108.661 317.202 107.384 322.994 115.464 324.434C126.478 326.396 129.281 323.059 128.069 320.284C126.856 317.51 116.419 314.665 111.543 302.997C108.524 295.771 95.1611 304.025 95.1611 304.025Z" fill="#373737"/>
<path fill-rule="evenodd" clip-rule="evenodd" d="M55.3525 159.126C55.3525 159.126 66.0601 128.823 78.913 144.405C92.3383 183.442 103.86 263.293 111.813 302.705C105.359 305.789 95.1646 304.634 95.1646 304.634C95.1646 304.634 59.6144 183.666 55.3525 159.126Z" fill="#BF5F82"/>
<path fill-rule="evenodd" clip-rule="evenodd" d="M56.413 162.041C56.413 162.041 53.594 162.582 50.8408 161.467C43.5587 158.52 30.1428 151.402 28.3888 148.242C27.5495 141.078 30.2773 123.503 32.8005 123.486C37.6441 123.452 54.0361 126.539 60.8594 125.202C66.1676 124.16 72.8644 122.887 72.8644 122.887C72.8644 122.887 74.7117 125.965 76.0409 128.854C79.2644 135.861 79.1204 145.014 79.1204 145.014C79.1204 145.014 60.0013 162.813 56.413 162.041Z" fill="#BF5F82"/>
<path fill-rule="evenodd" clip-rule="evenodd" d="M30.4094 110.96C30.4094 110.96 18.3162 74.6516 22.4334 54.7522C29.7408 50.6373 36.0505 45.8108 50.8932 45.0083C67.6094 44.1055 83.552 53.8732 83.552 53.8732L81.3212 83.7757L73.2504 107.94C73.2504 107.94 80.8321 118.071 65.7165 120.289C55.1877 121.834 39.0142 123.288 32.2987 119.489C29.3733 117.834 29.0122 114.733 30.4094 110.96Z" fill="#F48FB1"/>
<path fill-rule="evenodd" clip-rule="evenodd" d="M22.2323 55.1601C22.2323 55.1601 8.71289 74.6962 1.54728 99.3462C-0.603198 106.743 7.14344 111.925 14.024 108.701C20.9045 105.477 36.6481 68.7683 37.575 64.8223C39.3833 57.1269 29.6265 49.2828 22.2323 55.1601Z" fill="#F48FB1"/>
<path fill-rule="evenodd" clip-rule="evenodd" d="M42.709 44.2816L43.235 33.3481L59.8564 28.1396L61.6161 43.5629C61.6161 43.5629 53.5106 62.4279 42.709 44.2816Z" fill="#997C79"/>
<path fill-rule="evenodd" clip-rule="evenodd" d="M65.7786 20.4172C63.8691 32.9492 55.1347 38.568 46.7882 38.9558C36.8376 39.4181 34.6422 30.8697 35.2414 18.4959C35.8499 5.93077 41.2695 1.66414 50.6247 1.40484C60.3771 1.1347 67.7127 7.72353 65.7786 20.4172Z" fill="#997C79"/>
<path fill-rule="evenodd" clip-rule="evenodd" d="M58.8978 22.2386C59.1916 21.2606 59.476 19.621 61.0505 18.9709C63.2176 18.0752 65.1235 20.5238 64.8123 23.1494C64.4346 26.3312 61.617 28.2546 60.0244 28.2648C60.18 31.3822 60.4202 33.0377 60.4202 33.0377C60.4202 33.0377 63.9346 29.5866 65.8905 24.2083C68.9418 15.8166 67.0547 4.06549 57.6077 1.36697C42.8459 -2.40127 37.3496 8.61671 37.3496 8.61671L55.646 8.37041L55.1757 14.4746C55.1757 14.4746 58.4369 14.6566 57.7712 21.8811L58.8978 22.2386Z" fill="#604346"/>
<path d="M45.5167 15.6L51.2047 15.7257L51.3036 15.7417L53.1285 16.3051C53.3194 16.364 53.4263 16.5663 53.3672 16.7568C53.3131 16.9315 53.1384 17.0357 52.9626 17.0065L52.9147 16.9951L51.1372 16.4466L45.5007 16.3221C45.3176 16.3181 45.1692 16.1789 45.1492 16.0021L45.147 15.9531C45.151 15.7703 45.2905 15.6222 45.4675 15.6022L45.5167 15.6Z" fill="#604346"/>
<path fill-rule="evenodd" clip-rule="evenodd" d="M54.0033 31.8968C51.9078 28.9353 52.0945 26.2903 43.4369 26.4485C39.2249 26.525 37.7423 27.909 36.2358 31.2742C37.3907 36.453 41.6301 39.7178 47.2545 39.2837C59.0706 38.3722 59.6053 26.5727 59.6053 26.5727C59.6053 26.5727 57.9396 26.9981 57.402 27.883C55.9165 30.3294 54.9476 30.9419 54.0033 31.8968Z" fill="#7C5B4D"/>
<path fill-rule="evenodd" clip-rule="evenodd" d="M40.4995 28.8973C40.4995 28.8973 43.5574 29.0807 48.2396 28.6437C48.2396 28.6437 47.553 30.5802 44.1782 30.6019C41.5299 30.6192 40.4995 28.8973 40.4995 28.8973Z" fill="white"/>
<path d="M48.2143 28.3741C45.4259 28.6343 43.0378 28.6999 41.1961 28.6522L40.634 28.633C40.5841 28.6307 40.5446 28.6287 40.5157 28.6269C40.298 28.6139 40.1546 28.8494 40.2664 29.0362C40.4113 29.2783 40.7076 29.6251 41.1764 29.9681C41.959 30.5409 42.9563 30.8808 44.1798 30.8728C45.7095 30.863 46.8445 30.4767 47.6357 29.8329C48.1288 29.4316 48.3929 29.0228 48.4953 28.7342C48.5614 28.5477 48.4115 28.3557 48.2143 28.3741ZM47.7372 28.9603L47.7229 28.9799C47.607 29.1272 47.4646 29.2732 47.2928 29.413C46.6001 29.9767 45.5853 30.322 44.1763 30.3311C43.0726 30.3383 42.1882 30.0369 41.4972 29.5312L41.3598 29.4258C41.2714 29.3547 41.1895 29.2821 41.114 29.2088L41.0962 29.1909L41.4171 29.1992C43.0069 29.2313 44.9725 29.1816 47.2297 29.0028L47.7372 28.9603Z" fill="#604346"/>
<path d="M40.9925 15.6528C41.1226 15.6173 41.2565 15.6825 41.3108 15.8011L41.3258 15.8426L41.8822 17.873C41.8896 17.8998 41.8927 17.9275 41.8916 17.9551L41.8868 17.9963L40.4361 25.4149C40.3703 25.7526 40.6095 26.069 40.9437 26.1064L41.0036 26.1101L45.5795 26.1635C45.7293 26.1653 45.8494 26.288 45.8476 26.4375C45.846 26.5722 45.7463 26.6827 45.6172 26.7022L45.5731 26.7052L40.9975 26.6518C40.3191 26.6444 39.8067 26.0462 39.8915 25.385L39.9034 25.3113L41.3421 17.9548L40.8023 15.9855C40.7668 15.8557 40.8321 15.722 40.951 15.6678L40.9925 15.6528Z" fill="#604346"/>
<path fill-rule="evenodd" clip-rule="evenodd" d="M42.5359 43.2228L39.2783 47.4172L44.1422 56.3398L51.5292 48.869L42.5359 43.2228Z" fill="#F48FB1"/>
<path fill-rule="evenodd" clip-rule="evenodd" d="M51.5288 48.8687L61.6119 42.857L65.0547 46.852L58.3688 55.6634L51.5288 48.8687Z" fill="#F48FB1"/>
<path fill-rule="evenodd" clip-rule="evenodd" d="M45.896 54.727L51.532 48.9276L57.2424 54.7551L53.9921 61.1554L48.32 61.1179L45.896 54.727Z" fill="#373737"/>
<path fill-rule="evenodd" clip-rule="evenodd" d="M48.4207 61.0156L54.0234 60.9795L59.4076 100.481C59.4532 100.819 59.3663 101.163 59.1644 101.438L51.3729 112.065C50.8129 112.829 49.6523 112.774 49.1675 111.959L42.6039 100.916C42.4476 100.653 42.3875 100.345 42.4346 100.042L48.4207 61.0156Z" fill="#373737"/>
<path fill-rule="evenodd" clip-rule="evenodd" d="M31.8892 119.085L31.921 123.966C31.921 123.966 37.638 125.962 51.2905 126.281C64.4256 126.587 73.0681 122.885 73.0681 122.885L72.7106 117.747C72.7106 117.747 56.1645 123.808 31.8892 119.085Z" fill="black"/>
<path fill-rule="evenodd" clip-rule="evenodd" d="M28.3731 145.857C28.3731 145.857 45.8772 144.437 52.7085 153.932C53.9806 165.847 52.9893 186.166 51.9748 213.122C51.0182 238.568 45.0306 302.113 45.0306 302.113C45.0306 302.113 36.8969 304.606 28.5873 300.86C30.1046 289.325 28.1473 233.297 27.2313 215.021C26.316 196.744 28.3731 145.857 28.3731 145.857Z" fill="#BF5F82"/>
<path d="M23.403 62.0304C23.6028 62.0367 23.7597 62.2032 23.7536 62.4026C23.6478 65.8679 23.7655 69.6361 24.0852 73.6606C24.6005 80.1471 25.6178 87.076 26.9897 94.1328C27.6615 97.5879 28.3782 100.867 29.0977 103.88L29.4004 105.131C29.5308 105.663 29.656 106.164 29.7752 106.634L30.0293 107.62L30.264 108.502C30.3169 108.695 30.2036 108.893 30.0109 108.946C29.8183 108.999 29.6192 108.886 29.5662 108.694L29.283 107.626L29.1451 107.091C28.9573 106.357 28.7539 105.54 28.5382 104.648C27.7681 101.463 26.9981 97.9671 26.2794 94.2704C24.9026 87.1889 23.8815 80.234 23.3639 73.7177C23.0422 69.6683 22.9237 65.8741 23.0304 62.3806C23.0365 62.1812 23.2033 62.0245 23.403 62.0304Z" fill="#8E8E8E"/>
<path d="M43.2713 32.6122L45.4609 32.6476C45.6107 32.65 45.7302 32.7732 45.7278 32.9228C45.7256 33.0574 45.6254 33.1675 45.4962 33.1864L45.4521 33.1892L43.2626 33.1538C43.1127 33.1514 42.9932 33.0282 42.9956 32.8786C42.9978 32.744 43.098 32.6339 43.2273 32.615L43.2713 32.6122Z" fill="#604346"/>
<path d="M64.7668 46.6343C64.8874 46.4753 65.1143 46.444 65.2736 46.5644C65.4184 46.6739 65.4575 46.8711 65.3727 47.0255L65.3436 47.0704L58.6577 55.8817C58.5367 56.0411 58.3123 56.0698 58.156 55.9555L58.1152 55.9207L51.5308 49.4332L44.3632 56.4212C44.2044 56.576 43.9489 56.5511 43.8208 56.3794L43.7936 56.3372L38.9616 47.5916C38.8651 47.4169 38.9287 47.1972 39.1036 47.1009C39.264 47.0126 39.4623 47.0586 39.5686 47.2014L39.5952 47.2427L44.1975 55.5727L51.2794 48.6691C51.4077 48.5441 51.6057 48.5332 51.7461 48.6362L51.7863 48.6705L58.3295 55.1172L64.7668 46.6343Z" fill="#8E8E8E"/>
<path d="M53.2067 60.804C53.3066 60.8033 53.3881 60.8836 53.3888 60.9834C53.3893 61.0706 53.3278 61.1438 53.2455 61.1612L53.209 61.1651L48.4218 61.1962C48.3219 61.1968 48.2404 61.1165 48.2397 61.0168C48.2392 60.9295 48.3007 60.8563 48.383 60.8389L48.4195 60.835L53.2067 60.804Z" fill="#8E8E8E"/>
<path fill-rule="evenodd" clip-rule="evenodd" d="M44.3841 125.43L44.2546 121.886C44.2184 120.888 44.9999 120.07 45.9572 120.111C48.2524 120.207 52.3059 120.31 55.2386 120.001C56.1973 119.9 57.0265 120.69 57.0331 121.695L57.057 125.318C57.062 126.165 56.4752 126.884 55.6734 127.021C53.7683 127.345 50.0918 127.746 45.7915 127.065C45.0086 126.941 44.4145 126.255 44.3841 125.43Z" fill="#E1E2E1"/>
<path fill-rule="evenodd" clip-rule="evenodd" d="M45.8503 124.935L45.7519 122.428C45.7244 121.722 46.3279 121.143 47.0666 121.171C48.8365 121.239 51.9645 121.309 54.2264 121.09C54.9667 121.018 55.6056 121.577 55.6106 122.287L55.6273 124.85C55.6316 125.45 55.1779 125.959 54.5593 126.056C53.0897 126.285 50.2525 126.571 46.9357 126.091C46.3315 126.004 45.8734 125.519 45.8503 124.935Z" fill="black"/>
<path d="M35.9742 15.4225L40.8027 15.5547C41.0024 15.5601 41.1599 15.7262 41.1544 15.9256C41.1494 16.1084 41.0092 16.2557 40.832 16.2747L40.7829 16.2767L35.9544 16.1445C35.7547 16.1391 35.5972 15.973 35.6027 15.7736C35.6077 15.5908 35.7479 15.4435 35.9251 15.4244L35.9742 15.4225Z" fill="#604346"/>
<path d="M53.7013 37.1533C53.8315 37.0792 53.9972 37.1246 54.0713 37.2546C54.1455 37.3846 54.1001 37.55 53.9699 37.624C50.5321 39.5788 47.0533 39.9511 44.0289 39.4176C43.773 39.3725 43.5459 39.324 43.35 39.2753L43.1745 39.2293C43.1444 39.2209 43.1201 39.2137 43.102 39.2081C42.959 39.1634 42.8793 39.0114 42.9241 38.8687C42.9688 38.7259 43.121 38.6464 43.2641 38.691L43.3679 38.7205C43.3999 38.7291 43.4376 38.7388 43.4811 38.7496C43.6651 38.7953 43.8799 38.8412 44.1234 38.8842C47.0326 39.3974 50.386 39.0385 53.7013 37.1533Z" fill="#604346"/>
<path d="M61.141 20.502C61.5511 20.2898 61.9787 20.2484 62.3612 20.3031L62.4536 20.3189C62.4657 20.3214 62.4762 20.3238 62.485 20.326C62.6303 20.3625 62.7185 20.5096 62.682 20.6547C62.6492 20.7853 62.5265 20.8697 62.3963 20.8587L62.2842 20.8394C62.0042 20.7993 61.6862 20.8301 61.3908 20.983C60.883 21.2457 60.5315 21.8264 60.4208 22.8406L60.4159 22.89L60.4946 22.9092C61.1853 23.0861 61.6019 23.469 61.6975 23.9921L61.7094 24.0716C61.7732 24.612 61.4818 25.2092 60.9956 25.6192C60.8811 25.7157 60.7099 25.7013 60.6132 25.587C60.5165 25.4728 60.5309 25.3019 60.6454 25.2053C61.0024 24.9043 61.2109 24.4771 61.1705 24.135C61.1263 23.7611 60.7898 23.4832 60.0863 23.3797C59.947 23.3592 59.8465 23.2357 59.855 23.0954C59.9379 21.7242 60.4029 20.884 61.141 20.502Z" fill="#604346"/>
<path fill-rule="evenodd" clip-rule="evenodd" d="M100.86 169.152L68.2752 172.749C66.8852 172.902 65.6508 171.863 65.5668 170.47L63.4395 135.222C63.3556 133.822 64.4677 132.639 65.8722 132.635L97.4311 132.539C99.0693 132.534 100.444 133.77 100.608 135.397L103.678 165.673C103.854 167.408 102.596 168.961 100.86 169.152Z" fill="#FAAD14"/>
<path fill-rule="evenodd" clip-rule="evenodd" d="M64.9392 132.632L65.1838 132.631C66.021 132.625 66.7149 133.277 66.7605 134.112L68.759 171.306C68.8061 172.172 68.1389 172.91 67.2721 172.953C66.4125 172.996 65.6787 172.341 65.6274 171.484L63.3843 134.292C63.33 133.396 64.0406 132.638 64.9392 132.632Z" fill="#FF7A46"/>
<path d="M101.122 144.62C101.222 144.62 101.303 144.701 101.303 144.8C101.303 144.888 101.241 144.961 101.159 144.978L101.123 144.981L67.5079 145.067L64.5644 145.085C64.4645 145.086 64.383 145.006 64.3823 144.906C64.3818 144.819 64.4433 144.746 64.5256 144.728L64.5621 144.724L67.5063 144.705L101.122 144.62Z" fill="#FF7A46"/>
<path fill-rule="evenodd" clip-rule="evenodd" d="M97.0119 171.209C96.072 172.842 95.1197 172.577 93.8991 172.856C92.6784 173.135 91.1958 174.907 91.1958 174.907C88.0156 176.758 88.7978 171.669 88.1842 171.266C87.8774 171.065 87.7088 172.598 86.4339 173.582C85.1582 174.567 83.7849 174.048 84.122 173.191C84.9238 171.152 86.4766 166.173 86.7761 163.546C87.1611 160.154 89.1097 157.023 89.1097 157.023C91.4678 152.239 99.0777 154.789 99.0777 154.789C99.0777 154.789 101.348 169.553 99.5857 170.107C99.5857 170.107 97.407 170.523 97.0119 171.209Z" fill="#997C79"/>
<path fill-rule="evenodd" clip-rule="evenodd" d="M74.5666 74.5919C74.5666 74.5919 70.4053 58.2289 81.7865 53.8843C90.7972 50.4447 103.539 89.0026 103.714 115.847C103.827 133.334 100.521 157.356 100.521 157.356C100.521 157.356 92.6033 159.168 87.277 156.553C87.9464 144.686 86.9275 119.004 85.28 110.536C83.6316 102.068 74.5666 74.5919 74.5666 74.5919Z" fill="#F48FB1"/>
<path d="M74.893 77.3831C75.0655 77.3216 75.2538 77.3987 75.3358 77.5566L75.3554 77.6017L79.7128 89.7761C79.78 89.9639 79.682 90.1706 79.4939 90.2377C79.3214 90.2992 79.133 90.2221 79.0511 90.0641L79.0314 90.0191L74.674 77.8447C74.6068 77.6569 74.7048 77.4502 74.893 77.3831Z" fill="#8E8E8E"/>
<path d="M82.0934 53.9424C82.2848 53.8851 82.4865 53.9936 82.5438 54.1846C82.6012 54.3757 82.4926 54.577 82.3012 54.6343C79.0986 55.5925 76.7706 58.3204 75.1908 62.2903C74.4818 64.0719 73.9729 65.9845 73.6321 67.8977C73.5298 68.4719 73.4493 69.0107 73.3879 69.504L73.3588 69.7468C73.3419 69.8927 73.3278 70.0262 73.3162 70.1463L73.2906 70.4397C73.2771 70.6387 73.1045 70.789 72.9051 70.7755C72.7058 70.7619 72.5551 70.5896 72.5687 70.3906L72.5846 70.1973L72.6088 69.9481C72.6134 69.9037 72.6183 69.8577 72.6235 69.8104L72.6399 69.6642C72.7059 69.0925 72.7977 68.4562 72.9197 67.7712C73.2684 65.8134 73.7895 63.855 74.5183 62.0236C76.1718 57.8686 78.6408 54.9754 82.0934 53.9424Z" fill="#8E8E8E"/>
<path d="M86.9742 156.356C87.0832 156.189 87.3073 156.142 87.4748 156.25C88.6576 157.019 90.6304 157.443 93.1597 157.569C94.9295 157.656 96.8298 157.593 98.684 157.434L99.1138 157.395C99.2526 157.382 99.3869 157.369 99.5164 157.356L100.058 157.296C100.184 157.281 100.277 157.269 100.333 157.261C100.531 157.235 100.713 157.373 100.74 157.571C100.767 157.768 100.628 157.95 100.43 157.977L100.144 158.013L99.9714 158.033C99.6068 158.074 99.1955 158.115 98.7459 158.154C96.8618 158.315 94.9306 158.379 93.1238 158.29C90.4769 158.159 88.397 157.712 87.08 156.856C86.9125 156.747 86.8651 156.523 86.9742 156.356Z" fill="#8E8E8E"/>
<path d="M89.133 151.1L89.5608 151.162L89.8363 151.2C90.3908 151.275 90.9961 151.351 91.6316 151.421C92.6846 151.537 93.7136 151.628 94.6782 151.683L95.1489 151.707C96.6894 151.777 97.9386 151.742 98.7932 151.581C98.9895 151.544 99.1787 151.673 99.2158 151.869C99.2528 152.065 99.1237 152.254 98.9273 152.291C97.9151 152.481 96.4487 152.507 94.6368 152.404C93.6583 152.348 92.6169 152.256 91.552 152.139L90.9212 152.066C90.6116 152.029 90.3114 151.992 90.0231 151.954L89.46 151.877L89.0233 151.814C88.8258 151.784 88.6902 151.599 88.7205 151.402C88.7483 151.222 88.9058 151.093 89.084 151.096L89.133 151.1Z" fill="#8E8E8E"/>
<path fill-rule="evenodd" clip-rule="evenodd" d="M98.3746 154.651C98.3789 155.272 97.8775 155.779 97.2552 155.783C96.6337 155.787 96.1257 155.286 96.1221 154.665C96.1178 154.044 96.6185 153.538 97.2415 153.533C97.863 153.53 98.371 154.03 98.3746 154.651Z" fill="white"/>
<path d="M43.3246 160.622L56.4424 161.681C56.6415 161.697 56.7899 161.872 56.7738 162.07C56.759 162.253 56.6111 162.392 56.4332 162.402L56.384 162.401L43.2662 161.342C43.0671 161.326 42.9187 161.151 42.9348 160.952C42.9496 160.77 43.0974 160.631 43.2754 160.621L43.3246 160.622Z" fill="black"/>
<path d="M49.9094 19.0639C50.1092 19.0627 50.2721 19.2234 50.2734 19.4229C50.2796 20.4597 49.4732 21.3119 48.4638 21.3182C47.4538 21.3245 46.6366 20.4832 46.6294 19.4463C46.628 19.2469 46.7889 19.0841 46.9887 19.0827C47.1885 19.0813 47.3516 19.2419 47.353 19.4414C47.3574 20.0864 47.856 20.5997 48.4592 20.5959C49.0617 20.5921 49.5537 20.0722 49.5498 19.4272C49.5486 19.2278 49.7096 19.0651 49.9094 19.0639Z" fill="#604346"/>
<path d="M39.8239 19.1294C40.0237 19.128 40.1868 19.2886 40.1881 19.4881C40.1953 20.5248 39.3882 21.3774 38.3786 21.3837C37.3692 21.39 36.5521 20.5485 36.5449 19.5118C36.5436 19.3124 36.7044 19.1496 36.9042 19.1482C37.104 19.1468 37.2671 19.3074 37.2685 19.5069C37.2729 20.1518 37.7715 20.6652 38.374 20.6614C38.9767 20.6576 39.469 20.1376 39.4646 19.493C39.4632 19.2936 39.6241 19.1308 39.8239 19.1294Z" fill="#604346"/>
<path fill-rule="evenodd" clip-rule="evenodd" d="M34.873 77.3816C34.873 77.3816 44.6001 65.6067 47.0183 65.3712C50.0045 65.0809 53.2433 65.104 54.5103 65.2419C54.9032 65.2845 55.2216 65.5749 55.3026 65.9606L56.4951 71.6141C56.6311 72.2605 56.4871 72.9352 56.0971 73.4689L52.6579 77.6301C52.4864 77.8389 52.2759 78.0122 52.0378 78.1408L40.017 84.6617C40.017 84.6617 35.0937 80.2102 34.873 77.3816Z" fill="#997C79"/>
<path d="M55.4277 67.0807C55.5769 67.067 55.709 67.1767 55.7226 67.3257C55.735 67.4598 55.6472 67.58 55.5207 67.6126L55.4772 67.6201L49.0974 68.2038C48.9482 68.2174 48.8161 68.1077 48.8024 67.9587C48.7901 67.8247 48.8779 67.7045 49.0044 67.6718L49.0479 67.6643L55.4277 67.0807Z" fill="#604346"/>
<path d="M55.499 68.9964C55.6378 68.94 55.7961 69.0065 55.8527 69.145C55.9036 69.2697 55.8547 69.4102 55.7432 69.4782L55.7038 69.4981L50.9622 71.4273C50.8234 71.4838 50.6651 71.4173 50.6085 71.2787C50.5576 71.1541 50.6065 71.0135 50.718 70.9455L50.7574 70.9257L55.499 68.9964Z" fill="#604346"/>
<path d="M55.6989 70.6734C55.8091 70.5721 55.9808 70.5791 56.0823 70.6892C56.1726 70.787 56.177 70.9332 56.0995 71.0357L56.0666 71.0719L53.0963 73.8029C52.9861 73.9043 52.8144 73.8972 52.7129 73.7872C52.6226 73.6894 52.6182 73.5431 52.6957 73.4407L52.7286 73.4045L55.6989 70.6734Z" fill="#604346"/>
<path fill-rule="evenodd" clip-rule="evenodd" d="M4.08988 95.3773L35.2776 76.3541L41.0424 85.6718C41.0424 85.6718 19.2047 108.302 11.2555 110.474C3.30624 112.645 -3.02291 103.638 4.08988 95.3773Z" fill="#F48FB1"/>
<path d="M35.3472 76.1188L35.3788 76.1611L41.3476 85.4774C41.439 85.62 41.4188 85.8069 41.2991 85.9269L40.3502 86.8672L39.3779 87.8207C38.8111 88.3742 38.2065 88.9605 37.5688 89.5745L37.2472 89.8837C34.1583 92.8504 30.9675 95.8171 27.8462 98.5867C26.9336 99.3964 26.0388 100.179 25.1643 100.93L24.6421 101.378C18.8902 106.287 14.3373 109.596 11.3939 110.807C11.2091 110.884 10.9977 110.796 10.9215 110.611C10.8453 110.427 10.9333 110.216 11.118 110.14C13.9207 108.986 18.3332 105.793 23.8973 101.062L24.1719 100.829C25.2077 99.9445 26.2738 99.0156 27.3655 98.0468C30.1676 95.5605 33.0269 92.9139 35.8179 90.2512L36.7455 89.3632C37.3929 88.7415 38.0079 88.1464 38.5859 87.5833L40.2571 85.9433L40.581 85.6214L34.9603 76.8488L30.7421 79.433C28.1991 80.9922 25.656 82.5533 23.2083 84.0586L14.4569 89.4558C11.7779 91.1147 9.67908 92.4232 8.2797 93.309C8.11096 93.4158 7.88742 93.3659 7.78042 93.1974C7.67341 93.029 7.72347 92.8058 7.89221 92.699L10.1448 91.2845C10.9663 90.7716 11.8973 90.1924 12.9296 89.5521L20.4161 84.9283L26.1409 81.4083L34.885 76.0478C35.0378 75.9543 35.2331 75.9875 35.3472 76.1188Z" fill="#8E8E8E"/>
<path fill-rule="evenodd" clip-rule="evenodd" d="M38.3343 84.9838C38.3387 85.605 37.8372 86.1121 37.2149 86.1157C36.5934 86.12 36.0854 85.6195 36.0811 84.9983C36.0775 84.3771 36.5782 83.8708 37.2005 83.8664C37.8228 83.8628 38.33 84.3626 38.3343 84.9838Z" fill="white"/>
<path d="M31.2576 81.3554C31.4156 81.2628 31.615 81.3033 31.7251 81.4432L31.7529 81.4838L36.2854 89.1828C36.3866 89.3547 36.329 89.5761 36.1567 89.6771C35.9988 89.7698 35.7994 89.7292 35.6892 89.5893L35.6615 89.5487L31.129 81.8497C31.0278 81.6778 31.0854 81.4564 31.2576 81.3554Z" fill="#8E8E8E"/>
</g>
<defs>
<clipPath id="clip0_55_5393">
<rect width="129" height="326" fill="white"/>
</clipPath>
</defs>
</svg>
