<svg width="102" height="278" viewBox="0 0 102 278" fill="none" xmlns="http://www.w3.org/2000/svg">
<g clip-path="url(#clip0_55_5683)">
<path fill-rule="evenodd" clip-rule="evenodd" d="M41.937 10.0138C41.937 10.0138 34.5927 14.8841 35.1722 18.9897C35.6976 22.7075 40.5238 22.6785 40.5238 22.6785C40.5238 22.6785 44.2944 22.2262 48.2213 20.6322C50.7943 19.5877 55.9817 18.3337 55.8015 16.8702C55.5678 14.9631 50.4731 17.1123 49.4832 16.1265C47.4767 14.1288 55.1373 9.90142 56.0121 8.54884C57.7212 5.90311 50.7017 4.10401 41.937 10.0138Z" fill="#B78376"/>
<path d="M55.3336 7.29185C55.2837 7.1503 55.1287 7.07607 54.9873 7.12606C53.6543 7.59767 52.347 8.31324 51.0885 9.20706C50.2627 9.7935 49.5071 10.4215 48.8369 11.0496C48.6021 11.2698 48.3945 11.4744 48.2162 11.6583L48.0172 11.8685C48.0087 11.8778 48.0011 11.8862 47.9946 11.8935C47.8945 12.0052 47.9037 12.1771 48.0152 12.2773C48.1267 12.3776 48.2983 12.3684 48.3984 12.2567L48.5569 12.0874L48.6055 12.037C48.778 11.8592 48.9793 11.6606 49.2077 11.4466C49.8609 10.8343 50.5979 10.2219 51.4023 9.65055C52.6225 8.78395 53.8867 8.09201 55.1681 7.63868C55.3094 7.58868 55.3835 7.4334 55.3336 7.29185Z" fill="#9B6160"/>
<path d="M53.4042 6.2757C53.3606 6.13207 53.209 6.05104 53.0657 6.09472L52.9596 6.12955L52.9067 6.14792C52.7816 6.19186 52.6363 6.24658 52.4722 6.31281C52.0057 6.50102 51.4799 6.74404 50.9053 7.04772C49.2679 7.91314 47.565 9.09121 45.8829 10.6285C45.7722 10.7297 45.7644 10.9016 45.8654 11.0125C45.9664 11.1234 46.138 11.1313 46.2487 11.0302C47.8956 9.52497 49.5606 8.3731 51.1585 7.52854C51.7164 7.23371 52.2254 6.99848 52.6749 6.8171C52.7532 6.78554 52.8266 6.75681 52.8953 6.73081L53.1726 6.6313C53.1955 6.62364 53.2126 6.6182 53.2235 6.61485C53.3669 6.57118 53.4478 6.41932 53.4042 6.2757Z" fill="#9B6160"/>
<path d="M49.199 6.66178C49.129 6.52903 48.9649 6.47825 48.8324 6.54836C47.2311 7.39551 45.9105 8.24351 44.8531 9.05232C44.5345 9.29598 44.2594 9.52141 44.0263 9.72546L43.9133 9.8257C43.758 9.96521 43.6552 10.0649 43.6027 10.1197C43.499 10.2281 43.5025 10.4002 43.6107 10.5041C43.7188 10.608 43.8906 10.6044 43.9943 10.4961L44.0436 10.4465C44.0949 10.3962 44.172 10.3235 44.2756 10.2304C44.5206 10.0103 44.8222 9.75995 45.1824 9.48442C46.2161 8.69378 47.5113 7.86206 49.0858 7.02908C49.2183 6.95897 49.269 6.79453 49.199 6.66178Z" fill="#9B6160"/>
<path fill-rule="evenodd" clip-rule="evenodd" d="M16.2295 52.4088C16.2295 52.4088 8.32439 59.1732 2.46629 52.74C-3.5756 46.1061 3.70722 39.2657 3.70722 39.2657C3.70722 39.2657 8.95101 34.5787 15.388 28.7741C19.3185 25.2302 23.7359 21.4044 27.3408 19.0871C31.2445 16.5776 33.2966 18.1564 36.2256 21.3733C39.7039 25.1925 40.7545 27.1265 37.8182 30.692C35.0194 34.0916 30.6866 38.1443 27.4717 41.4366C21.3416 47.7146 16.2295 52.4088 16.2295 52.4088Z" fill="#F48FB1"/>
<path fill-rule="evenodd" clip-rule="evenodd" d="M35.4258 15.4473L42.1992 22.8851L37.6703 28.0062L29.9215 19.4964L35.4258 15.4473Z" fill="#F48FB1"/>
<path fill-rule="evenodd" clip-rule="evenodd" d="M50.3607 41.3228L51.831 30.584L66.1108 31.8649L65.4958 42.7479C65.2787 46.9615 61.6362 50.1668 57.4373 49.8392C57.357 49.8326 57.2774 49.8261 57.1963 49.8203C52.9026 49.4869 49.7746 45.598 50.3607 41.3228Z" fill="#C99382"/>
<path fill-rule="evenodd" clip-rule="evenodd" d="M46.9081 19.2684C46.9081 19.2684 43.631 14.7852 41.1651 18.5298C38.8214 22.0867 42.5109 27.5557 46.1129 26.8439C47.958 23.4806 46.9081 19.2684 46.9081 19.2684Z" fill="#C99382"/>
<path fill-rule="evenodd" clip-rule="evenodd" d="M72.3261 21.5326C72.3261 21.5326 76.342 17.6988 78.1097 21.8204C79.7891 25.7361 75.1951 30.4672 71.7747 29.1291C70.5512 25.4933 72.3261 21.5326 72.3261 21.5326Z" fill="#C99382"/>
<path fill-rule="evenodd" clip-rule="evenodd" d="M45.3339 20.0169C44.1877 32.9346 50.2897 36.9199 58.1912 37.6237C66.0919 38.3276 72.2474 35.5709 73.9471 22.5655C75.5108 10.6018 68.9653 5.95469 61.0645 5.25085C53.163 4.54701 46.3411 8.67582 45.3339 20.0169Z" fill="#C99382"/>
<path fill-rule="evenodd" clip-rule="evenodd" d="M58.2072 22.6641C58.098 25.2808 55.8918 27.314 53.2789 27.2046C50.6668 27.0951 48.6371 24.8843 48.7471 22.2676C48.8564 19.6508 51.0626 17.6183 53.6747 17.7271C56.2876 17.8372 58.3165 20.0473 58.2072 22.6641Z" fill="white"/>
<path d="M53.6887 17.3933C56.4855 17.5112 58.6574 19.877 58.5404 22.6781C58.4234 25.4795 56.0616 27.6557 53.2649 27.5385C50.4686 27.4213 48.296 25.0546 48.4138 22.2536C48.5288 19.4986 50.8154 17.3484 53.5513 17.3894L53.6887 17.3933ZM53.6606 18.061C51.2325 17.9599 49.1819 19.8494 49.0803 22.2816C48.9781 24.7139 50.8646 26.769 53.2928 26.8708C55.7213 26.9725 57.7723 25.0828 57.8739 22.6502C57.9754 20.2178 56.0894 18.1634 53.6606 18.061Z" fill="#7D4556"/>
<path d="M53.5437 20.6047C52.7429 20.571 52.1698 20.9385 51.818 21.5509C51.6235 21.8895 51.5333 22.2229 51.5053 22.459C51.4836 22.6423 51.6143 22.8085 51.7972 22.8303C51.9649 22.8502 52.1183 22.7419 52.1594 22.5825L52.177 22.4811C52.184 22.4449 52.1946 22.3976 52.2097 22.3418C52.2522 22.1848 52.3136 22.0281 52.3962 21.8843C52.6314 21.4748 52.9821 21.25 53.5158 21.2724C54.0198 21.2936 54.3171 21.54 54.4862 21.9687C54.5799 22.2062 54.6182 22.4559 54.6233 22.6553L54.6234 22.7374C54.6156 22.9254 54.7585 23.0811 54.9426 23.0889C55.1113 23.096 55.256 22.9763 55.285 22.8143L55.2904 22.7522C55.2968 22.4611 55.2522 22.0919 55.1067 21.7231C54.8468 21.0642 54.3322 20.6378 53.5437 20.6047Z" fill="#7D4556"/>
<path d="M69.323 17.2065C67.9301 16.2289 65.7981 16.0874 62.8143 17.2641C62.6429 17.3317 62.5586 17.5257 62.6261 17.6974C62.6936 17.8691 62.8872 17.9536 63.0587 17.886C65.8449 16.7872 67.7423 16.9131 68.9402 17.7538C69.1373 17.8922 69.2959 18.0391 69.4191 18.1844L69.4894 18.272C69.4989 18.2845 69.5072 18.296 69.5145 18.3063L69.5449 18.3532C69.6351 18.5142 69.8384 18.5714 69.999 18.4811C70.1597 18.3908 70.2169 18.1871 70.1267 18.0262C70.0043 17.8077 69.7464 17.5036 69.323 17.2065Z" fill="#7D4556"/>
<path d="M52.9994 15.4894C52.123 15.4298 51.3351 15.5567 50.6633 15.9049C50.4997 15.9897 50.4357 16.1913 50.5203 16.3552C50.6049 16.5192 50.8062 16.5833 50.9698 16.4985C51.5227 16.212 52.1911 16.1043 52.9542 16.1562C53.784 16.2127 54.6826 16.453 55.5907 16.819C55.8865 16.9383 56.1669 17.0644 56.4268 17.1918L56.6177 17.2875C56.8034 17.3826 56.9353 17.4558 57.0034 17.4962C57.162 17.5901 57.3666 17.5375 57.4603 17.3786C57.5541 17.2198 57.5016 17.0148 57.343 16.9209L57.2291 16.8561L57.0326 16.7501C56.997 16.7314 56.9599 16.7121 56.9214 16.6924C56.5929 16.5241 56.2291 16.356 55.8398 16.199C54.8719 15.8089 53.9087 15.5513 52.9994 15.4894Z" fill="#7D4556"/>
<path d="M61.8657 18.739C61.7387 18.6594 61.5713 18.698 61.4918 18.8252L61.4231 18.9403C61.3862 19.0043 61.3413 19.085 61.2901 19.1811C61.1418 19.4593 60.9937 19.7698 60.8555 20.1055C60.4825 21.0109 60.2484 21.9291 60.2219 22.8132C60.2038 23.422 60.2669 23.966 60.4163 24.7198L60.5717 25.4873C60.7177 26.2397 60.7188 26.4441 60.6171 26.6966C60.4688 27.0645 59.9711 27.2675 58.8742 27.2894C58.7243 27.2924 58.6053 27.4165 58.6083 27.5666C58.6113 27.7167 58.7352 27.8359 58.885 27.833C60.1758 27.8072 60.8686 27.5246 61.1203 26.9002L61.1555 26.8078C61.2788 26.4621 61.2653 26.1948 61.0919 25.3184L60.9868 24.8023C60.8173 23.984 60.7463 23.4368 60.7644 22.8295C60.7886 22.0196 61.0072 21.1624 61.3571 20.3128C61.4882 19.9947 61.6286 19.7002 61.7688 19.4371L61.8354 19.3144C61.8866 19.2218 61.9266 19.154 61.9518 19.1136C62.0313 18.9864 61.9928 18.8187 61.8657 18.739Z" fill="#9B6160"/>
<path d="M55.8341 28.2315C55.6858 28.1786 55.5227 28.2561 55.4699 28.4047C55.4171 28.5533 55.4945 28.7166 55.6428 28.7695C57.8624 29.5617 60.1976 29.7129 62.2795 29.4991L62.527 29.4713L62.8648 29.4243C62.8855 29.4209 62.9022 29.4181 62.9146 29.4159C63.0696 29.388 63.1727 29.2396 63.1449 29.0843C63.1171 28.9291 62.9689 28.8258 62.8139 28.8537L62.7151 28.8695L62.6633 28.8771C62.5363 28.8954 62.3883 28.9137 62.2213 28.9309C60.2166 29.1368 57.9617 28.9907 55.8341 28.2315Z" fill="#7D4556"/>
<path fill-rule="evenodd" clip-rule="evenodd" d="M70.277 23.6728C70.0143 26.2787 67.6923 28.1778 65.0911 27.9147C62.4898 27.6515 60.594 25.3255 60.8567 22.7196C61.1193 20.113 63.4413 18.2139 66.0426 18.4777C68.6438 18.7409 70.5396 21.0669 70.277 23.6728Z" fill="white"/>
<path d="M66.0761 18.1453C68.8605 18.4269 70.8899 20.9168 70.6087 23.7064C70.3276 26.4958 67.8421 28.5288 65.0574 28.2471C62.2729 27.9655 60.2435 25.4756 60.5247 22.686C60.8058 19.8959 63.2914 17.8628 66.0761 18.1453ZM61.1884 22.7532C60.9443 25.1755 62.7066 27.3376 65.1245 27.5822C67.5425 27.8268 69.7008 26.0614 69.945 23.6392C70.1891 21.2169 68.4269 19.0548 66.0089 18.8102C63.5909 18.5649 61.4326 20.3303 61.1884 22.7532Z" fill="#7D4556"/>
<path d="M65.743 21.3417C64.9279 21.2591 64.3273 21.608 63.9416 22.2195C63.7413 22.5372 63.638 22.8507 63.5982 23.0729C63.5657 23.2546 63.6863 23.4282 63.8677 23.4608C64.0325 23.4904 64.1908 23.3932 64.2426 23.2388L64.2766 23.1006C64.2841 23.0735 64.2936 23.0422 64.3051 23.0073C64.3537 22.8596 64.4201 22.7121 64.5056 22.5765C64.7648 22.1654 65.1329 21.9516 65.676 22.0067C66.1658 22.0561 66.4458 22.3084 66.5931 22.7286C66.6719 22.9532 66.7016 23.1939 66.7003 23.4055L66.6952 23.5384C66.6767 23.722 66.8103 23.8858 66.9936 23.9044C67.1769 23.9229 67.3405 23.789 67.359 23.6054L67.3633 23.5457C67.3807 23.2315 67.3483 22.8657 67.2226 22.5071C66.9945 21.8566 66.5089 21.419 65.743 21.3417Z" fill="#7D4556"/>
<path fill-rule="evenodd" clip-rule="evenodd" d="M60.7437 21.4388C60.7437 21.4388 59.5201 20.6495 58.269 21.2185L60.7437 21.4388Z" fill="white"/>
<path d="M60.7437 21.4388C60.7437 21.4388 59.5201 20.6495 58.269 21.2185" stroke="#7D4556" stroke-width="1.383"/>
<path d="M51.2883 35.5236C51.1551 35.4547 50.9914 35.507 50.9227 35.6404C50.854 35.7738 50.9062 35.9378 51.0394 36.0067C55.5985 38.3641 60.4659 38.5055 64.867 37.4142C65.0125 37.3781 65.1012 37.2307 65.0652 37.085C65.0292 36.9393 64.8821 36.8504 64.7366 36.8865C60.4517 37.949 55.7126 37.8113 51.2883 35.5236Z" fill="#9B6160"/>
<path d="M57.8503 31.0893C57.701 31.076 57.5692 31.1865 57.5559 31.336C57.544 31.4706 57.6321 31.591 57.7587 31.6234L57.8022 31.6309L59.9331 31.8208C60.0824 31.8341 60.2142 31.7236 60.2274 31.5741C60.2394 31.4395 60.1513 31.3191 60.0247 31.2867L59.9812 31.2793L57.8503 31.0893Z" fill="#9B6160"/>
<path d="M59.3182 34.1519C59.1834 34.1479 59.0687 34.2431 59.0438 34.3715L59.039 34.4155L58.9514 37.3736C58.947 37.5237 59.0648 37.6489 59.2146 37.6534C59.3494 37.6574 59.4642 37.5622 59.489 37.4337L59.4939 37.3897L59.5814 34.4316C59.5859 34.2816 59.468 34.1563 59.3182 34.1519Z" fill="#9B6160"/>
<path d="M58.1088 34.9348C57.9757 34.9125 57.8492 34.9913 57.8072 35.1152L57.7964 35.1581L57.4238 37.3928C57.3991 37.5409 57.4989 37.681 57.6467 37.7057C57.7797 37.728 57.9063 37.6492 57.9483 37.5253L57.9591 37.4824L58.3317 35.2477C58.3564 35.0996 58.2566 34.9595 58.1088 34.9348Z" fill="#9B6160"/>
<path d="M60.253 35.8144C60.1184 35.823 60.013 35.9285 60.0002 36.0588L59.9995 36.103L60.0849 37.4425C60.0944 37.5923 60.2234 37.706 60.373 37.6965C60.5076 37.6879 60.613 37.5823 60.6257 37.4521L60.6265 37.4079L60.5411 36.0684C60.5315 35.9185 60.4026 35.8048 60.253 35.8144Z" fill="#9B6160"/>
<path d="M57.0065 35.4193C56.8773 35.3806 56.7419 35.4429 56.6848 35.5606L56.6688 35.6019L56.2158 37.1197C56.1729 37.2636 56.2545 37.415 56.3981 37.458C56.5273 37.4967 56.6627 37.4344 56.7198 37.3167L56.7358 37.2754L57.1888 35.7576C57.2317 35.6137 57.1501 35.4623 57.0065 35.4193Z" fill="#9B6160"/>
<path d="M77.3319 22.8826C76.7962 22.1413 76.0137 22.089 75.178 23.1663C74.8095 23.8402 74.7969 24.3042 75.0077 24.9853L75.1198 25.3293C75.1265 25.3513 75.1321 25.3708 75.1389 25.3954C75.2434 25.7701 75.2031 26.0215 74.9164 26.3791C74.8458 26.4672 74.7688 26.5402 74.6864 26.5996C74.4927 26.7395 74.2945 26.7936 74.1387 26.7986L74.0384 26.7979C73.9082 26.8074 73.8002 26.9103 73.7883 27.0449C73.7763 27.1795 73.8644 27.2999 73.9909 27.3323L74.0461 27.3406L74.057 27.3412C74.3315 27.3541 74.6727 27.2797 75.0037 27.0407C75.1256 26.9527 75.2382 26.846 75.3395 26.7195C75.7165 26.2493 75.801 25.8395 75.687 25.3485L75.6317 25.1474C75.6176 25.1025 75.5983 25.0445 75.5618 24.9353C75.3548 24.3156 75.3486 23.9858 75.6298 23.4642C76.2106 22.7196 76.5611 22.743 76.8923 23.2014C76.9909 23.3378 77.0584 23.4769 77.0895 23.5622C77.1411 23.7031 77.297 23.7755 77.4377 23.7239C77.5784 23.6722 77.6506 23.5161 77.5991 23.3751C77.5522 23.247 77.4645 23.0661 77.3319 22.8826Z" fill="#9B6160"/>
<path d="M43.1249 19.3742C42.7795 19.3527 42.4714 19.5195 42.1993 19.7977C42.0553 19.945 41.951 20.091 41.8906 20.1946C41.815 20.3242 41.8586 20.4907 41.9881 20.5664C42.1175 20.6421 42.2836 20.5984 42.3592 20.4688C42.399 20.4005 42.4789 20.2887 42.587 20.1781C42.7596 20.0016 42.9343 19.907 43.0913 19.9168C43.2923 19.9292 43.5172 20.1077 43.7559 20.5257L43.8026 20.6105L43.8303 20.6986C43.9762 21.1928 43.9226 21.5071 43.6855 21.9685L43.5173 22.2822C43.2266 22.8408 43.1965 23.2802 43.5263 23.8861C43.6405 24.0958 43.7855 24.2667 43.9537 24.4012C44.2268 24.6195 44.5016 24.7091 44.7006 24.7269C44.8499 24.7402 44.9817 24.6298 44.995 24.4803C45.0083 24.3307 44.8981 24.1987 44.7488 24.1854C44.6469 24.1763 44.4704 24.1187 44.2922 23.9762C44.1796 23.8862 44.0818 23.771 44.0028 23.6257C43.7838 23.2235 43.7842 22.9774 43.9585 22.6134L44.06 22.4185C44.0735 22.3938 44.0892 22.3649 44.1085 22.3298C44.4749 21.6559 44.5654 21.1787 44.2932 20.3765L44.2863 20.3634C43.9485 19.728 43.5593 19.4011 43.1249 19.3742Z" fill="#9B6160"/>
<path fill-rule="evenodd" clip-rule="evenodd" d="M75.8395 19.6806C78.0341 16.4607 77.1057 13.1003 75.4552 11.7238C76.2606 8.7903 74.7005 3.32414 70.5544 2.40865C67.9988 3.1712 65.0473 3.01028 65.0473 3.01028C65.0473 3.01028 58.373 -1.68173 53.0699 2.7631C48.1126 1.77512 45.0367 7.23838 45.2617 9.30712C42.256 12.4545 43.9629 17.7974 43.9629 17.7974C43.9629 17.7974 44.0881 19.8161 44.7596 22.6496C45.4542 25.5802 46.185 21.9566 46.2566 21.1433C46.329 20.33 48.418 19.8335 48.067 16.1135C50.5113 14.6921 50.2262 12.1399 50.2262 12.1399C50.2262 12.1399 51.7334 13.9817 56.6726 12.0993C59.802 15.2473 65.1956 12.8589 65.1956 12.8589C65.1956 12.8589 69.1782 15.2285 71.7462 13.9542C71.7462 13.9542 70.8887 15.9272 72.5305 18.9419C71.613 21.592 73.498 23.0236 72.812 24.6016C72.1268 26.1796 73.4705 27.9381 74.3004 24.7343C74.3004 24.7343 76.6687 22.6228 75.8395 19.6806Z" fill="#7D4556"/>
<path fill-rule="evenodd" clip-rule="evenodd" d="M37.2043 183.499C36.2398 164.553 35.4352 144.958 35.1501 129.356C35.1501 129.356 36.852 117.976 47.2274 119.498C57.3958 120.989 57.8813 133.761 57.8813 133.761L55.4147 184.16C55.4147 184.16 54.9219 192.364 45.8236 191.873C37.5249 191.427 37.2043 183.499 37.2043 183.499Z" fill="#8E8E8E"/>
<path fill-rule="evenodd" clip-rule="evenodd" d="M45.6525 230.298C49.2031 229.581 52.4925 232.367 52.3702 235.992C52.2306 240.165 52.0692 245.802 51.978 251.874C51.884 258.124 51.7935 263.302 51.3478 263.96C49.384 266.861 45.4543 267.943 41.4181 270.818C38.2242 273.093 37.6743 274.173 33.6013 274.941C27.8279 276.03 30.5174 273.574 36.9211 265.807C42.6251 258.888 42.238 255.646 42.238 255.646L41.1569 236.121C41.0028 233.331 42.9181 230.85 45.6525 230.298Z" fill="#C99382"/>
<path fill-rule="evenodd" clip-rule="evenodd" d="M37.4989 263.971C33.3318 268.619 28.5547 272.295 28.6734 274.501C28.7913 276.706 30.5294 278.696 37.7087 276.136C42.6218 274.384 41.2145 273.33 45.9025 270.267C48.244 268.738 49.0979 268.901 51.2563 267.123C52.4929 265.526 51.9278 257.781 51.9278 257.781L43.7159 266.813C43.7159 266.813 45.849 262.607 44.0914 261.699C42.3346 260.789 40.7166 260.171 39.6819 260.919C38.6465 261.666 37.4989 263.971 37.4989 263.971Z" fill="#7D4556"/>
<path fill-rule="evenodd" clip-rule="evenodd" d="M37.2615 185.171C39.1211 217.961 40.5415 250.785 40.5415 250.785L53.0254 250.974L55.7026 185.428C55.7026 185.428 54.8474 175.587 45.7375 175.736C37.5176 175.87 37.2615 185.171 37.2615 185.171Z" fill="#8E8E8E"/>
<path fill-rule="evenodd" clip-rule="evenodd" d="M77.2942 183.366C78.2139 164.418 79.2262 145.98 79.4736 130.376C79.4736 130.376 77.4896 117.843 67.1178 119.389C56.9522 120.905 56.4978 133.679 56.4978 133.679L59.0853 184.071C59.0853 184.071 59.5976 192.274 68.6945 191.762C76.9918 191.294 77.2942 183.366 77.2942 183.366Z" fill="#8E8E8E"/>
<path fill-rule="evenodd" clip-rule="evenodd" d="M68.958 230.186C65.4059 229.477 62.1231 232.27 62.2533 235.897C62.4038 240.068 62.5789 245.705 62.6846 251.776C62.7931 258.026 62.8966 263.205 63.3437 263.862C65.3148 266.757 69.2467 267.83 73.2893 270.695C76.489 272.962 77.0425 274.041 81.117 274.799C86.8926 275.874 84.1973 273.425 77.7755 265.673C72.0535 258.768 72.4341 255.525 72.4341 255.525L73.4666 235.997C73.6157 233.207 71.6938 230.731 68.958 230.186Z" fill="#C99382"/>
<path fill-rule="evenodd" clip-rule="evenodd" d="M77.1931 263.839C81.3703 268.477 86.1575 272.141 86.0439 274.347C85.931 276.553 84.1981 278.547 77.0122 276.005C72.0947 274.264 73.4999 273.206 68.8046 270.155C66.4595 268.631 65.6057 268.797 63.4429 267.023C62.2027 265.43 62.7483 257.683 62.7483 257.683L70.9833 266.695C70.9833 266.695 68.8394 262.495 70.5948 261.582C72.3502 260.668 73.9659 260.046 75.0035 260.791C76.0397 261.536 77.1931 263.839 77.1931 263.839Z" fill="#7D4556"/>
<path fill-rule="evenodd" clip-rule="evenodd" d="M77.2412 185.038C75.4598 217.832 74.1211 250.662 74.1211 250.662L61.6358 250.879L58.8001 185.339C58.8001 185.339 59.6322 175.496 68.742 175.623C76.9626 175.737 77.2412 185.038 77.2412 185.038Z" fill="#8E8E8E"/>
<path fill-rule="evenodd" clip-rule="evenodd" d="M47.831 46.1753L48.7456 42.8076L66.5333 43.294L67.2482 46.5218C67.2482 46.5218 81.6041 48.3455 83.7372 53.6906C85.9383 59.2053 78.3479 90.467 75.903 95.91C78.0766 100.264 76.5014 104.431 76.5014 104.431H40.3224C40.3224 104.431 35.9715 103.257 38.6878 98.6311C37.2399 88.7607 31.6698 55.1882 32.9831 49.9214C34.4303 44.1225 47.831 46.1753 47.831 46.1753Z" fill="#F48FB1"/>
<path d="M81.7873 57.8719C81.6379 57.8844 81.5269 58.0157 81.5393 58.1653C81.7503 60.7066 81.5783 64.4641 81.1014 69.1101C80.8969 71.1031 80.6412 73.2082 80.346 75.3786C80.0966 77.2127 79.8314 79.0044 79.5643 80.6973L79.3332 82.1355L79.0635 83.7375C79.0375 83.8853 79.1361 84.0263 79.2836 84.0524C79.4312 84.0784 79.572 83.9797 79.598 83.8319L79.7864 82.7223C79.8398 82.4013 79.8962 82.0571 79.9552 81.6917L80 81.4136C80.3013 79.5339 80.6025 77.5199 80.8838 75.452C81.1797 73.276 81.4361 71.165 81.6413 69.1657L81.7127 68.4532C82.1381 64.1036 82.2836 60.5709 82.0802 58.1203C82.0677 57.9707 81.9366 57.8595 81.7873 57.8719Z" fill="#9B6160"/>
<path d="M49.2562 46.5305C49.1118 46.4903 48.9622 46.5749 48.922 46.7195C48.8818 46.8641 48.9662 47.014 49.1105 47.0543C50.7254 47.5048 52.5869 47.8009 54.648 47.9606C57.7238 48.1989 61.0114 48.1245 64.1768 47.8562L64.7065 47.8092C65.0498 47.7774 65.3734 47.7447 65.675 47.7117L66.1484 47.6578L66.5324 47.6097C66.6808 47.5895 66.7848 47.4524 66.7646 47.3037C66.7443 47.155 66.6076 47.0508 66.4591 47.0711L66.0841 47.118L65.8361 47.1468C65.3325 47.204 64.7605 47.2611 64.1311 47.3145C60.9924 47.5805 57.7324 47.6543 54.6899 47.4185C52.6615 47.2614 50.8336 46.9707 49.2562 46.5305Z" fill="#8E8E8E"/>
<path fill-rule="evenodd" clip-rule="evenodd" d="M34.9943 130.605C36.1492 118.359 37.9437 111.924 39.3148 109.624C68.7761 110.467 76.1154 110.079 76.1154 110.079C76.1154 110.079 79.3606 116.501 79.7231 130.876C79.7231 130.876 68.7023 144.302 56.997 144.302C46.4443 144.302 34.9943 130.605 34.9943 130.605Z" fill="#8E8E8E"/>
<path fill-rule="evenodd" clip-rule="evenodd" d="M39.3147 110.348L39.8719 104.794L75.9474 104.503L76.1152 110.065C76.1152 110.065 57.0229 111.527 39.3147 110.348Z" fill="#8E8E8E"/>
<path d="M58.1959 109.649C58.0426 109.647 57.9168 109.77 57.9148 109.923L57.8022 118.048C57.7722 120.134 57.7416 122.211 57.7106 124.247L57.5814 132.347L57.4511 139.574C57.4183 141.242 57.3871 142.701 57.3577 143.933C57.354 144.086 57.4752 144.214 57.6284 144.218C57.7817 144.221 57.9088 144.1 57.9125 143.946L57.9865 140.561L58.1113 133.83L58.1874 129.248C58.2293 126.648 58.271 123.933 58.3117 121.174L58.4697 109.931C58.4717 109.777 58.3491 109.651 58.1959 109.649Z" fill="#373737"/>
<path d="M53.0489 109.918C52.8957 109.915 52.7689 110.037 52.7658 110.191L52.7082 113.329L52.6735 115.525C52.646 117.381 52.6235 119.207 52.6076 120.957L52.5908 123.167C52.5709 126.525 52.5815 129.295 52.6305 131.309C52.8457 133.301 53.9295 134.489 55.5768 135.007C56.4665 135.287 57.3994 135.34 58.2338 135.264L58.3636 135.251C58.4201 135.245 58.464 135.239 58.4939 135.234C58.6452 135.21 58.7485 135.068 58.7246 134.916C58.7006 134.764 58.5585 134.661 58.4071 134.685L58.2985 134.699C58.2657 134.703 58.2274 134.707 58.1838 134.711C57.4161 134.78 56.552 134.731 55.743 134.477C54.2961 134.022 53.3724 133.009 53.1838 131.273L53.1625 130.174C53.1312 128.153 53.1287 125.53 53.1506 122.442L53.1626 120.962C53.1762 119.463 53.1947 117.908 53.217 116.326L53.2774 112.505L53.3206 110.202C53.3238 110.049 53.2022 109.922 53.0489 109.918Z" fill="#373737"/>
<path d="M42.5384 110.687C42.3852 110.685 42.259 110.808 42.2566 110.961L42.2503 111.156C42.2476 111.221 42.2438 111.297 42.2389 111.384C42.2198 111.725 42.189 112.106 42.1439 112.515C42.0153 113.685 41.7985 114.854 41.4737 115.943C40.7294 118.437 39.54 120.115 37.8357 120.632C37.689 120.677 37.6061 120.832 37.6506 120.979C37.695 121.126 37.8499 121.209 37.9966 121.164C39.9206 120.58 41.2132 118.757 42.0054 116.102C42.3409 114.978 42.5635 113.777 42.6956 112.576C42.7418 112.156 42.7734 111.766 42.7931 111.416L42.8115 110.97C42.8139 110.816 42.6916 110.69 42.5384 110.687Z" fill="#373737"/>
<path d="M72.8889 111.33C72.7509 111.329 72.6358 111.429 72.6133 111.561L72.6093 111.606L72.6093 111.704C72.6105 112.072 72.6274 112.612 72.6725 113.268C72.7513 114.414 72.8952 115.555 73.1209 116.624C73.7129 119.426 74.758 121.279 76.4199 121.711C76.5682 121.749 76.7197 121.66 76.7581 121.511C76.7966 121.363 76.7075 121.211 76.5592 121.173C75.1691 120.812 74.2158 119.121 73.6639 116.509C73.4441 115.468 73.3033 114.352 73.2262 113.23L73.2063 112.918C73.1799 112.466 73.1678 112.084 73.1649 111.795L73.1643 111.61C73.1654 111.457 73.0421 111.331 72.8889 111.33Z" fill="#373737"/>
<path d="M39.9605 104.515C39.8073 104.515 39.6831 104.64 39.6831 104.793C39.6831 104.931 39.7837 105.046 39.9155 105.068L39.9605 105.071H76.1395C76.2928 105.071 76.417 104.947 76.417 104.793C76.417 104.655 76.3164 104.54 76.1845 104.519L76.1395 104.515H39.9605Z" fill="#373737"/>
<path d="M39.2369 109.589C39.0837 109.589 38.9595 109.714 38.9595 109.867C38.9595 110.005 39.0601 110.12 39.1919 110.141L39.2369 110.145H76.1395C76.2928 110.145 76.417 110.021 76.417 109.867C76.417 109.729 76.3164 109.614 76.1845 109.593L76.1395 109.589H39.2369Z" fill="#373737"/>
<path fill-rule="evenodd" clip-rule="evenodd" d="M87.3041 56.9858C87.3041 56.9858 84.3946 47.2662 75.5517 50.0859C66.5345 52.9614 69.8622 62.681 69.8622 62.681C69.8622 62.681 71.7877 69.4918 74.3831 77.6595C76.4106 84.0419 77.9424 88.947 79.6291 92.9076C81.4474 97.1806 85.9799 99.6633 90.1217 98.3426C96.4161 96.3355 97.7996 91.6826 96.6014 87.2189C95.4357 82.8785 93.6832 77.0702 92.2932 72.3151C89.6188 63.1718 87.3041 56.9858 87.3041 56.9858Z" fill="#F48FB1"/>
<path fill-rule="evenodd" clip-rule="evenodd" d="M63.2503 171.064L99.0407 169.437C99.9893 169.394 100.723 168.589 100.68 167.639L99.54 142.476C99.4973 141.526 98.6934 140.79 97.7448 140.833L61.9551 142.46C61.0058 142.503 60.2721 143.308 60.3148 144.259L61.4551 169.422C61.4978 170.372 62.3017 171.108 63.2503 171.064Z" fill="#BF5F82"/>
<path fill-rule="evenodd" clip-rule="evenodd" d="M64.4691 171.009L100.259 169.382C101.207 169.338 101.942 168.533 101.899 167.583L100.759 142.42C100.716 141.47 99.9114 140.735 98.9635 140.777L63.1731 142.405C62.2238 142.448 61.4901 143.253 61.5328 144.204L62.6739 169.367C62.7165 170.317 63.5197 171.052 64.4691 171.009Z" fill="#373737"/>
<path fill-rule="evenodd" clip-rule="evenodd" d="M78.9348 141.694C81.1526 141.532 82.9073 141.694 83.8523 141.652C86.2907 141.542 85.6171 149.738 86.1062 151.03C86.8508 152.996 91.4629 151.873 93.2378 144.488C93.7429 142.389 93.6003 139.26 93.6032 136.286C93.6032 136.286 92.9925 129.143 90.1402 128.735C87.6662 128.38 85.5794 131.027 85.5794 131.027C85.5794 131.027 82.9536 134.706 81.6092 138.051L78.9348 141.694Z" fill="#C99382"/>
<path d="M87.7777 143.531C87.63 143.556 87.5305 143.697 87.5555 143.845L87.595 144.111L87.6311 144.39C87.649 144.537 87.6666 144.695 87.6835 144.865C87.8749 146.78 87.8771 148.875 87.565 150.915C87.5423 151.064 87.644 151.202 87.7921 151.225C87.9402 151.248 88.0787 151.146 88.1014 150.998C88.4213 148.906 88.4191 146.768 88.2235 144.811L88.188 144.478C88.1759 144.372 88.1636 144.272 88.1512 144.176L88.0906 143.754C88.068 143.621 87.9523 143.527 87.8217 143.527L87.7777 143.531Z" fill="#9B6160"/>
<path d="M90.0997 142.745C89.9532 142.776 89.8597 142.921 89.891 143.068C90.3687 145.308 90.267 147.359 89.8092 149.118C89.7411 149.379 89.6693 149.616 89.5969 149.826L89.5426 149.979C89.4891 150.124 89.4482 150.222 89.4263 150.269C89.3631 150.405 89.4219 150.566 89.5578 150.63C89.6936 150.693 89.855 150.634 89.9183 150.498L89.9735 150.37C89.9885 150.333 90.0052 150.29 90.0234 150.243L90.0517 150.167C90.1484 149.904 90.2447 149.6 90.3343 149.255C90.8123 147.419 90.9183 145.283 90.4218 142.954C90.3936 142.822 90.274 142.733 90.1435 142.739L90.0997 142.745Z" fill="#9B6160"/>
<path d="M92.2127 141.319C92.0637 141.335 91.9561 141.469 91.9724 141.618L91.9861 141.777C91.9901 141.832 91.9944 141.897 91.9987 141.972C92.0753 143.319 92.0114 145.128 91.6993 147.315C91.6781 147.464 91.7812 147.602 91.9295 147.623C92.0779 147.644 92.2153 147.541 92.2365 147.392C92.5401 145.264 92.613 143.484 92.55 142.124L92.5315 141.796C92.5241 141.687 92.5171 141.608 92.5119 141.559C92.4973 141.425 92.3873 141.324 92.2568 141.317L92.2127 141.319Z" fill="#9B6160"/>
<path fill-rule="evenodd" clip-rule="evenodd" d="M79.4362 94.0038C79.4362 94.0038 79.7806 83.5956 88.4722 83.5992C97.4367 83.6035 97.5684 93.6037 97.5684 93.6037C97.5684 93.6037 97.4873 100.643 97.4251 109.319C97.3882 114.616 97.229 120.464 96.5061 124.693C95.724 129.272 93.1762 129.726 88.8297 129.724C83.6691 129.722 81.5353 129.194 80.887 124.618C80.2676 120.255 80.2017 114.318 79.9427 109.719C79.4492 100.952 79.4362 94.0038 79.4362 94.0038Z" fill="#F48FB1"/>
<path fill-rule="evenodd" clip-rule="evenodd" d="M93.1944 134.216L83.1432 134.212L82.4225 127.408L93.9209 127.413L93.1944 134.216Z" fill="#F48FB1"/>
<path fill-rule="evenodd" clip-rule="evenodd" d="M43.836 49.0297C43.836 49.0297 53.1564 52.6801 49.053 62.1634C44.8685 71.833 35.6089 67.7282 35.6089 67.7282C35.6089 67.7282 29.0619 65.2934 21.2516 62.0612C15.1489 59.5366 10.4536 57.6251 6.72935 55.5933C2.70914 53.3999 0.876312 48.344 2.79814 43.9028C5.71851 37.1522 10.5817 35.8787 14.8812 37.4052C19.0628 38.8897 24.63 41.086 29.1951 42.8366C37.9721 46.2021 43.836 49.0297 43.836 49.0297Z" fill="#F48FB1"/>
<path d="M34.6314 64.889L34.5872 64.8898C34.4381 64.9045 34.329 65.0375 34.3437 65.1869L34.7502 69.2379L34.8746 70.4548C35.2462 74.0764 35.63 77.698 36.0087 81.1168L36.1118 82.044C36.2253 83.0593 36.3367 84.0418 36.4459 84.9882L36.7141 87.2788C37.4418 93.3973 38.0112 97.3478 38.3836 98.5737L38.3958 98.6119L38.3655 98.6732C37.1444 101.218 37.4142 103.058 38.645 104.255L38.7249 104.33C39.1511 104.722 39.5778 104.95 39.8738 105.051C40.0157 105.099 40.1698 105.023 40.2179 104.881C40.2661 104.739 40.1901 104.584 40.0482 104.536L39.9799 104.51C39.9242 104.486 39.8491 104.451 39.7596 104.403C39.5322 104.282 39.3043 104.125 39.092 103.93C37.9498 102.879 37.6968 101.226 38.9309 98.7529C38.9642 98.6862 38.9687 98.6086 38.9432 98.5385L38.9122 98.4469C38.5432 97.2874 37.9284 92.9695 37.1483 86.3291L36.853 83.7737C36.7865 83.1893 36.7192 82.5923 36.6512 81.9836L36.4447 80.1199C36.2033 77.9229 35.9605 75.6512 35.7208 73.3571L35.2901 69.1827L34.8838 65.1338C34.8706 64.9993 34.7617 64.8974 34.6314 64.889Z" fill="#8E8E8E"/>
<path d="M81.6221 63.5284C81.4724 63.5203 81.3446 63.6353 81.3366 63.7852L81.2933 64.4689L81.2452 65.1382C81.2157 65.5313 81.1814 65.9595 81.142 66.4213L81.0663 67.2799C80.8944 69.1702 80.6705 71.2531 80.3877 73.4939C79.4553 80.8814 78.082 88.4726 76.1835 95.8416C76.1663 95.9084 76.1751 95.9792 76.2081 96.0397C76.6741 96.8955 76.8658 98.0735 76.8215 99.4911C76.7874 100.58 76.6172 101.75 76.3544 102.929C76.2714 103.301 76.1837 103.654 76.095 103.98L75.9815 104.383C75.9377 104.532 75.9034 104.643 75.8817 104.708C75.8349 104.851 75.9122 105.005 76.0546 105.052C76.1969 105.099 76.3503 105.021 76.3972 104.878L76.4927 104.568C76.5112 104.505 76.5304 104.439 76.5504 104.369C76.6642 103.968 76.7779 103.523 76.8841 103.047C77.1537 101.838 77.3287 100.635 77.3639 99.5082C77.4087 98.0778 77.2246 96.862 76.7601 95.925L76.7349 95.8758L76.9545 95.0119C78.6518 88.2449 79.9125 81.3097 80.8016 74.5296L80.9261 73.5621L81.0528 72.5362C81.298 70.5074 81.4938 68.6179 81.6457 66.8948L81.7277 65.9274C81.7561 65.5781 81.7814 65.2507 81.8036 64.946L81.8565 64.1786L81.8785 63.8143C81.8865 63.6644 81.7717 63.5364 81.6221 63.5284Z" fill="#8E8E8E"/>
</g>
<defs>
<clipPath id="clip0_55_5683">
<rect width="102" height="278" fill="white" transform="matrix(-1 0 0 1 102 0)"/>
</clipPath>
</defs>
</svg>
