<svg width="18" height="18" viewBox="0 0 18 18" fill="none" xmlns="http://www.w3.org/2000/svg">
<path d="M5.85609 14.3273C8.76937 14.7248 11.6306 15.1158 14.5486 15.5142C13.5544 13.8591 12.5859 12.2461 11.6095 10.62C9.69656 11.8528 7.80141 13.0739 5.85656 14.3273H5.85609ZM15.3712 5.16562C15.1144 5.55141 14.857 5.93672 14.6006 6.3225C13.7198 7.64766 12.8391 8.97281 11.9592 10.2984C11.91 10.3725 11.8467 10.4311 11.9156 10.5445C12.7659 11.9484 13.6092 13.3566 14.4548 14.7633C14.5884 14.9855 14.723 15.2067 14.8959 15.42C15.0666 12.0056 15.2377 8.59125 15.4087 5.17688C15.3961 5.17313 15.3834 5.16937 15.3712 5.16609V5.16562ZM3.765 9.54281C3.80484 9.58078 3.90375 9.60234 3.95016 9.57984C4.76578 9.17906 5.58656 8.78719 6.38391 8.35313C6.64406 8.21156 6.84422 7.95844 7.06828 7.75266C7.81031 7.07203 8.55141 6.39 9.29203 5.70797C9.3375 5.66625 9.39094 5.62547 9.41812 5.57297C9.68437 5.05313 9.94547 4.53047 10.2164 3.99281C9.89344 3.87141 9.58781 3.75281 9.27797 3.645C9.23625 3.63047 9.16969 3.65953 9.12422 3.68484C8.40703 4.08516 7.67672 4.46437 6.9825 4.90125C6.63516 5.11969 6.35203 5.44219 6.04453 5.7225C5.54859 6.17484 5.05359 6.62859 4.56516 7.08891C4.43531 7.21125 4.31719 7.35047 4.21641 7.49766C3.88219 7.98422 3.55828 8.47781 3.21937 8.985C3.40875 9.18141 3.58125 9.36891 3.76547 9.54328L3.765 9.54281ZM6.74531 8.87813C6.33984 10.5919 5.93625 12.2963 5.51953 14.0564C7.47328 12.7973 9.3825 11.5673 11.2786 10.3458C9.76969 9.85734 8.26547 9.37031 6.74531 8.87859V8.87813ZM14.873 5.18203C13.222 5.45766 11.6105 5.72719 9.97828 5.99953C10.5342 7.35188 11.0789 8.67703 11.6395 10.0402C12.7237 8.41125 13.7864 6.81516 14.8734 5.18203H14.873ZM6.81328 8.5275C8.30016 9.01031 9.75703 9.48328 11.2566 9.96984C10.6997 8.61328 10.162 7.30406 9.61312 5.96766C8.67797 6.82266 7.75734 7.66453 6.81328 8.5275ZM3.82641 10.5422C3.29906 11.8027 2.79 13.02 2.27156 14.2594C3.26812 14.2298 4.23422 14.2013 5.23312 14.1717C4.76391 12.9614 4.30406 11.7745 3.82641 10.5417V10.5422ZM5.26781 13.3102C5.28 13.3078 5.29219 13.3045 5.30484 13.3022C5.66016 11.8238 6.02109 10.3552 6.38437 8.81859C5.57437 9.23953 4.80187 9.64078 4.00828 10.0537C4.41328 11.1066 4.845 12.217 5.26828 13.3102H5.26781ZM14.2753 4.9425C13.8023 4.81734 13.3294 4.69172 12.8564 4.56703C12.1762 4.38844 11.4956 4.21172 10.8159 4.03125C10.7311 4.00875 10.6697 3.99375 10.6195 4.09641C10.3795 4.58859 10.1316 5.07703 9.88781 5.56734C9.88031 5.58234 9.88172 5.60203 9.87609 5.64C11.3489 5.41687 12.8119 5.19516 14.2744 4.97344C14.2748 4.96312 14.2748 4.95281 14.2753 4.9425ZM11.5317 3.82313C12.8016 4.17469 14.0719 4.52578 15.3862 4.88953C15.165 4.25953 14.9602 3.67547 14.7492 3.07453C13.6697 3.31406 12.6037 3.55031 11.5373 3.78656C11.5355 3.79875 11.5336 3.81047 11.5317 3.82266V3.82313ZM5.595 14.6114C5.11734 14.5566 4.6275 14.6072 4.14328 14.6152C3.74531 14.6222 3.34781 14.6372 2.95031 14.6494C2.90906 14.6508 2.86828 14.6587 2.8275 14.7028C6.11578 15.007 9.40406 15.3108 12.6919 15.615C12.6942 15.6005 12.6961 15.5855 12.6984 15.5709C11.6442 15.427 10.5905 15.2831 9.53625 15.1392C8.22281 14.9597 6.91172 14.7628 5.595 14.6109V14.6114ZM2.33625 13.125C2.76 12.142 3.18187 11.1577 3.6075 10.1756C3.65016 10.0772 3.64687 10.0102 3.56344 9.93094C3.38531 9.76172 3.22031 9.57891 3.02578 9.37687C2.76281 10.6753 2.50641 11.9409 2.25 13.207C2.25937 13.2113 2.26922 13.2159 2.27859 13.2206C2.29828 13.1892 2.32219 13.1592 2.33672 13.1255L2.33625 13.125ZM10.6875 3.56344C11.4019 3.37922 12.127 3.23484 12.8475 3.07406C12.8939 3.06375 12.9398 3.04828 12.9858 3.03516C12.9834 3.02344 12.9811 3.01172 12.9787 3C11.9639 3.13641 10.9486 3.27328 9.88219 3.41672C10.1728 3.54375 10.3969 3.63844 10.6875 3.56391V3.56344Z" fill="#616161"/>
</svg>
